<ttFont>
    <TTGlyph name=".notdef" xMin="50" yMin="0" xMax="750" yMax="800">
      <contour>
        <pt x="50" y="0" on="1"/>
        <pt x="50" y="800" on="1"/>
        <pt x="750" y="800" on="1"/>
        <pt x="750" y="0" on="1"/>
      </contour>
      <contour>
        <pt x="700" y="50" on="1"/>
        <pt x="700" y="750" on="1"/>
        <pt x="100" y="750" on="1"/>
        <pt x="100" y="50" on="1"/>
      </contour>
    </TTGlyph>
    <TTGlyph name="A" xMin="8" yMin="-92" xMax="776" yMax="791">
      <contour>
        <pt x="776" y="361" on="1"/>
        <pt x="776" y="350" on="0"/>
        <pt x="749" y="335" on="1"/>
        <pt x="684" y="298" on="0"/>
        <pt x="678" y="278" on="1"/>
        <pt x="659" y="217" on="0"/>
        <pt x="657" y="209" on="1"/>
        <pt x="648" y="178" on="0"/>
        <pt x="648" y="172" on="1"/>
        <pt x="649" y="166" on="0"/>
        <pt x="649" y="156" on="1"/>
        <pt x="649" y="131" on="1"/>
        <pt x="645" y="132" on="0"/>
        <pt x="643" y="132" on="1"/>
        <pt x="636" y="132" on="0"/>
        <pt x="634" y="126" on="1"/>
        <pt x="626" y="83" on="0"/>
        <pt x="619" y="56" on="1"/>
        <pt x="605" y="4" on="0"/>
        <pt x="580" y="4" on="1"/>
        <pt x="565" y="4" on="0"/>
        <pt x="555" y="16" on="1"/>
        <pt x="549" y="23" on="0"/>
        <pt x="541" y="43" on="1"/>
        <pt x="535" y="59" on="0"/>
        <pt x="590" y="248" on="0"/>
        <pt x="605" y="278" on="1"/>
        <pt x="601" y="279" on="0"/>
        <pt x="598" y="280" on="1"/>
        <pt x="581" y="271" on="0"/>
        <pt x="565" y="263" on="1"/>
        <pt x="561" y="278" on="1"/>
        <pt x="554" y="278" on="0"/>
        <pt x="554" y="269" on="1"/>
        <pt x="554" y="265" on="0"/>
        <pt x="555" y="261" on="1"/>
        <pt x="555" y="260" on="0"/>
        <pt x="556" y="259" on="1"/>
        <pt x="489" y="241" on="0"/>
        <pt x="417" y="222" on="1"/>
        <pt x="273" y="184" on="0"/>
        <pt x="232" y="175" on="1"/>
        <pt x="209" y="170" on="0"/>
        <pt x="140" y="42" on="1"/>
        <pt x="117" y="0" on="0"/>
        <pt x="75" y="-85" on="1"/>
        <pt x="68" y="-92" on="0"/>
        <pt x="50" y="-92" on="1"/>
        <pt x="44" y="-92" on="0"/>
        <pt x="37" y="-91" on="1"/>
        <pt x="35" y="-91" on="0"/>
        <pt x="31" y="-90" on="1"/>
        <pt x="21" y="-90" on="0"/>
        <pt x="12" y="-90" on="1"/>
        <pt x="8" y="-87" on="0"/>
        <pt x="8" y="-82" on="1"/>
        <pt x="12" y="-69" on="0"/>
        <pt x="12" y="-60" on="1"/>
        <pt x="12" y="8" on="0"/>
        <pt x="100" y="138" on="0"/>
        <pt x="100" y="160" on="1"/>
        <pt x="100" y="174" on="0"/>
        <pt x="65" y="193" on="0"/>
        <pt x="65" y="205" on="1"/>
        <pt x="65" y="219" on="0"/>
        <pt x="87" y="223" on="1"/>
        <pt x="156" y="236" on="0"/>
        <pt x="217" y="332" on="1"/>
        <pt x="235" y="361" on="0"/>
        <pt x="283" y="416" on="1"/>
        <pt x="344" y="486" on="0"/>
        <pt x="365" y="514" on="1"/>
        <pt x="428" y="592" on="1"/>
        <pt x="518" y="675" on="0"/>
        <pt x="608" y="758" on="1"/>
        <pt x="645" y="791" on="0"/>
        <pt x="664" y="788" on="1"/>
        <pt x="689" y="784" on="0"/>
        <pt x="732" y="680" on="0"/>
        <pt x="732" y="616" on="1"/>
        <pt x="732" y="582" on="0"/>
        <pt x="720" y="501" on="0"/>
        <pt x="708" y="440" on="1"/>
        <pt x="707" y="435" on="0"/>
        <pt x="700" y="409" on="0"/>
        <pt x="700" y="402" on="1"/>
        <pt x="700" y="390" on="0"/>
        <pt x="714" y="375" on="0"/>
        <pt x="721" y="375" on="1"/>
        <pt x="729" y="375" on="0"/>
        <pt x="739" y="379" on="1"/>
        <pt x="765" y="389" on="0"/>
        <pt x="766" y="389" on="1"/>
        <pt x="773" y="389" on="0"/>
        <pt x="776" y="381" on="1"/>
        <pt x="776" y="371" on="0"/>
      </contour>
      <contour>
        <pt x="644" y="469" on="1"/>
        <pt x="643" y="474" on="0"/>
        <pt x="644" y="484" on="1"/>
        <pt x="649" y="509" on="1"/>
        <pt x="652" y="532" on="0"/>
        <pt x="668" y="642" on="0"/>
        <pt x="668" y="660" on="1"/>
        <pt x="668" y="684" on="0"/>
        <pt x="659" y="695" on="1"/>
        <pt x="606" y="649" on="0"/>
        <pt x="554" y="604" on="1"/>
        <pt x="458" y="494" on="0"/>
        <pt x="453" y="489" on="1"/>
        <pt x="410" y="440" on="0"/>
        <pt x="382" y="409" on="1"/>
        <pt x="372" y="399" on="0"/>
        <pt x="360" y="386" on="1"/>
        <pt x="341" y="363" on="0"/>
        <pt x="290" y="308" on="1"/>
        <pt x="258" y="273" on="0"/>
        <pt x="258" y="265" on="1"/>
        <pt x="258" y="259" on="0"/>
        <pt x="271" y="259" on="1"/>
        <pt x="286" y="259" on="1"/>
        <pt x="303" y="259" on="0"/>
        <pt x="336" y="272" on="1"/>
        <pt x="341" y="274" on="0"/>
        <pt x="350" y="278" on="1"/>
        <pt x="377" y="281" on="0"/>
        <pt x="501" y="317" on="1"/>
        <pt x="542" y="328" on="0"/>
        <pt x="619" y="352" on="1"/>
        <pt x="626" y="365" on="0"/>
        <pt x="633" y="396" on="0"/>
        <pt x="633" y="406" on="1"/>
        <pt x="632" y="422" on="0"/>
        <pt x="632" y="429" on="1"/>
        <pt x="632" y="432" on="0"/>
        <pt x="632" y="435" on="1"/>
        <pt x="634" y="439" on="0"/>
        <pt x="634" y="440" on="1"/>
      </contour>
    </TTGlyph>
    <TTGlyph name="B" xMin="3" yMin="-45" xMax="585" yMax="787">
      <contour>
        <pt x="585" y="621" on="1"/>
        <pt x="585" y="606" on="0"/>
        <pt x="516" y="548" on="1"/>
        <pt x="437" y="484" on="0"/>
        <pt x="359" y="421" on="1"/>
        <pt x="435" y="391" on="0"/>
        <pt x="458" y="375" on="1"/>
        <pt x="539" y="320" on="0"/>
        <pt x="539" y="236" on="1"/>
        <pt x="539" y="180" on="1"/>
        <pt x="525" y="151" on="0"/>
        <pt x="511" y="122" on="1"/>
        <pt x="472" y="56" on="0"/>
        <pt x="419" y="14" on="1"/>
        <pt x="343" y="-45" on="0"/>
        <pt x="249" y="-45" on="1"/>
        <pt x="183" y="-45" on="0"/>
        <pt x="98" y="-17" on="1"/>
        <pt x="3" y="14" on="0"/>
        <pt x="3" y="50" on="1"/>
        <pt x="3" y="70" on="1"/>
        <pt x="28" y="70" on="1"/>
        <pt x="55" y="47" on="0"/>
        <pt x="109" y="30" on="0"/>
        <pt x="139" y="30" on="1"/>
        <pt x="234" y="30" on="1"/>
        <pt x="328" y="30" on="0"/>
        <pt x="401" y="98" on="1"/>
        <pt x="469" y="161" on="0"/>
        <pt x="469" y="231" on="1"/>
        <pt x="469" y="307" on="0"/>
        <pt x="402" y="336" on="1"/>
        <pt x="355" y="356" on="0"/>
        <pt x="264" y="356" on="1"/>
        <pt x="262" y="356" on="0"/>
        <pt x="246" y="364" on="0"/>
        <pt x="236" y="364" on="1"/>
        <pt x="222" y="364" on="0"/>
        <pt x="199" y="356" on="1"/>
        <pt x="199" y="339" on="0"/>
        <pt x="181" y="291" on="1"/>
        <pt x="167" y="256" on="0"/>
        <pt x="154" y="221" on="1"/>
        <pt x="132" y="141" on="0"/>
        <pt x="128" y="124" on="1"/>
        <pt x="121" y="100" on="0"/>
        <pt x="98" y="100" on="1"/>
        <pt x="75" y="100" on="0"/>
        <pt x="53" y="144" on="0"/>
        <pt x="53" y="170" on="1"/>
        <pt x="71" y="214" on="0"/>
        <pt x="89" y="259" on="1"/>
        <pt x="135" y="371" on="0"/>
        <pt x="157" y="431" on="1"/>
        <pt x="194" y="530" on="0"/>
        <pt x="194" y="546" on="1"/>
        <pt x="191" y="548" on="0"/>
        <pt x="190" y="550" on="1"/>
        <pt x="179" y="564" on="0"/>
        <pt x="179" y="586" on="1"/>
        <pt x="179" y="594" on="0"/>
        <pt x="197" y="601" on="0"/>
        <pt x="209" y="601" on="1"/>
        <pt x="231" y="601" on="0"/>
        <pt x="239" y="573" on="0"/>
        <pt x="239" y="536" on="1"/>
        <pt x="236" y="451" on="1"/>
        <pt x="282" y="473" on="0"/>
        <pt x="307" y="486" on="1"/>
        <pt x="384" y="526" on="0"/>
        <pt x="404" y="546" on="1"/>
        <pt x="461" y="592" on="0"/>
        <pt x="484" y="614" on="1"/>
        <pt x="524" y="653" on="0"/>
        <pt x="524" y="702" on="1"/>
        <pt x="524" y="716" on="0"/>
        <pt x="478" y="727" on="0"/>
        <pt x="469" y="727" on="1"/>
        <pt x="434" y="727" on="1"/>
        <pt x="422" y="727" on="0"/>
        <pt x="348" y="700" on="1"/>
        <pt x="323" y="691" on="0"/>
        <pt x="274" y="672" on="1"/>
        <pt x="227" y="666" on="0"/>
        <pt x="157" y="626" on="0"/>
        <pt x="123" y="606" on="1"/>
        <pt x="109" y="606" on="0"/>
        <pt x="83" y="642" on="0"/>
        <pt x="83" y="657" on="1"/>
        <pt x="83" y="665" on="0"/>
        <pt x="149" y="697" on="1"/>
        <pt x="221" y="732" on="0"/>
        <pt x="321" y="761" on="0"/>
        <pt x="369" y="775" on="1"/>
        <pt x="417" y="787" on="0"/>
        <pt x="474" y="787" on="1"/>
        <pt x="536" y="787" on="0"/>
        <pt x="585" y="738" on="0"/>
        <pt x="585" y="672" on="1"/>
      </contour>
    </TTGlyph>
    <TTGlyph name="C" xMin="8" yMin="-11" xMax="625" yMax="777">
      <contour>
        <pt x="625" y="692" on="1"/>
        <pt x="625" y="583" on="0"/>
        <pt x="586" y="496" on="1"/>
        <pt x="559" y="436" on="0"/>
        <pt x="508" y="382" on="1"/>
        <pt x="479" y="353" on="0"/>
        <pt x="450" y="325" on="1"/>
        <pt x="435" y="325" on="1"/>
        <pt x="435" y="361" on="1"/>
        <pt x="468" y="397" on="0"/>
        <pt x="514" y="493" on="1"/>
        <pt x="570" y="610" on="0"/>
        <pt x="570" y="682" on="1"/>
        <pt x="570" y="694" on="0"/>
        <pt x="559" y="707" on="0"/>
        <pt x="535" y="707" on="1"/>
        <pt x="474" y="707" on="0"/>
        <pt x="368" y="611" on="1"/>
        <pt x="316" y="558" on="0"/>
        <pt x="264" y="506" on="1"/>
        <pt x="238" y="483" on="0"/>
        <pt x="170" y="375" on="1"/>
        <pt x="94" y="254" on="0"/>
        <pt x="94" y="215" on="1"/>
        <pt x="94" y="205" on="0"/>
        <pt x="89" y="175" on="0"/>
        <pt x="89" y="170" on="1"/>
        <pt x="89" y="110" on="0"/>
        <pt x="114" y="85" on="1"/>
        <pt x="135" y="64" on="0"/>
        <pt x="179" y="64" on="1"/>
        <pt x="189" y="64" on="0"/>
        <pt x="195" y="64" on="1"/>
        <pt x="201" y="65" on="0"/>
        <pt x="204" y="65" on="1"/>
        <pt x="237" y="68" on="0"/>
        <pt x="426" y="140" on="0"/>
        <pt x="435" y="140" on="1"/>
        <pt x="441" y="141" on="0"/>
        <pt x="460" y="143" on="0"/>
        <pt x="485" y="150" on="1"/>
        <pt x="500" y="150" on="1"/>
        <pt x="481" y="115" on="0"/>
        <pt x="407" y="74" on="1"/>
        <pt x="369" y="53" on="0"/>
        <pt x="299" y="24" on="1"/>
        <pt x="273" y="11" on="0"/>
        <pt x="248" y="-1" on="1"/>
        <pt x="215" y="-11" on="0"/>
        <pt x="170" y="-11" on="1"/>
        <pt x="116" y="-11" on="0"/>
        <pt x="66" y="36" on="1"/>
        <pt x="8" y="90" on="0"/>
        <pt x="8" y="170" on="1"/>
        <pt x="8" y="235" on="1"/>
        <pt x="38" y="293" on="0"/>
        <pt x="55" y="324" on="1"/>
        <pt x="105" y="416" on="0"/>
        <pt x="124" y="441" on="1"/>
        <pt x="174" y="508" on="0"/>
        <pt x="211" y="550" on="1"/>
        <pt x="240" y="583" on="0"/>
        <pt x="269" y="616" on="1"/>
        <pt x="288" y="636" on="0"/>
        <pt x="307" y="657" on="1"/>
        <pt x="357" y="707" on="0"/>
        <pt x="406" y="735" on="1"/>
        <pt x="478" y="777" on="0"/>
        <pt x="545" y="777" on="1"/>
        <pt x="596" y="777" on="0"/>
        <pt x="614" y="744" on="1"/>
        <pt x="625" y="724" on="0"/>
      </contour>
    </TTGlyph>
    <TTGlyph name="D" xMin="-3" yMin="-23" xMax="698" yMax="747">
      <contour>
        <pt x="698" y="487" on="1"/>
        <pt x="698" y="443" on="0"/>
        <pt x="658" y="361" on="1"/>
        <pt x="623" y="290" on="0"/>
        <pt x="578" y="227" on="1"/>
        <pt x="561" y="204" on="0"/>
        <pt x="508" y="161" on="1"/>
        <pt x="461" y="123" on="0"/>
        <pt x="413" y="97" on="1"/>
        <pt x="331" y="52" on="0"/>
        <pt x="318" y="46" on="1"/>
        <pt x="178" y="-23" on="0"/>
        <pt x="68" y="-23" on="1"/>
        <pt x="38" y="-23" on="1"/>
        <pt x="23" y="-17" on="0"/>
        <pt x="17" y="-14" on="1"/>
        <pt x="-3" y="-3" on="0"/>
        <pt x="3" y="5" on="1"/>
        <pt x="4" y="6" on="0"/>
        <pt x="89" y="68" on="0"/>
        <pt x="163" y="327" on="1"/>
        <pt x="174" y="355" on="0"/>
        <pt x="181" y="375" on="1"/>
        <pt x="200" y="429" on="0"/>
        <pt x="223" y="497" on="1"/>
        <pt x="252" y="598" on="0"/>
        <pt x="267" y="652" on="0"/>
        <pt x="288" y="652" on="1"/>
        <pt x="301" y="652" on="0"/>
        <pt x="333" y="631" on="0"/>
        <pt x="333" y="617" on="1"/>
        <pt x="333" y="562" on="1"/>
        <pt x="325" y="555" on="0"/>
        <pt x="322" y="552" on="1"/>
        <pt x="310" y="540" on="0"/>
        <pt x="308" y="537" on="1"/>
        <pt x="295" y="506" on="0"/>
        <pt x="261" y="386" on="0"/>
        <pt x="243" y="322" on="1"/>
        <pt x="209" y="244" on="0"/>
        <pt x="190" y="181" on="1"/>
        <pt x="164" y="97" on="0"/>
        <pt x="158" y="87" on="1"/>
        <pt x="158" y="62" on="1"/>
        <pt x="212" y="62" on="0"/>
        <pt x="463" y="208" on="0"/>
        <pt x="503" y="257" on="1"/>
        <pt x="554" y="319" on="0"/>
        <pt x="582" y="370" on="1"/>
        <pt x="623" y="445" on="0"/>
        <pt x="623" y="512" on="1"/>
        <pt x="623" y="591" on="0"/>
        <pt x="561" y="636" on="1"/>
        <pt x="504" y="677" on="0"/>
        <pt x="418" y="677" on="1"/>
        <pt x="391" y="677" on="0"/>
        <pt x="350" y="679" on="0"/>
        <pt x="332" y="680" on="1"/>
        <pt x="307" y="680" on="0"/>
        <pt x="253" y="674" on="0"/>
        <pt x="229" y="657" on="0"/>
        <pt x="198" y="657" on="1"/>
        <pt x="193" y="657" on="0"/>
        <pt x="179" y="647" on="0"/>
        <pt x="173" y="647" on="1"/>
        <pt x="165" y="647" on="0"/>
        <pt x="130" y="622" on="0"/>
        <pt x="118" y="622" on="1"/>
        <pt x="110" y="622" on="0"/>
        <pt x="98" y="644" on="0"/>
        <pt x="98" y="652" on="1"/>
        <pt x="131" y="680" on="0"/>
        <pt x="153" y="694" on="1"/>
        <pt x="221" y="737" on="0"/>
        <pt x="278" y="737" on="1"/>
        <pt x="291" y="738" on="0"/>
        <pt x="321" y="739" on="0"/>
        <pt x="376" y="747" on="0"/>
        <pt x="413" y="747" on="1"/>
        <pt x="432" y="747" on="0"/>
        <pt x="454" y="745" on="0"/>
        <pt x="483" y="740" on="0"/>
        <pt x="512" y="725" on="0"/>
        <pt x="528" y="717" on="1"/>
        <pt x="613" y="683" on="0"/>
        <pt x="650" y="636" on="1"/>
        <pt x="698" y="575" on="0"/>
      </contour>
    </TTGlyph>
    <TTGlyph name="E" xMin="8" yMin="2" xMax="703" yMax="652">
      <contour>
        <pt x="703" y="627" on="1"/>
        <pt x="658" y="596" on="0"/>
        <pt x="594" y="582" on="1"/>
        <pt x="521" y="572" on="0"/>
        <pt x="448" y="562" on="1"/>
        <pt x="425" y="555" on="0"/>
        <pt x="397" y="553" on="0"/>
        <pt x="378" y="547" on="1"/>
        <pt x="277" y="515" on="0"/>
        <pt x="257" y="497" on="1"/>
        <pt x="210" y="456" on="0"/>
        <pt x="173" y="317" on="1"/>
        <pt x="189" y="313" on="0"/>
        <pt x="200" y="313" on="1"/>
        <pt x="207" y="313" on="0"/>
        <pt x="213" y="317" on="1"/>
        <pt x="317" y="345" on="0"/>
        <pt x="443" y="377" on="0"/>
        <pt x="468" y="377" on="1"/>
        <pt x="473" y="377" on="0"/>
        <pt x="490" y="365" on="0"/>
        <pt x="498" y="360" on="1"/>
        <pt x="486" y="339" on="0"/>
        <pt x="488" y="331" on="1"/>
        <pt x="489" y="328" on="0"/>
        <pt x="488" y="327" on="1"/>
        <pt x="479" y="313" on="0"/>
        <pt x="387" y="286" on="1"/>
        <pt x="328" y="268" on="0"/>
        <pt x="221" y="243" on="1"/>
        <pt x="177" y="232" on="0"/>
        <pt x="133" y="222" on="1"/>
        <pt x="118" y="194" on="0"/>
        <pt x="111" y="177" on="1"/>
        <pt x="88" y="124" on="0"/>
        <pt x="88" y="97" on="1"/>
        <pt x="88" y="78" on="0"/>
        <pt x="126" y="72" on="0"/>
        <pt x="143" y="72" on="1"/>
        <pt x="278" y="82" on="1"/>
        <pt x="293" y="82" on="1"/>
        <pt x="294" y="87" on="0"/>
        <pt x="318" y="87" on="1"/>
        <pt x="338" y="87" on="1"/>
        <pt x="371" y="87" on="0"/>
        <pt x="395" y="101" on="1"/>
        <pt x="416" y="117" on="0"/>
        <pt x="438" y="133" on="1"/>
        <pt x="444" y="133" on="0"/>
        <pt x="448" y="127" on="1"/>
        <pt x="460" y="112" on="0"/>
        <pt x="460" y="96" on="1"/>
        <pt x="460" y="83" on="0"/>
        <pt x="448" y="77" on="1"/>
        <pt x="399" y="49" on="0"/>
        <pt x="350" y="22" on="1"/>
        <pt x="288" y="2" on="0"/>
        <pt x="193" y="2" on="1"/>
        <pt x="148" y="2" on="1"/>
        <pt x="86" y="2" on="0"/>
        <pt x="66" y="6" on="1"/>
        <pt x="8" y="18" on="0"/>
        <pt x="8" y="87" on="1"/>
        <pt x="8" y="137" on="1"/>
        <pt x="113" y="372" on="1"/>
        <pt x="155" y="456" on="0"/>
        <pt x="175" y="526" on="1"/>
        <pt x="190" y="577" on="0"/>
        <pt x="233" y="577" on="1"/>
        <pt x="237" y="584" on="0"/>
        <pt x="242" y="587" on="1"/>
        <pt x="257" y="597" on="0"/>
        <pt x="288" y="597" on="1"/>
        <pt x="292" y="597" on="0"/>
        <pt x="307" y="602" on="0"/>
        <pt x="308" y="602" on="1"/>
        <pt x="337" y="622" on="0"/>
        <pt x="486" y="652" on="0"/>
        <pt x="593" y="652" on="1"/>
        <pt x="668" y="652" on="1"/>
        <pt x="679" y="652" on="0"/>
        <pt x="695" y="639" on="0"/>
      </contour>
    </TTGlyph>
    <TTGlyph name="F" xMin="3" yMin="-8" xMax="748" yMax="742">
      <contour>
        <pt x="748" y="712" on="1"/>
        <pt x="748" y="702" on="0"/>
        <pt x="743" y="691" on="1"/>
        <pt x="742" y="688" on="0"/>
        <pt x="738" y="682" on="1"/>
        <pt x="656" y="668" on="0"/>
        <pt x="614" y="662" on="1"/>
        <pt x="488" y="642" on="0"/>
        <pt x="478" y="642" on="1"/>
        <pt x="454" y="634" on="0"/>
        <pt x="404" y="620" on="0"/>
        <pt x="347" y="615" on="0"/>
        <pt x="283" y="609" on="0"/>
        <pt x="260" y="594" on="0"/>
        <pt x="260" y="577" on="1"/>
        <pt x="260" y="571" on="0"/>
        <pt x="261" y="564" on="1"/>
        <pt x="262" y="558" on="0"/>
        <pt x="263" y="552" on="1"/>
        <pt x="248" y="536" on="0"/>
        <pt x="241" y="524" on="1"/>
        <pt x="218" y="486" on="0"/>
        <pt x="218" y="442" on="1"/>
        <pt x="207" y="419" on="0"/>
        <pt x="197" y="397" on="1"/>
        <pt x="183" y="367" on="0"/>
        <pt x="173" y="337" on="1"/>
        <pt x="218" y="337" on="1"/>
        <pt x="280" y="350" on="0"/>
        <pt x="338" y="371" on="1"/>
        <pt x="383" y="387" on="0"/>
        <pt x="391" y="387" on="1"/>
        <pt x="404" y="387" on="0"/>
        <pt x="410" y="367" on="1"/>
        <pt x="418" y="341" on="0"/>
        <pt x="351" y="313" on="1"/>
        <pt x="303" y="295" on="0"/>
        <pt x="262" y="278" on="0"/>
        <pt x="216" y="272" on="0"/>
        <pt x="163" y="257" on="1"/>
        <pt x="131" y="248" on="0"/>
        <pt x="84" y="-8" on="0"/>
        <pt x="38" y="-8" on="1"/>
        <pt x="26" y="2" on="0"/>
        <pt x="21" y="8" on="1"/>
        <pt x="3" y="28" on="0"/>
        <pt x="3" y="42" on="1"/>
        <pt x="68" y="262" on="1"/>
        <pt x="60" y="266" on="0"/>
        <pt x="56" y="269" on="1"/>
        <pt x="43" y="280" on="0"/>
        <pt x="43" y="297" on="1"/>
        <pt x="61" y="301" on="0"/>
        <pt x="108" y="368" on="0"/>
        <pt x="128" y="437" on="1"/>
        <pt x="178" y="572" on="1"/>
        <pt x="170" y="584" on="0"/>
        <pt x="155" y="584" on="1"/>
        <pt x="151" y="584" on="0"/>
        <pt x="127" y="579" on="1"/>
        <pt x="117" y="577" on="0"/>
        <pt x="108" y="577" on="1"/>
        <pt x="97" y="577" on="0"/>
        <pt x="93" y="580" on="1"/>
        <pt x="88" y="584" on="0"/>
        <pt x="88" y="597" on="1"/>
        <pt x="88" y="616" on="0"/>
        <pt x="112" y="642" on="0"/>
        <pt x="138" y="642" on="1"/>
        <pt x="273" y="682" on="1"/>
        <pt x="663" y="742" on="1"/>
        <pt x="708" y="742" on="0"/>
        <pt x="748" y="729" on="0"/>
      </contour>
    </TTGlyph>
    <TTGlyph name="G" xMin="-1" yMin="-7" xMax="728" yMax="647">
      <contour>
        <pt x="728" y="187" on="1"/>
        <pt x="728" y="136" on="0"/>
        <pt x="621" y="82" on="1"/>
        <pt x="586" y="64" on="0"/>
        <pt x="514" y="38" on="1"/>
        <pt x="456" y="15" on="0"/>
        <pt x="424" y="7" on="1"/>
        <pt x="370" y="-7" on="0"/>
        <pt x="309" y="-7" on="1"/>
        <pt x="278" y="-7" on="0"/>
        <pt x="231" y="-4" on="0"/>
        <pt x="204" y="-2" on="1"/>
        <pt x="124" y="-2" on="0"/>
        <pt x="64" y="44" on="1"/>
        <pt x="-1" y="94" on="0"/>
        <pt x="-1" y="167" on="1"/>
        <pt x="-1" y="275" on="0"/>
        <pt x="83" y="375" on="1"/>
        <pt x="182" y="470" on="0"/>
        <pt x="209" y="497" on="1"/>
        <pt x="240" y="528" on="0"/>
        <pt x="348" y="581" on="1"/>
        <pt x="483" y="647" on="0"/>
        <pt x="568" y="647" on="1"/>
        <pt x="594" y="647" on="0"/>
        <pt x="621" y="630" on="1"/>
        <pt x="643" y="616" on="0"/>
        <pt x="643" y="597" on="1"/>
        <pt x="643" y="583" on="0"/>
        <pt x="638" y="559" on="1"/>
        <pt x="637" y="551" on="0"/>
        <pt x="633" y="537" on="1"/>
        <pt x="604" y="500" on="0"/>
        <pt x="532" y="459" on="1"/>
        <pt x="469" y="423" on="0"/>
        <pt x="439" y="417" on="1"/>
        <pt x="434" y="416" on="0"/>
        <pt x="436" y="432" on="0"/>
        <pt x="439" y="437" on="1"/>
        <pt x="446" y="449" on="0"/>
        <pt x="524" y="507" on="1"/>
        <pt x="551" y="537" on="0"/>
        <pt x="578" y="567" on="1"/>
        <pt x="529" y="567" on="1"/>
        <pt x="449" y="567" on="0"/>
        <pt x="359" y="513" on="1"/>
        <pt x="310" y="483" on="0"/>
        <pt x="244" y="427" on="1"/>
        <pt x="167" y="361" on="0"/>
        <pt x="69" y="219" on="0"/>
        <pt x="69" y="167" on="1"/>
        <pt x="69" y="125" on="0"/>
        <pt x="132" y="93" on="1"/>
        <pt x="181" y="68" on="0"/>
        <pt x="204" y="68" on="1"/>
        <pt x="314" y="68" on="1"/>
        <pt x="379" y="68" on="0"/>
        <pt x="471" y="90" on="0"/>
        <pt x="519" y="103" on="1"/>
        <pt x="521" y="103" on="0"/>
        <pt x="535" y="113" on="0"/>
        <pt x="538" y="113" on="1"/>
        <pt x="578" y="130" on="0"/>
        <pt x="598" y="141" on="1"/>
        <pt x="658" y="175" on="0"/>
        <pt x="658" y="207" on="1"/>
        <pt x="658" y="230" on="0"/>
        <pt x="617" y="255" on="1"/>
        <pt x="565" y="287" on="0"/>
        <pt x="489" y="287" on="1"/>
        <pt x="404" y="287" on="1"/>
        <pt x="388" y="280" on="0"/>
        <pt x="374" y="277" on="1"/>
        <pt x="331" y="267" on="0"/>
        <pt x="269" y="267" on="1"/>
        <pt x="255" y="267" on="0"/>
        <pt x="219" y="291" on="0"/>
        <pt x="219" y="307" on="1"/>
        <pt x="219" y="337" on="0"/>
        <pt x="324" y="357" on="0"/>
        <pt x="434" y="357" on="1"/>
        <pt x="579" y="357" on="0"/>
        <pt x="661" y="303" on="1"/>
        <pt x="728" y="259" on="0"/>
      </contour>
    </TTGlyph>
    <TTGlyph name="H" xMin="-1" yMin="-14" xMax="650" yMax="717">
      <contour>
        <pt x="650" y="677" on="1"/>
        <pt x="641" y="633" on="0"/>
        <pt x="634" y="602" on="1"/>
        <pt x="614" y="517" on="0"/>
        <pt x="582" y="406" on="1"/>
        <pt x="591" y="403" on="0"/>
        <pt x="606" y="403" on="1"/>
        <pt x="619" y="404" on="0"/>
        <pt x="624" y="404" on="1"/>
        <pt x="638" y="404" on="0"/>
        <pt x="640" y="391" on="1"/>
        <pt x="642" y="379" on="0"/>
        <pt x="640" y="376" on="1"/>
        <pt x="565" y="331" on="1"/>
        <pt x="547" y="320" on="0"/>
        <pt x="514" y="240" on="1"/>
        <pt x="475" y="145" on="0"/>
        <pt x="475" y="71" on="1"/>
        <pt x="467" y="43" on="0"/>
        <pt x="462" y="29" on="1"/>
        <pt x="444" y="-14" on="0"/>
        <pt x="425" y="-14" on="1"/>
        <pt x="415" y="-3" on="0"/>
        <pt x="410" y="3" on="1"/>
        <pt x="395" y="23" on="0"/>
        <pt x="395" y="41" on="1"/>
        <pt x="412" y="112" on="0"/>
        <pt x="421" y="149" on="1"/>
        <pt x="449" y="261" on="0"/>
        <pt x="460" y="281" on="1"/>
        <pt x="461" y="283" on="0"/>
        <pt x="472" y="296" on="0"/>
        <pt x="470" y="301" on="1"/>
        <pt x="469" y="306" on="0"/>
        <pt x="461" y="306" on="1"/>
        <pt x="456" y="306" on="0"/>
        <pt x="442" y="301" on="0"/>
        <pt x="440" y="301" on="1"/>
        <pt x="370" y="288" on="0"/>
        <pt x="184" y="238" on="0"/>
        <pt x="144" y="221" on="1"/>
        <pt x="124" y="212" on="0"/>
        <pt x="112" y="171" on="1"/>
        <pt x="109" y="158" on="0"/>
        <pt x="104" y="131" on="1"/>
        <pt x="99" y="121" on="0"/>
        <pt x="99" y="111" on="1"/>
        <pt x="99" y="86" on="1"/>
        <pt x="90" y="56" on="0"/>
        <pt x="83" y="41" on="1"/>
        <pt x="62" y="-4" on="0"/>
        <pt x="39" y="-4" on="1"/>
        <pt x="32" y="-4" on="0"/>
        <pt x="17" y="12" on="1"/>
        <pt x="-1" y="31" on="0"/>
        <pt x="-1" y="51" on="1"/>
        <pt x="-1" y="98" on="0"/>
        <pt x="44" y="212" on="1"/>
        <pt x="55" y="239" on="0"/>
        <pt x="129" y="411" on="1"/>
        <pt x="175" y="517" on="0"/>
        <pt x="175" y="537" on="1"/>
        <pt x="190" y="566" on="0"/>
        <pt x="197" y="584" on="1"/>
        <pt x="220" y="642" on="0"/>
        <pt x="220" y="687" on="1"/>
        <pt x="260" y="687" on="1"/>
        <pt x="275" y="687" on="0"/>
        <pt x="280" y="652" on="0"/>
        <pt x="280" y="642" on="1"/>
        <pt x="280" y="609" on="0"/>
        <pt x="224" y="466" on="0"/>
        <pt x="171" y="330" on="0"/>
        <pt x="175" y="316" on="1"/>
        <pt x="208" y="320" on="0"/>
        <pt x="228" y="323" on="1"/>
        <pt x="286" y="333" on="0"/>
        <pt x="335" y="351" on="1"/>
        <pt x="347" y="356" on="0"/>
        <pt x="482" y="383" on="0"/>
        <pt x="485" y="386" on="1"/>
        <pt x="505" y="433" on="0"/>
        <pt x="515" y="460" on="1"/>
        <pt x="545" y="542" on="0"/>
        <pt x="545" y="582" on="1"/>
        <pt x="557" y="583" on="0"/>
        <pt x="561" y="593" on="1"/>
        <pt x="570" y="613" on="0"/>
        <pt x="570" y="652" on="1"/>
        <pt x="581" y="674" on="0"/>
        <pt x="587" y="684" on="1"/>
        <pt x="606" y="717" on="0"/>
        <pt x="615" y="717" on="1"/>
        <pt x="624" y="717" on="0"/>
        <pt x="650" y="683" on="0"/>
      </contour>
    </TTGlyph>
    <TTGlyph name="I" xMin="9" yMin="-10" xMax="239" yMax="642">
      <contour>
        <pt x="239" y="597" on="1"/>
        <pt x="134" y="226" on="1"/>
        <pt x="107" y="182" on="0"/>
        <pt x="93" y="-10" on="0"/>
        <pt x="39" y="-10" on="1"/>
        <pt x="29" y="-5" on="0"/>
        <pt x="24" y="-1" on="1"/>
        <pt x="9" y="12" on="0"/>
        <pt x="9" y="30" on="1"/>
        <pt x="12" y="58" on="0"/>
        <pt x="15" y="79" on="1"/>
        <pt x="35" y="197" on="0"/>
        <pt x="89" y="336" on="1"/>
        <pt x="105" y="402" on="0"/>
        <pt x="144" y="534" on="0"/>
        <pt x="169" y="592" on="1"/>
        <pt x="170" y="609" on="0"/>
        <pt x="172" y="617" on="1"/>
        <pt x="179" y="642" on="0"/>
        <pt x="199" y="642" on="1"/>
        <pt x="218" y="642" on="0"/>
        <pt x="233" y="612" on="1"/>
        <pt x="235" y="607" on="0"/>
      </contour>
    </TTGlyph>
    <TTGlyph name="J" xMin="4" yMin="-51" xMax="582" yMax="797">
      <contour>
        <pt x="580" y="696" on="1"/>
        <pt x="580" y="688" on="0"/>
        <pt x="548" y="517" on="0"/>
        <pt x="532" y="434" on="1"/>
        <pt x="523" y="389" on="0"/>
        <pt x="515" y="345" on="1"/>
        <pt x="508" y="329" on="0"/>
        <pt x="505" y="320" on="1"/>
        <pt x="494" y="291" on="0"/>
        <pt x="486" y="259" on="0"/>
        <pt x="460" y="203" on="1"/>
        <pt x="428" y="135" on="0"/>
        <pt x="392" y="75" on="1"/>
        <pt x="346" y="-1" on="0"/>
        <pt x="309" y="-36" on="1"/>
        <pt x="292" y="-41" on="0"/>
        <pt x="281" y="-43" on="1"/>
        <pt x="245" y="-51" on="0"/>
        <pt x="224" y="-51" on="1"/>
        <pt x="166" y="-28" on="0"/>
        <pt x="128" y="5" on="1"/>
        <pt x="65" y="61" on="0"/>
        <pt x="9" y="155" on="1"/>
        <pt x="4" y="165" on="0"/>
        <pt x="4" y="171" on="1"/>
        <pt x="4" y="178" on="0"/>
        <pt x="16" y="204" on="0"/>
        <pt x="26" y="204" on="1"/>
        <pt x="45" y="204" on="0"/>
        <pt x="187" y="20" on="0"/>
        <pt x="227" y="20" on="1"/>
        <pt x="267" y="20" on="0"/>
        <pt x="314" y="83" on="1"/>
        <pt x="355" y="138" on="0"/>
        <pt x="355" y="160" on="1"/>
        <pt x="356" y="160" on="0"/>
        <pt x="379" y="214" on="1"/>
        <pt x="407" y="280" on="0"/>
        <pt x="428" y="342" on="1"/>
        <pt x="457" y="429" on="0"/>
        <pt x="465" y="486" on="1"/>
        <pt x="468" y="512" on="0"/>
        <pt x="508" y="633" on="0"/>
        <pt x="515" y="686" on="1"/>
        <pt x="519" y="721" on="0"/>
        <pt x="523" y="757" on="1"/>
        <pt x="532" y="797" on="0"/>
        <pt x="560" y="797" on="1"/>
        <pt x="573" y="797" on="0"/>
        <pt x="582" y="774" on="0"/>
        <pt x="582" y="751" on="1"/>
        <pt x="582" y="743" on="0"/>
        <pt x="580" y="706" on="0"/>
      </contour>
    </TTGlyph>
    <TTGlyph name="K" xMin="13" yMin="-9" xMax="759" yMax="772">
      <contour>
        <pt x="759" y="737" on="1"/>
        <pt x="759" y="723" on="0"/>
        <pt x="684" y="654" on="1"/>
        <pt x="659" y="631" on="0"/>
        <pt x="609" y="587" on="1"/>
        <pt x="545" y="531" on="0"/>
        <pt x="469" y="467" on="0"/>
        <pt x="453" y="467" on="1"/>
        <pt x="453" y="464" on="0"/>
        <pt x="452" y="461" on="1"/>
        <pt x="443" y="442" on="0"/>
        <pt x="403" y="402" on="1"/>
        <pt x="380" y="379" on="0"/>
        <pt x="343" y="348" on="0"/>
        <pt x="343" y="342" on="1"/>
        <pt x="343" y="337" on="0"/>
        <pt x="379" y="292" on="1"/>
        <pt x="421" y="239" on="0"/>
        <pt x="463" y="187" on="1"/>
        <pt x="472" y="171" on="0"/>
        <pt x="526" y="118" on="1"/>
        <pt x="577" y="68" on="0"/>
        <pt x="589" y="61" on="1"/>
        <pt x="598" y="58" on="0"/>
        <pt x="619" y="51" on="0"/>
        <pt x="619" y="41" on="1"/>
        <pt x="619" y="34" on="0"/>
        <pt x="605" y="6" on="0"/>
        <pt x="594" y="6" on="1"/>
        <pt x="569" y="6" on="1"/>
        <pt x="528" y="30" on="0"/>
        <pt x="504" y="47" on="1"/>
        <pt x="429" y="100" on="0"/>
        <pt x="339" y="209" on="0"/>
        <pt x="318" y="236" on="1"/>
        <pt x="253" y="320" on="0"/>
        <pt x="253" y="342" on="1"/>
        <pt x="253" y="379" on="0"/>
        <pt x="468" y="572" on="1"/>
        <pt x="518" y="611" on="0"/>
        <pt x="578" y="659" on="0"/>
        <pt x="594" y="677" on="1"/>
        <pt x="629" y="712" on="0"/>
        <pt x="706" y="772" on="0"/>
        <pt x="719" y="772" on="1"/>
        <pt x="727" y="772" on="0"/>
        <pt x="747" y="754" on="1"/>
        <pt x="759" y="743" on="0"/>
      </contour>
      <contour>
        <pt x="248" y="627" on="1"/>
        <pt x="248" y="608" on="0"/>
        <pt x="223" y="526" on="0"/>
        <pt x="223" y="507" on="1"/>
        <pt x="216" y="489" on="0"/>
        <pt x="211" y="473" on="1"/>
        <pt x="180" y="381" on="0"/>
        <pt x="138" y="232" on="1"/>
        <pt x="115" y="121" on="0"/>
        <pt x="93" y="11" on="1"/>
        <pt x="85" y="-9" on="0"/>
        <pt x="43" y="-9" on="1"/>
        <pt x="31" y="-9" on="0"/>
        <pt x="13" y="23" on="0"/>
        <pt x="13" y="41" on="1"/>
        <pt x="35" y="130" on="0"/>
        <pt x="45" y="175" on="1"/>
        <pt x="78" y="313" on="0"/>
        <pt x="78" y="317" on="1"/>
        <pt x="94" y="352" on="0"/>
        <pt x="103" y="375" on="1"/>
        <pt x="131" y="446" on="0"/>
        <pt x="143" y="507" on="1"/>
        <pt x="157" y="564" on="0"/>
        <pt x="165" y="592" on="1"/>
        <pt x="191" y="677" on="0"/>
        <pt x="213" y="677" on="1"/>
        <pt x="229" y="677" on="0"/>
        <pt x="248" y="646" on="0"/>
      </contour>
    </TTGlyph>
    <TTGlyph name="L" xMin="3" yMin="-4" xMax="533" yMax="687">
      <contour>
        <pt x="529" y="136" on="1"/>
        <pt x="515" y="120" on="0"/>
        <pt x="364" y="53" on="0"/>
        <pt x="324" y="46" on="1"/>
        <pt x="245" y="22" on="0"/>
        <pt x="136" y="-4" on="0"/>
        <pt x="98" y="-4" on="1"/>
        <pt x="67" y="-4" on="0"/>
        <pt x="40" y="7" on="1"/>
        <pt x="3" y="22" on="0"/>
        <pt x="3" y="51" on="1"/>
        <pt x="3" y="119" on="0"/>
        <pt x="55" y="224" on="1"/>
        <pt x="125" y="365" on="0"/>
        <pt x="133" y="391" on="1"/>
        <pt x="214" y="542" on="1"/>
        <pt x="218" y="549" on="0"/>
        <pt x="235" y="569" on="1"/>
        <pt x="246" y="581" on="0"/>
        <pt x="249" y="587" on="1"/>
        <pt x="276" y="634" on="0"/>
        <pt x="284" y="644" on="1"/>
        <pt x="318" y="687" on="0"/>
        <pt x="354" y="687" on="1"/>
        <pt x="360" y="687" on="0"/>
        <pt x="372" y="667" on="1"/>
        <pt x="376" y="661" on="0"/>
        <pt x="384" y="647" on="1"/>
        <pt x="384" y="640" on="0"/>
        <pt x="344" y="594" on="1"/>
        <pt x="320" y="567" on="0"/>
        <pt x="314" y="557" on="1"/>
        <pt x="293" y="525" on="0"/>
        <pt x="267" y="478" on="1"/>
        <pt x="250" y="447" on="0"/>
        <pt x="239" y="426" on="1"/>
        <pt x="233" y="417" on="0"/>
        <pt x="230" y="412" on="1"/>
        <pt x="220" y="396" on="0"/>
        <pt x="219" y="391" on="1"/>
        <pt x="218" y="391" on="0"/>
        <pt x="192" y="341" on="1"/>
        <pt x="163" y="285" on="0"/>
        <pt x="134" y="224" on="1"/>
        <pt x="97" y="145" on="0"/>
        <pt x="78" y="91" on="1"/>
        <pt x="76" y="83" on="0"/>
        <pt x="76" y="81" on="1"/>
        <pt x="76" y="77" on="0"/>
        <pt x="78" y="71" on="1"/>
        <pt x="80" y="64" on="0"/>
        <pt x="90" y="64" on="1"/>
        <pt x="93" y="64" on="0"/>
        <pt x="117" y="71" on="0"/>
        <pt x="123" y="71" on="1"/>
        <pt x="124" y="71" on="0"/>
        <pt x="200" y="92" on="1"/>
        <pt x="287" y="116" on="0"/>
        <pt x="353" y="133" on="1"/>
        <pt x="444" y="157" on="0"/>
        <pt x="491" y="164" on="0"/>
        <pt x="517" y="171" on="0"/>
        <pt x="519" y="171" on="1"/>
        <pt x="525" y="171" on="0"/>
        <pt x="533" y="151" on="0"/>
        <pt x="533" y="146" on="1"/>
        <pt x="533" y="140" on="0"/>
      </contour>
    </TTGlyph>
    <TTGlyph name="M" xMin="3" yMin="-10" xMax="936" yMax="667">
      <contour>
        <pt x="936" y="612" on="1"/>
        <pt x="936" y="574" on="0"/>
        <pt x="906" y="488" on="1"/>
        <pt x="871" y="397" on="0"/>
        <pt x="836" y="306" on="1"/>
        <pt x="831" y="281" on="0"/>
        <pt x="814" y="240" on="1"/>
        <pt x="794" y="195" on="0"/>
        <pt x="775" y="150" on="1"/>
        <pt x="759" y="99" on="0"/>
        <pt x="744" y="48" on="1"/>
        <pt x="731" y="10" on="0"/>
        <pt x="715" y="10" on="1"/>
        <pt x="705" y="10" on="0"/>
        <pt x="670" y="47" on="0"/>
        <pt x="670" y="60" on="1"/>
        <pt x="675" y="66" on="0"/>
        <pt x="677" y="71" on="1"/>
        <pt x="685" y="89" on="0"/>
        <pt x="685" y="115" on="1"/>
        <pt x="696" y="147" on="0"/>
        <pt x="707" y="180" on="1"/>
        <pt x="735" y="261" on="0"/>
        <pt x="761" y="326" on="1"/>
        <pt x="797" y="418" on="0"/>
        <pt x="831" y="481" on="1"/>
        <pt x="835" y="489" on="0"/>
        <pt x="835" y="502" on="1"/>
        <pt x="835" y="511" on="0"/>
        <pt x="833" y="525" on="0"/>
        <pt x="831" y="531" on="1"/>
        <pt x="824" y="529" on="0"/>
        <pt x="784" y="497" on="1"/>
        <pt x="687" y="419" on="0"/>
        <pt x="620" y="336" on="1"/>
        <pt x="612" y="326" on="0"/>
        <pt x="507" y="178" on="1"/>
        <pt x="466" y="120" on="0"/>
        <pt x="434" y="120" on="1"/>
        <pt x="424" y="120" on="0"/>
        <pt x="404" y="149" on="0"/>
        <pt x="404" y="170" on="1"/>
        <pt x="430" y="231" on="0"/>
        <pt x="470" y="371" on="0"/>
        <pt x="470" y="421" on="1"/>
        <pt x="470" y="461" on="1"/>
        <pt x="439" y="458" on="0"/>
        <pt x="374" y="397" on="1"/>
        <pt x="322" y="348" on="0"/>
        <pt x="268" y="285" on="1"/>
        <pt x="243" y="255" on="0"/>
        <pt x="219" y="225" on="1"/>
        <pt x="181" y="182" on="0"/>
        <pt x="112" y="63" on="1"/>
        <pt x="69" y="-10" on="0"/>
        <pt x="33" y="-10" on="1"/>
        <pt x="23" y="-2" on="0"/>
        <pt x="18" y="2" on="1"/>
        <pt x="3" y="16" on="0"/>
        <pt x="3" y="25" on="1"/>
        <pt x="3" y="44" on="0"/>
        <pt x="42" y="119" on="1"/>
        <pt x="63" y="159" on="0"/>
        <pt x="115" y="249" on="1"/>
        <pt x="134" y="282" on="0"/>
        <pt x="154" y="316" on="1"/>
        <pt x="165" y="344" on="0"/>
        <pt x="227" y="451" on="0"/>
        <pt x="259" y="506" on="1"/>
        <pt x="268" y="530" on="0"/>
        <pt x="278" y="555" on="1"/>
        <pt x="291" y="581" on="0"/>
        <pt x="314" y="581" on="1"/>
        <pt x="326" y="574" on="0"/>
        <pt x="331" y="569" on="1"/>
        <pt x="349" y="552" on="0"/>
        <pt x="349" y="536" on="1"/>
        <pt x="341" y="532" on="0"/>
        <pt x="321" y="488" on="0"/>
        <pt x="314" y="446" on="1"/>
        <pt x="348" y="464" on="0"/>
        <pt x="399" y="508" on="1"/>
        <pt x="490" y="586" on="0"/>
        <pt x="520" y="586" on="1"/>
        <pt x="543" y="586" on="0"/>
        <pt x="555" y="552" on="0"/>
        <pt x="555" y="521" on="1"/>
        <pt x="555" y="501" on="0"/>
        <pt x="545" y="475" on="0"/>
        <pt x="545" y="466" on="1"/>
        <pt x="545" y="434" on="0"/>
        <pt x="542" y="384" on="0"/>
        <pt x="540" y="371" on="1"/>
        <pt x="579" y="409" on="0"/>
        <pt x="619" y="447" on="1"/>
        <pt x="722" y="544" on="0"/>
        <pt x="776" y="590" on="1"/>
        <pt x="867" y="667" on="0"/>
        <pt x="891" y="667" on="1"/>
        <pt x="904" y="667" on="0"/>
        <pt x="936" y="625" on="0"/>
      </contour>
    </TTGlyph>
    <TTGlyph name="N" xMin="8" yMin="-4" xMax="874" yMax="777">
      <contour>
        <pt x="874" y="727" on="1"/>
        <pt x="874" y="705" on="0"/>
        <pt x="837" y="615" on="1"/>
        <pt x="814" y="558" on="0"/>
        <pt x="766" y="455" on="1"/>
        <pt x="728" y="373" on="0"/>
        <pt x="724" y="367" on="1"/>
        <pt x="658" y="258" on="0"/>
        <pt x="593" y="149" on="1"/>
        <pt x="524" y="56" on="0"/>
        <pt x="478" y="56" on="1"/>
        <pt x="448" y="56" on="0"/>
        <pt x="404" y="130" on="1"/>
        <pt x="368" y="191" on="0"/>
        <pt x="353" y="282" on="1"/>
        <pt x="348" y="292" on="0"/>
        <pt x="347" y="305" on="1"/>
        <pt x="343" y="332" on="0"/>
        <pt x="343" y="362" on="1"/>
        <pt x="340" y="364" on="0"/>
        <pt x="339" y="365" on="1"/>
        <pt x="328" y="377" on="0"/>
        <pt x="328" y="407" on="1"/>
        <pt x="313" y="407" on="1"/>
        <pt x="295" y="396" on="0"/>
        <pt x="258" y="335" on="1"/>
        <pt x="218" y="266" on="0"/>
        <pt x="178" y="197" on="1"/>
        <pt x="151" y="167" on="0"/>
        <pt x="119" y="103" on="1"/>
        <pt x="65" y="-4" on="0"/>
        <pt x="38" y="-4" on="1"/>
        <pt x="20" y="-4" on="0"/>
        <pt x="8" y="14" on="0"/>
        <pt x="8" y="31" on="1"/>
        <pt x="8" y="53" on="0"/>
        <pt x="66" y="167" on="0"/>
        <pt x="148" y="307" on="1"/>
        <pt x="170" y="344" on="0"/>
        <pt x="192" y="381" on="1"/>
        <pt x="235" y="451" on="0"/>
        <pt x="273" y="499" on="1"/>
        <pt x="323" y="562" on="0"/>
        <pt x="348" y="562" on="1"/>
        <pt x="365" y="562" on="0"/>
        <pt x="383" y="531" on="0"/>
        <pt x="383" y="497" on="1"/>
        <pt x="383" y="485" on="0"/>
        <pt x="418" y="325" on="0"/>
        <pt x="418" y="312" on="1"/>
        <pt x="418" y="294" on="0"/>
        <pt x="437" y="227" on="1"/>
        <pt x="460" y="146" on="0"/>
        <pt x="478" y="146" on="1"/>
        <pt x="514" y="146" on="0"/>
        <pt x="590" y="280" on="1"/>
        <pt x="637" y="368" on="0"/>
        <pt x="684" y="457" on="1"/>
        <pt x="713" y="507" on="0"/>
        <pt x="741" y="584" on="0"/>
        <pt x="754" y="622" on="1"/>
        <pt x="773" y="660" on="0"/>
        <pt x="800" y="725" on="1"/>
        <pt x="821" y="777" on="0"/>
        <pt x="844" y="777" on="1"/>
        <pt x="861" y="777" on="0"/>
        <pt x="874" y="748" on="0"/>
      </contour>
    </TTGlyph>
    <TTGlyph name="O" xMin="8" yMin="-3" xMax="746" yMax="697">
      <contour>
        <pt x="733" y="402" on="1"/>
        <pt x="720" y="359" on="0"/>
        <pt x="695" y="327" on="1"/>
        <pt x="670" y="298" on="0"/>
        <pt x="653" y="277" on="1"/>
        <pt x="629" y="248" on="0"/>
        <pt x="501" y="160" on="1"/>
        <pt x="361" y="64" on="0"/>
        <pt x="303" y="47" on="1"/>
        <pt x="265" y="30" on="0"/>
        <pt x="243" y="22" on="1"/>
        <pt x="175" y="-3" on="0"/>
        <pt x="133" y="-3" on="1"/>
        <pt x="79" y="-3" on="0"/>
        <pt x="8" y="58" on="0"/>
        <pt x="8" y="107" on="1"/>
        <pt x="14" y="133" on="0"/>
        <pt x="21" y="160" on="1"/>
        <pt x="44" y="228" on="0"/>
        <pt x="87" y="296" on="1"/>
        <pt x="147" y="391" on="0"/>
        <pt x="243" y="477" on="1"/>
        <pt x="368" y="590" on="0"/>
        <pt x="456" y="642" on="1"/>
        <pt x="549" y="697" on="0"/>
        <pt x="613" y="697" on="1"/>
        <pt x="646" y="697" on="0"/>
        <pt x="724" y="595" on="0"/>
        <pt x="738" y="542" on="1"/>
        <pt x="742" y="525" on="0"/>
        <pt x="746" y="499" on="0"/>
        <pt x="746" y="481" on="1"/>
        <pt x="746" y="464" on="0"/>
        <pt x="740" y="425" on="0"/>
      </contour>
      <contour>
        <pt x="638" y="522" on="1"/>
        <pt x="638" y="571" on="0"/>
        <pt x="634" y="590" on="1"/>
        <pt x="627" y="622" on="0"/>
        <pt x="608" y="622" on="1"/>
        <pt x="594" y="622" on="0"/>
        <pt x="576" y="613" on="0"/>
        <pt x="559" y="608" on="0"/>
        <pt x="540" y="598" on="0"/>
        <pt x="538" y="597" on="1"/>
        <pt x="502" y="589" on="0"/>
        <pt x="400" y="506" on="1"/>
        <pt x="329" y="448" on="0"/>
        <pt x="293" y="412" on="1"/>
        <pt x="178" y="297" on="0"/>
        <pt x="122" y="211" on="1"/>
        <pt x="77" y="142" on="0"/>
        <pt x="77" y="105" on="1"/>
        <pt x="77" y="93" on="0"/>
        <pt x="83" y="87" on="1"/>
        <pt x="96" y="74" on="0"/>
        <pt x="107" y="74" on="1"/>
        <pt x="114" y="74" on="0"/>
        <pt x="122" y="76" on="1"/>
        <pt x="145" y="81" on="0"/>
        <pt x="148" y="82" on="1"/>
        <pt x="191" y="90" on="0"/>
        <pt x="262" y="116" on="1"/>
        <pt x="361" y="153" on="0"/>
        <pt x="446" y="204" on="1"/>
        <pt x="556" y="270" on="0"/>
        <pt x="628" y="352" on="1"/>
        <pt x="643" y="369" on="0"/>
        <pt x="674" y="445" on="0"/>
        <pt x="678" y="482" on="1"/>
        <pt x="679" y="491" on="0"/>
        <pt x="679" y="510" on="0"/>
        <pt x="679" y="514" on="1"/>
        <pt x="679" y="527" on="0"/>
        <pt x="679" y="543" on="0"/>
        <pt x="678" y="547" on="1"/>
        <pt x="658" y="522" on="1"/>
      </contour>
    </TTGlyph>
    <TTGlyph name="P" xMin="3" yMin="-35" xMax="730" yMax="794">
      <contour>
        <pt x="730" y="601" on="1"/>
        <pt x="730" y="515" on="0"/>
        <pt x="695" y="459" on="1"/>
        <pt x="666" y="412" on="0"/>
        <pt x="589" y="351" on="1"/>
        <pt x="534" y="306" on="1"/>
        <pt x="489" y="276" on="1"/>
        <pt x="462" y="258" on="0"/>
        <pt x="294" y="206" on="0"/>
        <pt x="254" y="206" on="1"/>
        <pt x="216" y="206" on="0"/>
        <pt x="181" y="215" on="0"/>
        <pt x="164" y="221" on="1"/>
        <pt x="145" y="221" on="0"/>
        <pt x="73" y="-35" on="0"/>
        <pt x="38" y="-35" on="1"/>
        <pt x="22" y="-35" on="0"/>
        <pt x="3" y="-8" on="0"/>
        <pt x="3" y="10" on="1"/>
        <pt x="3" y="32" on="0"/>
        <pt x="99" y="281" on="1"/>
        <pt x="158" y="433" on="0"/>
        <pt x="182" y="478" on="1"/>
        <pt x="203" y="516" on="0"/>
        <pt x="224" y="516" on="1"/>
        <pt x="240" y="516" on="0"/>
        <pt x="246" y="512" on="1"/>
        <pt x="259" y="503" on="0"/>
        <pt x="259" y="476" on="1"/>
        <pt x="259" y="450" on="0"/>
        <pt x="189" y="298" on="0"/>
        <pt x="189" y="276" on="1"/>
        <pt x="189" y="269" on="0"/>
        <pt x="199" y="269" on="1"/>
        <pt x="207" y="269" on="0"/>
        <pt x="243" y="277" on="1"/>
        <pt x="295" y="288" on="0"/>
        <pt x="334" y="296" on="1"/>
        <pt x="360" y="304" on="0"/>
        <pt x="376" y="311" on="1"/>
        <pt x="424" y="331" on="0"/>
        <pt x="469" y="361" on="1"/>
        <pt x="556" y="420" on="0"/>
        <pt x="590" y="456" on="1"/>
        <pt x="640" y="510" on="0"/>
        <pt x="660" y="591" on="1"/>
        <pt x="661" y="594" on="0"/>
        <pt x="661" y="602" on="1"/>
        <pt x="661" y="637" on="0"/>
        <pt x="628" y="673" on="1"/>
        <pt x="592" y="712" on="0"/>
        <pt x="549" y="712" on="1"/>
        <pt x="537" y="718" on="0"/>
        <pt x="530" y="720" on="1"/>
        <pt x="507" y="729" on="0"/>
        <pt x="489" y="732" on="1"/>
        <pt x="426" y="723" on="0"/>
        <pt x="391" y="716" on="1"/>
        <pt x="284" y="694" on="0"/>
        <pt x="239" y="667" on="1"/>
        <pt x="218" y="655" on="0"/>
        <pt x="191" y="624" on="0"/>
        <pt x="179" y="611" on="1"/>
        <pt x="173" y="609" on="0"/>
        <pt x="170" y="609" on="1"/>
        <pt x="164" y="608" on="0"/>
        <pt x="164" y="611" on="1"/>
        <pt x="164" y="626" on="0"/>
        <pt x="156" y="658" on="0"/>
        <pt x="156" y="662" on="1"/>
        <pt x="156" y="671" on="0"/>
        <pt x="164" y="682" on="1"/>
        <pt x="193" y="707" on="0"/>
        <pt x="211" y="719" on="1"/>
        <pt x="266" y="757" on="0"/>
        <pt x="299" y="757" on="1"/>
        <pt x="303" y="761" on="0"/>
        <pt x="308" y="763" on="1"/>
        <pt x="338" y="778" on="0"/>
        <pt x="404" y="787" on="1"/>
        <pt x="423" y="790" on="0"/>
        <pt x="449" y="794" on="0"/>
        <pt x="464" y="794" on="1"/>
        <pt x="469" y="794" on="0"/>
        <pt x="475" y="794" on="1"/>
        <pt x="484" y="792" on="0"/>
        <pt x="489" y="792" on="1"/>
        <pt x="588" y="783" on="0"/>
        <pt x="651" y="742" on="1"/>
        <pt x="730" y="691" on="0"/>
      </contour>
    </TTGlyph>
    <TTGlyph name="Q" xMin="-2" yMin="-195" xMax="845" yMax="797">
      <contour>
        <pt x="845" y="536" on="1"/>
        <pt x="845" y="448" on="0"/>
        <pt x="713" y="231" on="0"/>
        <pt x="614" y="161" on="1"/>
        <pt x="530" y="102" on="0"/>
        <pt x="500" y="-32" on="1"/>
        <pt x="475" y="-141" on="0"/>
        <pt x="454" y="-195" on="1"/>
        <pt x="426" y="-188" on="0"/>
        <pt x="418" y="-169" on="1"/>
        <pt x="414" y="-160" on="0"/>
        <pt x="414" y="-135" on="1"/>
        <pt x="414" y="-123" on="0"/>
        <pt x="439" y="-38" on="0"/>
        <pt x="439" y="1" on="1"/>
        <pt x="439" y="16" on="1"/>
        <pt x="446" y="23" on="0"/>
        <pt x="454" y="31" on="1"/>
        <pt x="454" y="61" on="1"/>
        <pt x="419" y="61" on="1"/>
        <pt x="375" y="43" on="0"/>
        <pt x="222" y="11" on="0"/>
        <pt x="164" y="11" on="1"/>
        <pt x="94" y="11" on="0"/>
        <pt x="48" y="46" on="1"/>
        <pt x="-2" y="84" on="0"/>
        <pt x="-2" y="146" on="1"/>
        <pt x="-2" y="206" on="1"/>
        <pt x="5" y="228" on="0"/>
        <pt x="12" y="251" on="1"/>
        <pt x="34" y="309" on="0"/>
        <pt x="69" y="366" on="1"/>
        <pt x="117" y="444" on="0"/>
        <pt x="189" y="516" on="1"/>
        <pt x="206" y="538" on="0"/>
        <pt x="214" y="548" on="1"/>
        <pt x="229" y="566" on="0"/>
        <pt x="259" y="586" on="1"/>
        <pt x="295" y="609" on="0"/>
        <pt x="392" y="682" on="1"/>
        <pt x="467" y="738" on="0"/>
        <pt x="521" y="763" on="1"/>
        <pt x="596" y="797" on="0"/>
        <pt x="679" y="797" on="1"/>
        <pt x="721" y="797" on="0"/>
        <pt x="776" y="742" on="1"/>
        <pt x="845" y="673" on="0"/>
        <pt x="845" y="576" on="1"/>
      </contour>
      <contour>
        <pt x="775" y="526" on="1"/>
        <pt x="775" y="538" on="0"/>
        <pt x="775" y="551" on="1"/>
        <pt x="783" y="569" on="0"/>
        <pt x="783" y="591" on="1"/>
        <pt x="783" y="617" on="0"/>
        <pt x="761" y="655" on="0"/>
        <pt x="735" y="662" on="1"/>
        <pt x="735" y="642" on="1"/>
        <pt x="740" y="630" on="0"/>
        <pt x="704" y="521" on="0"/>
        <pt x="681" y="521" on="1"/>
        <pt x="679" y="521" on="0"/>
        <pt x="679" y="524" on="1"/>
        <pt x="679" y="530" on="0"/>
        <pt x="679" y="536" on="1"/>
        <pt x="672" y="555" on="0"/>
        <pt x="672" y="576" on="1"/>
        <pt x="672" y="589" on="0"/>
        <pt x="676" y="605" on="1"/>
        <pt x="686" y="645" on="0"/>
        <pt x="686" y="662" on="1"/>
        <pt x="686" y="677" on="0"/>
        <pt x="684" y="695" on="0"/>
        <pt x="679" y="717" on="1"/>
        <pt x="659" y="717" on="1"/>
        <pt x="614" y="707" on="0"/>
        <pt x="506" y="669" on="0"/>
        <pt x="429" y="611" on="1"/>
        <pt x="420" y="604" on="0"/>
        <pt x="368" y="574" on="0"/>
        <pt x="364" y="571" on="1"/>
        <pt x="335" y="546" on="0"/>
        <pt x="306" y="522" on="1"/>
        <pt x="260" y="481" on="0"/>
        <pt x="229" y="446" on="1"/>
        <pt x="179" y="390" on="0"/>
        <pt x="130" y="334" on="1"/>
        <pt x="86" y="274" on="0"/>
        <pt x="78" y="191" on="1"/>
        <pt x="78" y="156" on="1"/>
        <pt x="78" y="130" on="0"/>
        <pt x="96" y="114" on="1"/>
        <pt x="123" y="91" on="0"/>
        <pt x="184" y="91" on="1"/>
        <pt x="264" y="91" on="0"/>
        <pt x="319" y="108" on="1"/>
        <pt x="337" y="113" on="0"/>
        <pt x="359" y="126" on="1"/>
        <pt x="454" y="126" on="0"/>
        <pt x="492" y="192" on="1"/>
        <pt x="523" y="284" on="0"/>
        <pt x="554" y="376" on="1"/>
        <pt x="594" y="376" on="1"/>
        <pt x="596" y="364" on="0"/>
        <pt x="609" y="342" on="0"/>
        <pt x="609" y="336" on="1"/>
        <pt x="609" y="322" on="0"/>
        <pt x="607" y="317" on="1"/>
        <pt x="604" y="310" on="0"/>
        <pt x="594" y="301" on="1"/>
        <pt x="594" y="236" on="1"/>
        <pt x="665" y="262" on="0"/>
        <pt x="722" y="360" on="1"/>
        <pt x="775" y="452" on="0"/>
      </contour>
    </TTGlyph>
    <TTGlyph name="R" xMin="8" yMin="-94" xMax="760" yMax="790">
      <contour>
        <pt x="759" y="647" on="1"/>
        <pt x="753" y="584" on="0"/>
        <pt x="668" y="504" on="1"/>
        <pt x="652" y="489" on="0"/>
        <pt x="548" y="407" on="1"/>
        <pt x="520" y="385" on="0"/>
        <pt x="381" y="311" on="1"/>
        <pt x="283" y="259" on="0"/>
        <pt x="283" y="222" on="1"/>
        <pt x="283" y="202" on="0"/>
        <pt x="334" y="147" on="1"/>
        <pt x="375" y="103" on="0"/>
        <pt x="433" y="61" on="1"/>
        <pt x="497" y="15" on="0"/>
        <pt x="539" y="-12" on="1"/>
        <pt x="568" y="-30" on="0"/>
        <pt x="604" y="-49" on="1"/>
        <pt x="608" y="-54" on="0"/>
        <pt x="604" y="-69" on="1"/>
        <pt x="601" y="-80" on="0"/>
        <pt x="571" y="-94" on="0"/>
        <pt x="563" y="-94" on="1"/>
        <pt x="507" y="-71" on="0"/>
        <pt x="472" y="-50" on="1"/>
        <pt x="416" y="-16" on="0"/>
        <pt x="363" y="31" on="1"/>
        <pt x="309" y="72" on="0"/>
        <pt x="283" y="97" on="1"/>
        <pt x="203" y="173" on="0"/>
        <pt x="203" y="222" on="1"/>
        <pt x="203" y="286" on="0"/>
        <pt x="331" y="355" on="0"/>
        <pt x="363" y="374" on="1"/>
        <pt x="461" y="432" on="0"/>
        <pt x="503" y="462" on="1"/>
        <pt x="577" y="514" on="0"/>
        <pt x="627" y="562" on="1"/>
        <pt x="687" y="620" on="0"/>
        <pt x="684" y="647" on="1"/>
        <pt x="681" y="673" on="0"/>
        <pt x="637" y="698" on="1"/>
        <pt x="585" y="728" on="0"/>
        <pt x="519" y="728" on="1"/>
        <pt x="502" y="728" on="0"/>
        <pt x="493" y="727" on="1"/>
        <pt x="441" y="722" on="0"/>
        <pt x="323" y="711" on="0"/>
        <pt x="258" y="697" on="1"/>
        <pt x="251" y="695" on="0"/>
        <pt x="248" y="694" on="1"/>
        <pt x="241" y="692" on="0"/>
        <pt x="233" y="692" on="1"/>
        <pt x="228" y="692" on="0"/>
        <pt x="198" y="679" on="1"/>
        <pt x="193" y="677" on="0"/>
        <pt x="183" y="672" on="1"/>
        <pt x="159" y="655" on="0"/>
        <pt x="146" y="647" on="1"/>
        <pt x="104" y="620" on="0"/>
        <pt x="83" y="612" on="1"/>
        <pt x="79" y="611" on="0"/>
        <pt x="73" y="617" on="1"/>
        <pt x="62" y="628" on="0"/>
        <pt x="68" y="637" on="1"/>
        <pt x="119" y="712" on="0"/>
        <pt x="290" y="787" on="0"/>
        <pt x="398" y="787" on="1"/>
        <pt x="423" y="787" on="0"/>
        <pt x="466" y="789" on="0"/>
        <pt x="488" y="790" on="1"/>
        <pt x="511" y="790" on="0"/>
        <pt x="578" y="781" on="0"/>
        <pt x="618" y="776" on="1"/>
        <pt x="647" y="769" on="0"/>
        <pt x="679" y="747" on="1"/>
        <pt x="706" y="729" on="0"/>
        <pt x="734" y="711" on="1"/>
        <pt x="760" y="690" on="0"/>
        <pt x="760" y="658" on="1"/>
        <pt x="759" y="651" on="0"/>
      </contour>
      <contour>
        <pt x="308" y="552" on="1"/>
        <pt x="308" y="526" on="0"/>
        <pt x="211" y="310" on="0"/>
        <pt x="164" y="207" on="1"/>
        <pt x="113" y="93" on="0"/>
        <pt x="113" y="71" on="1"/>
        <pt x="113" y="59" on="0"/>
        <pt x="88" y="13" on="1"/>
        <pt x="60" y="-39" on="0"/>
        <pt x="43" y="-39" on="1"/>
        <pt x="24" y="-39" on="0"/>
        <pt x="8" y="-18" on="0"/>
        <pt x="8" y="1" on="1"/>
        <pt x="8" y="15" on="0"/>
        <pt x="124" y="312" on="0"/>
        <pt x="138" y="337" on="1"/>
        <pt x="166" y="387" on="0"/>
        <pt x="200" y="462" on="1"/>
        <pt x="248" y="567" on="0"/>
        <pt x="248" y="602" on="1"/>
        <pt x="273" y="602" on="1"/>
        <pt x="308" y="594" on="0"/>
      </contour>
    </TTGlyph>
    <TTGlyph name="S" xMin="3" yMin="-78" xMax="815" yMax="792">
      <contour>
        <pt x="679" y="547" on="1"/>
        <pt x="663" y="539" on="0"/>
        <pt x="655" y="535" on="1"/>
        <pt x="640" y="527" on="0"/>
        <pt x="634" y="517" on="1"/>
        <pt x="608" y="517" on="1"/>
        <pt x="606" y="528" on="0"/>
        <pt x="606" y="534" on="1"/>
        <pt x="606" y="543" on="0"/>
        <pt x="613" y="559" on="0"/>
        <pt x="632" y="559" on="1"/>
        <pt x="645" y="559" on="0"/>
        <pt x="663" y="553" on="1"/>
        <pt x="669" y="551" on="0"/>
      </contour>
      <contour>
        <pt x="809" y="682" on="1"/>
        <pt x="809" y="644" on="0"/>
        <pt x="730" y="561" on="0"/>
        <pt x="699" y="561" on="1"/>
        <pt x="692" y="561" on="0"/>
        <pt x="689" y="562" on="1"/>
        <pt x="718" y="597" on="0"/>
        <pt x="735" y="624" on="1"/>
        <pt x="759" y="662" on="0"/>
        <pt x="759" y="682" on="1"/>
        <pt x="759" y="698" on="0"/>
        <pt x="728" y="717" on="0"/>
        <pt x="709" y="717" on="1"/>
        <pt x="613" y="727" on="1"/>
        <pt x="604" y="727" on="0"/>
        <pt x="574" y="720" on="0"/>
        <pt x="527" y="711" on="0"/>
        <pt x="417" y="680" on="1"/>
        <pt x="378" y="669" on="0"/>
        <pt x="303" y="647" on="1"/>
        <pt x="226" y="619" on="0"/>
        <pt x="188" y="602" on="1"/>
        <pt x="73" y="551" on="0"/>
        <pt x="73" y="522" on="1"/>
        <pt x="73" y="506" on="0"/>
        <pt x="162" y="459" on="1"/>
        <pt x="265" y="410" on="0"/>
        <pt x="368" y="362" on="1"/>
        <pt x="512" y="281" on="0"/>
        <pt x="530" y="266" on="1"/>
        <pt x="608" y="204" on="0"/>
        <pt x="608" y="116" on="1"/>
        <pt x="608" y="54" on="0"/>
        <pt x="537" y="-3" on="1"/>
        <pt x="483" y="-47" on="0"/>
        <pt x="418" y="-69" on="1"/>
        <pt x="410" y="-71" on="0"/>
        <pt x="387" y="-78" on="0"/>
        <pt x="371" y="-78" on="1"/>
        <pt x="351" y="-78" on="0"/>
        <pt x="338" y="-76" on="1"/>
        <pt x="318" y="-71" on="0"/>
        <pt x="308" y="-69" on="1"/>
        <pt x="232" y="-51" on="0"/>
        <pt x="179" y="11" on="1"/>
        <pt x="133" y="65" on="0"/>
        <pt x="133" y="111" on="1"/>
        <pt x="133" y="126" on="0"/>
        <pt x="169" y="171" on="0"/>
        <pt x="188" y="171" on="1"/>
        <pt x="203" y="171" on="1"/>
        <pt x="203" y="166" on="0"/>
        <pt x="203" y="164" on="1"/>
        <pt x="203" y="153" on="0"/>
        <pt x="203" y="151" on="1"/>
        <pt x="201" y="139" on="0"/>
        <pt x="185" y="123" on="1"/>
        <pt x="183" y="121" on="0"/>
        <pt x="178" y="116" on="1"/>
        <pt x="192" y="76" on="0"/>
        <pt x="208" y="56" on="1"/>
        <pt x="258" y="-4" on="0"/>
        <pt x="358" y="-4" on="1"/>
        <pt x="418" y="-4" on="0"/>
        <pt x="475" y="31" on="1"/>
        <pt x="543" y="73" on="0"/>
        <pt x="543" y="136" on="1"/>
        <pt x="543" y="181" on="0"/>
        <pt x="479" y="229" on="1"/>
        <pt x="434" y="263" on="0"/>
        <pt x="343" y="306" on="1"/>
        <pt x="283" y="334" on="0"/>
        <pt x="160" y="391" on="0"/>
        <pt x="97" y="421" on="1"/>
        <pt x="3" y="473" on="0"/>
        <pt x="3" y="522" on="1"/>
        <pt x="3" y="587" on="0"/>
        <pt x="104" y="638" on="1"/>
        <pt x="166" y="667" on="0"/>
        <pt x="228" y="697" on="1"/>
        <pt x="258" y="712" on="0"/>
        <pt x="465" y="772" on="0"/>
        <pt x="498" y="772" on="1"/>
        <pt x="505" y="772" on="0"/>
        <pt x="531" y="782" on="0"/>
        <pt x="538" y="782" on="1"/>
        <pt x="563" y="786" on="0"/>
        <pt x="625" y="792" on="0"/>
        <pt x="639" y="792" on="1"/>
        <pt x="663" y="792" on="0"/>
        <pt x="703" y="785" on="0"/>
        <pt x="724" y="782" on="1"/>
        <pt x="749" y="777" on="1"/>
        <pt x="766" y="774" on="0"/>
        <pt x="774" y="771" on="1"/>
        <pt x="800" y="762" on="0"/>
        <pt x="809" y="747" on="1"/>
        <pt x="815" y="736" on="0"/>
        <pt x="815" y="730" on="1"/>
        <pt x="815" y="723" on="0"/>
        <pt x="814" y="718" on="1"/>
        <pt x="809" y="695" on="0"/>
      </contour>
    </TTGlyph>
    <TTGlyph name="T" xMin="3" yMin="-5" xMax="820" yMax="707">
      <contour>
        <pt x="820" y="682" on="1"/>
        <pt x="820" y="663" on="0"/>
        <pt x="752" y="640" on="0"/>
        <pt x="690" y="632" on="1"/>
        <pt x="684" y="631" on="0"/>
        <pt x="657" y="627" on="0"/>
        <pt x="650" y="627" on="1"/>
        <pt x="599" y="615" on="0"/>
        <pt x="565" y="609" on="1"/>
        <pt x="463" y="591" on="0"/>
        <pt x="379" y="591" on="1"/>
        <pt x="352" y="591" on="0"/>
        <pt x="196" y="564" on="1"/>
        <pt x="144" y="555" on="0"/>
        <pt x="43" y="536" on="1"/>
        <pt x="30" y="536" on="0"/>
        <pt x="3" y="569" on="0"/>
        <pt x="3" y="586" on="1"/>
        <pt x="3" y="603" on="0"/>
        <pt x="251" y="652" on="0"/>
        <pt x="274" y="652" on="1"/>
        <pt x="293" y="652" on="0"/>
        <pt x="304" y="653" on="1"/>
        <pt x="347" y="657" on="0"/>
        <pt x="354" y="657" on="1"/>
        <pt x="396" y="663" on="0"/>
        <pt x="438" y="670" on="1"/>
        <pt x="542" y="685" on="0"/>
        <pt x="618" y="694" on="1"/>
        <pt x="731" y="707" on="0"/>
        <pt x="785" y="707" on="1"/>
        <pt x="820" y="707" on="0"/>
      </contour>
      <contour>
        <pt x="369" y="491" on="1"/>
        <pt x="369" y="455" on="0"/>
        <pt x="349" y="402" on="1"/>
        <pt x="326" y="344" on="0"/>
        <pt x="304" y="286" on="1"/>
        <pt x="234" y="125" on="1"/>
        <pt x="217" y="96" on="0"/>
        <pt x="199" y="-5" on="0"/>
        <pt x="159" y="-5" on="1"/>
        <pt x="147" y="-5" on="0"/>
        <pt x="137" y="7" on="1"/>
        <pt x="124" y="22" on="0"/>
        <pt x="124" y="45" on="1"/>
        <pt x="124" y="64" on="0"/>
        <pt x="209" y="252" on="0"/>
        <pt x="209" y="266" on="1"/>
        <pt x="221" y="285" on="0"/>
        <pt x="226" y="295" on="1"/>
        <pt x="244" y="327" on="0"/>
        <pt x="244" y="331" on="1"/>
        <pt x="251" y="334" on="0"/>
        <pt x="254" y="337" on="1"/>
        <pt x="264" y="349" on="0"/>
        <pt x="264" y="376" on="1"/>
        <pt x="264" y="379" on="0"/>
        <pt x="274" y="401" on="0"/>
        <pt x="284" y="424" on="0"/>
        <pt x="301" y="551" on="0"/>
        <pt x="339" y="551" on="1"/>
        <pt x="359" y="551" on="0"/>
        <pt x="372" y="538" on="0"/>
        <pt x="372" y="525" on="1"/>
        <pt x="372" y="517" on="0"/>
        <pt x="370" y="499" on="0"/>
      </contour>
    </TTGlyph>
    <TTGlyph name="U" xMin="3" yMin="-10" xMax="656" yMax="606">
      <contour>
        <pt x="655" y="501" on="1"/>
        <pt x="651" y="479" on="0"/>
        <pt x="594" y="315" on="0"/>
        <pt x="580" y="286" on="1"/>
        <pt x="533" y="189" on="0"/>
        <pt x="512" y="157" on="1"/>
        <pt x="498" y="136" on="0"/>
        <pt x="464" y="100" on="1"/>
        <pt x="416" y="50" on="0"/>
        <pt x="248" y="-10" on="0"/>
        <pt x="159" y="-10" on="1"/>
        <pt x="111" y="-10" on="0"/>
        <pt x="60" y="42" on="1"/>
        <pt x="3" y="101" on="0"/>
        <pt x="3" y="171" on="1"/>
        <pt x="3" y="240" on="0"/>
        <pt x="66" y="394" on="1"/>
        <pt x="137" y="569" on="0"/>
        <pt x="194" y="557" on="1"/>
        <pt x="203" y="555" on="0"/>
        <pt x="209" y="540" on="0"/>
        <pt x="209" y="516" on="1"/>
        <pt x="209" y="510" on="0"/>
        <pt x="173" y="444" on="1"/>
        <pt x="124" y="354" on="0"/>
        <pt x="105" y="311" on="1"/>
        <pt x="69" y="229" on="0"/>
        <pt x="69" y="181" on="1"/>
        <pt x="69" y="139" on="0"/>
        <pt x="113" y="77" on="0"/>
        <pt x="154" y="70" on="1"/>
        <pt x="184" y="65" on="1"/>
        <pt x="357" y="65" on="0"/>
        <pt x="466" y="209" on="1"/>
        <pt x="558" y="330" on="0"/>
        <pt x="575" y="501" on="1"/>
        <pt x="580" y="548" on="0"/>
        <pt x="585" y="569" on="1"/>
        <pt x="595" y="606" on="0"/>
        <pt x="612" y="606" on="1"/>
        <pt x="618" y="606" on="0"/>
        <pt x="625" y="602" on="1"/>
        <pt x="650" y="585" on="0"/>
        <pt x="650" y="551" on="1"/>
        <pt x="652" y="545" on="0"/>
        <pt x="656" y="530" on="0"/>
        <pt x="656" y="517" on="1"/>
        <pt x="656" y="507" on="0"/>
      </contour>
    </TTGlyph>
    <TTGlyph name="V" xMin="3" yMin="-10" xMax="635" yMax="597">
      <contour>
        <pt x="635" y="537" on="1"/>
        <pt x="583" y="478" on="0"/>
        <pt x="513" y="394" on="0"/>
        <pt x="500" y="371" on="1"/>
        <pt x="471" y="320" on="0"/>
        <pt x="451" y="289" on="1"/>
        <pt x="393" y="199" on="0"/>
        <pt x="339" y="136" on="1"/>
        <pt x="306" y="98" on="0"/>
        <pt x="220" y="46" on="1"/>
        <pt x="127" y="-10" on="0"/>
        <pt x="84" y="-10" on="1"/>
        <pt x="63" y="-10" on="0"/>
        <pt x="37" y="35" on="1"/>
        <pt x="3" y="94" on="0"/>
        <pt x="3" y="181" on="1"/>
        <pt x="3" y="256" on="1"/>
        <pt x="17" y="296" on="0"/>
        <pt x="23" y="322" on="1"/>
        <pt x="44" y="404" on="0"/>
        <pt x="44" y="466" on="1"/>
        <pt x="44" y="471" on="0"/>
        <pt x="29" y="486" on="0"/>
        <pt x="29" y="491" on="1"/>
        <pt x="31" y="494" on="0"/>
        <pt x="32" y="495" on="1"/>
        <pt x="35" y="500" on="0"/>
        <pt x="35" y="505" on="1"/>
        <pt x="35" y="514" on="0"/>
        <pt x="29" y="521" on="1"/>
        <pt x="59" y="521" on="1"/>
        <pt x="88" y="521" on="0"/>
        <pt x="104" y="476" on="0"/>
        <pt x="104" y="436" on="1"/>
        <pt x="69" y="176" on="1"/>
        <pt x="69" y="154" on="0"/>
        <pt x="92" y="70" on="0"/>
        <pt x="109" y="70" on="1"/>
        <pt x="119" y="70" on="0"/>
        <pt x="150" y="84" on="1"/>
        <pt x="203" y="108" on="0"/>
        <pt x="250" y="150" on="1"/>
        <pt x="317" y="210" on="0"/>
        <pt x="369" y="301" on="1"/>
        <pt x="394" y="346" on="0"/>
        <pt x="445" y="414" on="1"/>
        <pt x="480" y="460" on="0"/>
        <pt x="515" y="506" on="1"/>
        <pt x="533" y="534" on="0"/>
        <pt x="551" y="563" on="1"/>
        <pt x="576" y="597" on="0"/>
        <pt x="600" y="597" on="1"/>
        <pt x="616" y="597" on="0"/>
        <pt x="627" y="567" on="1"/>
        <pt x="630" y="557" on="0"/>
      </contour>
    </TTGlyph>
    <TTGlyph name="W" xMin="-3" yMin="-64" xMax="993" yMax="792">
      <contour>
        <pt x="993" y="727" on="1"/>
        <pt x="993" y="716" on="0"/>
        <pt x="958" y="553" on="0"/>
        <pt x="958" y="537" on="1"/>
        <pt x="958" y="506" on="0"/>
        <pt x="934" y="420" on="1"/>
        <pt x="906" y="319" on="0"/>
        <pt x="863" y="217" on="1"/>
        <pt x="842" y="168" on="0"/>
        <pt x="706" y="77" on="0"/>
        <pt x="652" y="77" on="1"/>
        <pt x="597" y="77" on="0"/>
        <pt x="532" y="134" on="1"/>
        <pt x="462" y="195" on="0"/>
        <pt x="462" y="262" on="1"/>
        <pt x="462" y="270" on="0"/>
        <pt x="441" y="325" on="0"/>
        <pt x="437" y="332" on="1"/>
        <pt x="427" y="325" on="0"/>
        <pt x="391" y="242" on="0"/>
        <pt x="372" y="197" on="1"/>
        <pt x="337" y="138" on="0"/>
        <pt x="314" y="105" on="1"/>
        <pt x="298" y="83" on="0"/>
        <pt x="282" y="62" on="1"/>
        <pt x="261" y="7" on="0"/>
        <pt x="180" y="-60" on="0"/>
        <pt x="137" y="-64" on="1"/>
        <pt x="126" y="-64" on="0"/>
        <pt x="101" y="-48" on="1"/>
        <pt x="58" y="-20" on="0"/>
        <pt x="33" y="29" on="1"/>
        <pt x="-3" y="99" on="0"/>
        <pt x="-3" y="207" on="1"/>
        <pt x="-3" y="264" on="0"/>
        <pt x="1" y="368" on="0"/>
        <pt x="12" y="407" on="1"/>
        <pt x="14" y="412" on="0"/>
        <pt x="17" y="428" on="0"/>
        <pt x="17" y="432" on="1"/>
        <pt x="19" y="472" on="0"/>
        <pt x="23" y="561" on="0"/>
        <pt x="27" y="597" on="1"/>
        <pt x="28" y="606" on="0"/>
        <pt x="32" y="635" on="0"/>
        <pt x="32" y="647" on="1"/>
        <pt x="28" y="654" on="0"/>
        <pt x="28" y="660" on="1"/>
        <pt x="28" y="665" on="0"/>
        <pt x="32" y="672" on="1"/>
        <pt x="34" y="693" on="0"/>
        <pt x="39" y="708" on="1"/>
        <pt x="50" y="737" on="0"/>
        <pt x="82" y="737" on="1"/>
        <pt x="90" y="737" on="0"/>
        <pt x="117" y="703" on="0"/>
        <pt x="117" y="677" on="1"/>
        <pt x="117" y="647" on="1"/>
        <pt x="105" y="640" on="0"/>
        <pt x="87" y="571" on="0"/>
        <pt x="87" y="507" on="1"/>
        <pt x="77" y="466" on="0"/>
        <pt x="72" y="444" on="1"/>
        <pt x="57" y="377" on="0"/>
        <pt x="57" y="357" on="1"/>
        <pt x="57" y="337" on="0"/>
        <pt x="57" y="334" on="1"/>
        <pt x="57" y="332" on="0"/>
        <pt x="57" y="330" on="1"/>
        <pt x="57" y="327" on="0"/>
        <pt x="57" y="276" on="0"/>
        <pt x="57" y="217" on="1"/>
        <pt x="63" y="148" on="0"/>
        <pt x="70" y="114" on="1"/>
        <pt x="92" y="11" on="0"/>
        <pt x="137" y="11" on="1"/>
        <pt x="166" y="11" on="0"/>
        <pt x="242" y="116" on="1"/>
        <pt x="314" y="215" on="0"/>
        <pt x="327" y="257" on="1"/>
        <pt x="357" y="340" on="0"/>
        <pt x="387" y="424" on="1"/>
        <pt x="412" y="506" on="0"/>
        <pt x="412" y="552" on="1"/>
        <pt x="412" y="582" on="1"/>
        <pt x="425" y="622" on="0"/>
        <pt x="432" y="642" on="1"/>
        <pt x="455" y="702" on="0"/>
        <pt x="467" y="702" on="1"/>
        <pt x="496" y="702" on="0"/>
        <pt x="502" y="619" on="0"/>
        <pt x="502" y="567" on="1"/>
        <pt x="497" y="517" on="1"/>
        <pt x="493" y="497" on="0"/>
        <pt x="486" y="459" on="0"/>
        <pt x="486" y="444" on="1"/>
        <pt x="486" y="422" on="0"/>
        <pt x="493" y="383" on="0"/>
        <pt x="502" y="352" on="1"/>
        <pt x="504" y="345" on="0"/>
        <pt x="508" y="331" on="0"/>
        <pt x="512" y="322" on="1"/>
        <pt x="526" y="262" on="0"/>
        <pt x="538" y="232" on="1"/>
        <pt x="575" y="142" on="0"/>
        <pt x="627" y="142" on="1"/>
        <pt x="647" y="142" on="1"/>
        <pt x="748" y="159" on="0"/>
        <pt x="813" y="260" on="1"/>
        <pt x="868" y="346" on="0"/>
        <pt x="868" y="437" on="1"/>
        <pt x="908" y="617" on="1"/>
        <pt x="913" y="633" on="0"/>
        <pt x="923" y="792" on="0"/>
        <pt x="948" y="792" on="1"/>
        <pt x="959" y="792" on="0"/>
        <pt x="974" y="775" on="1"/>
        <pt x="993" y="754" on="0"/>
      </contour>
    </TTGlyph>
    <TTGlyph name="X" xMin="3" yMin="-175" xMax="620" yMax="662">
      <contour>
        <pt x="620" y="627" on="1"/>
        <pt x="620" y="619" on="0"/>
        <pt x="620" y="615" on="1"/>
        <pt x="620" y="602" on="0"/>
        <pt x="615" y="597" on="1"/>
        <pt x="610" y="596" on="0"/>
        <pt x="605" y="594" on="1"/>
        <pt x="584" y="586" on="0"/>
        <pt x="560" y="562" on="1"/>
        <pt x="546" y="548" on="0"/>
        <pt x="525" y="520" on="1"/>
        <pt x="492" y="476" on="0"/>
        <pt x="474" y="456" on="1"/>
        <pt x="472" y="454" on="0"/>
        <pt x="450" y="430" on="0"/>
        <pt x="435" y="419" on="0"/>
        <pt x="390" y="361" on="0"/>
        <pt x="389" y="361" on="1"/>
        <pt x="380" y="355" on="0"/>
        <pt x="372" y="350" on="1"/>
        <pt x="364" y="343" on="0"/>
        <pt x="364" y="331" on="1"/>
        <pt x="364" y="323" on="0"/>
        <pt x="434" y="184" on="0"/>
        <pt x="504" y="43" on="0"/>
        <pt x="504" y="30" on="1"/>
        <pt x="504" y="21" on="0"/>
        <pt x="483" y="-10" on="0"/>
        <pt x="474" y="-10" on="1"/>
        <pt x="470" y="-10" on="0"/>
        <pt x="454" y="-15" on="1"/>
        <pt x="448" y="-17" on="0"/>
        <pt x="443" y="-17" on="1"/>
        <pt x="435" y="-17" on="0"/>
        <pt x="434" y="-10" on="1"/>
        <pt x="421" y="53" on="0"/>
        <pt x="382" y="146" on="1"/>
        <pt x="340" y="246" on="0"/>
        <pt x="314" y="266" on="1"/>
        <pt x="273" y="232" on="0"/>
        <pt x="226" y="177" on="1"/>
        <pt x="158" y="98" on="0"/>
        <pt x="120" y="26" on="1"/>
        <pt x="69" y="-71" on="0"/>
        <pt x="69" y="-155" on="1"/>
        <pt x="69" y="-175" on="0"/>
        <pt x="48" y="-175" on="1"/>
        <pt x="24" y="-175" on="0"/>
        <pt x="3" y="-142" on="0"/>
        <pt x="3" y="-115" on="1"/>
        <pt x="18" y="-62" on="0"/>
        <pt x="29" y="-30" on="1"/>
        <pt x="63" y="67" on="0"/>
        <pt x="104" y="131" on="1"/>
        <pt x="159" y="217" on="0"/>
        <pt x="209" y="273" on="1"/>
        <pt x="278" y="350" on="0"/>
        <pt x="279" y="356" on="1"/>
        <pt x="282" y="371" on="0"/>
        <pt x="257" y="421" on="1"/>
        <pt x="228" y="478" on="0"/>
        <pt x="199" y="536" on="1"/>
        <pt x="203" y="546" on="0"/>
        <pt x="206" y="551" on="1"/>
        <pt x="216" y="567" on="0"/>
        <pt x="224" y="567" on="1"/>
        <pt x="244" y="567" on="0"/>
        <pt x="303" y="471" on="0"/>
        <pt x="334" y="421" on="1"/>
        <pt x="343" y="419" on="0"/>
        <pt x="397" y="481" on="1"/>
        <pt x="474" y="569" on="0"/>
        <pt x="504" y="598" on="1"/>
        <pt x="569" y="662" on="0"/>
        <pt x="600" y="662" on="1"/>
        <pt x="612" y="662" on="0"/>
        <pt x="620" y="643" on="0"/>
      </contour>
    </TTGlyph>
    <TTGlyph name="Y" xMin="8" yMin="-9" xMax="643" yMax="797">
      <contour>
        <pt x="198" y="297" on="1"/>
        <pt x="198" y="281" on="0"/>
        <pt x="182" y="264" on="1"/>
        <pt x="180" y="261" on="0"/>
        <pt x="173" y="257" on="1"/>
        <pt x="156" y="274" on="0"/>
        <pt x="130" y="327" on="1"/>
        <pt x="117" y="353" on="0"/>
        <pt x="93" y="407" on="1"/>
        <pt x="80" y="435" on="0"/>
        <pt x="72" y="458" on="1"/>
        <pt x="58" y="498" on="0"/>
        <pt x="48" y="542" on="1"/>
        <pt x="36" y="579" on="0"/>
        <pt x="27" y="609" on="1"/>
        <pt x="8" y="670" on="0"/>
        <pt x="8" y="687" on="1"/>
        <pt x="8" y="704" on="0"/>
        <pt x="35" y="727" on="0"/>
        <pt x="48" y="727" on="1"/>
        <pt x="62" y="727" on="0"/>
        <pt x="72" y="690" on="1"/>
        <pt x="111" y="548" on="0"/>
        <pt x="128" y="512" on="1"/>
      </contour>
      <contour>
        <pt x="163" y="167" on="1"/>
        <pt x="168" y="186" on="0"/>
        <pt x="221" y="269" on="1"/>
        <pt x="266" y="340" on="0"/>
        <pt x="318" y="419" on="1"/>
        <pt x="345" y="460" on="0"/>
        <pt x="373" y="502" on="1"/>
        <pt x="392" y="539" on="0"/>
        <pt x="419" y="575" on="1"/>
        <pt x="451" y="616" on="0"/>
        <pt x="483" y="657" on="1"/>
        <pt x="501" y="686" on="0"/>
        <pt x="542" y="733" on="1"/>
        <pt x="598" y="797" on="0"/>
        <pt x="623" y="797" on="1"/>
        <pt x="631" y="797" on="0"/>
        <pt x="643" y="769" on="0"/>
        <pt x="643" y="752" on="1"/>
        <pt x="643" y="726" on="0"/>
        <pt x="610" y="695" on="1"/>
        <pt x="586" y="672" on="0"/>
        <pt x="578" y="662" on="1"/>
        <pt x="514" y="573" on="0"/>
        <pt x="490" y="542" on="1"/>
        <pt x="437" y="473" on="0"/>
        <pt x="428" y="459" on="0"/>
        <pt x="374" y="385" on="1"/>
        <pt x="345" y="345" on="0"/>
        <pt x="308" y="272" on="1"/>
        <pt x="266" y="202" on="0"/>
        <pt x="246" y="166" on="1"/>
        <pt x="183" y="54" on="0"/>
        <pt x="183" y="32" on="1"/>
        <pt x="180" y="21" on="0"/>
        <pt x="180" y="15" on="1"/>
        <pt x="180" y="8" on="0"/>
        <pt x="183" y="-3" on="1"/>
        <pt x="180" y="-4" on="0"/>
        <pt x="178" y="-4" on="1"/>
        <pt x="164" y="-9" on="0"/>
        <pt x="158" y="-8" on="1"/>
        <pt x="142" y="-7" on="0"/>
        <pt x="142" y="41" on="1"/>
        <pt x="142" y="98" on="0"/>
      </contour>
    </TTGlyph>
    <TTGlyph name="Z" xMin="-2" yMin="-4" xMax="878" yMax="627">
      <contour>
        <pt x="429" y="402" on="1"/>
        <pt x="451" y="416" on="0"/>
        <pt x="514" y="474" on="1"/>
        <pt x="535" y="494" on="0"/>
        <pt x="574" y="532" on="1"/>
        <pt x="574" y="544" on="0"/>
        <pt x="495" y="552" on="0"/>
        <pt x="424" y="552" on="1"/>
        <pt x="407" y="553" on="0"/>
        <pt x="395" y="553" on="1"/>
        <pt x="375" y="553" on="0"/>
        <pt x="319" y="546" on="0"/>
        <pt x="274" y="537" on="1"/>
        <pt x="259" y="534" on="0"/>
        <pt x="251" y="534" on="1"/>
        <pt x="239" y="534" on="0"/>
        <pt x="229" y="547" on="1"/>
        <pt x="225" y="552" on="0"/>
        <pt x="225" y="559" on="1"/>
        <pt x="229" y="574" on="0"/>
        <pt x="229" y="587" on="1"/>
        <pt x="229" y="608" on="0"/>
        <pt x="249" y="624" on="0"/>
        <pt x="266" y="624" on="1"/>
        <pt x="271" y="624" on="0"/>
        <pt x="294" y="622" on="0"/>
        <pt x="299" y="622" on="1"/>
        <pt x="359" y="627" on="1"/>
        <pt x="429" y="627" on="1"/>
        <pt x="540" y="627" on="0"/>
        <pt x="679" y="581" on="0"/>
        <pt x="679" y="537" on="1"/>
        <pt x="679" y="512" on="0"/>
        <pt x="604" y="447" on="1"/>
        <pt x="516" y="376" on="0"/>
        <pt x="429" y="306" on="1"/>
        <pt x="427" y="306" on="0"/>
        <pt x="356" y="256" on="1"/>
        <pt x="272" y="197" on="0"/>
        <pt x="223" y="158" on="1"/>
        <pt x="193" y="127" on="0"/>
        <pt x="164" y="96" on="1"/>
        <pt x="169" y="93" on="0"/>
        <pt x="181" y="93" on="1"/>
        <pt x="213" y="93" on="0"/>
        <pt x="478" y="146" on="0"/>
        <pt x="514" y="146" on="1"/>
        <pt x="563" y="153" on="0"/>
        <pt x="594" y="156" on="1"/>
        <pt x="688" y="166" on="0"/>
        <pt x="754" y="166" on="1"/>
        <pt x="796" y="166" on="0"/>
        <pt x="878" y="130" on="0"/>
        <pt x="878" y="117" on="1"/>
        <pt x="878" y="111" on="0"/>
        <pt x="864" y="111" on="1"/>
        <pt x="759" y="111" on="0"/>
        <pt x="555" y="78" on="0"/>
        <pt x="454" y="61" on="1"/>
        <pt x="356" y="35" on="0"/>
        <pt x="177" y="-4" on="0"/>
        <pt x="88" y="-4" on="1"/>
        <pt x="73" y="-4" on="0"/>
        <pt x="66" y="-4" on="1"/>
        <pt x="23" y="-4" on="0"/>
        <pt x="-2" y="17" on="0"/>
        <pt x="-2" y="41" on="1"/>
        <pt x="-2" y="57" on="0"/>
        <pt x="117" y="176" on="0"/>
        <pt x="211" y="250" on="1"/>
        <pt x="319" y="335" on="0"/>
      </contour>
    </TTGlyph>
    <TTGlyph name="a" xMin="6" yMin="-97" xMax="487" yMax="477">
      <contour>
        <pt x="306" y="92" on="1"/>
        <pt x="258" y="62" on="0"/>
        <pt x="232" y="47" on="1"/>
        <pt x="151" y="1" on="0"/>
        <pt x="126" y="1" on="1"/>
        <pt x="91" y="1" on="1"/>
        <pt x="54" y="1" on="0"/>
        <pt x="6" y="57" on="0"/>
        <pt x="6" y="92" on="1"/>
        <pt x="6" y="162" on="0"/>
        <pt x="77" y="241" on="1"/>
        <pt x="94" y="260" on="0"/>
        <pt x="166" y="332" on="1"/>
        <pt x="224" y="390" on="0"/>
        <pt x="294" y="431" on="1"/>
        <pt x="373" y="477" on="0"/>
        <pt x="431" y="477" on="1"/>
        <pt x="468" y="477" on="0"/>
        <pt x="487" y="458" on="0"/>
        <pt x="487" y="427" on="1"/>
        <pt x="487" y="400" on="0"/>
        <pt x="472" y="372" on="0"/>
        <pt x="449" y="367" on="1"/>
        <pt x="444" y="397" on="0"/>
        <pt x="435" y="412" on="0"/>
        <pt x="416" y="412" on="1"/>
        <pt x="399" y="412" on="0"/>
        <pt x="342" y="376" on="1"/>
        <pt x="276" y="331" on="0"/>
        <pt x="211" y="287" on="1"/>
        <pt x="197" y="279" on="0"/>
        <pt x="139" y="204" on="1"/>
        <pt x="71" y="117" on="0"/>
        <pt x="71" y="82" on="1"/>
        <pt x="71" y="77" on="0"/>
        <pt x="109" y="62" on="0"/>
        <pt x="116" y="62" on="1"/>
        <pt x="186" y="97" on="1"/>
        <pt x="210" y="109" on="0"/>
        <pt x="218" y="113" on="1"/>
        <pt x="235" y="122" on="0"/>
        <pt x="251" y="132" on="1"/>
        <pt x="283" y="152" on="0"/>
        <pt x="317" y="188" on="1"/>
        <pt x="378" y="252" on="0"/>
        <pt x="386" y="252" on="1"/>
        <pt x="394" y="252" on="0"/>
        <pt x="408" y="237" on="1"/>
        <pt x="426" y="218" on="0"/>
        <pt x="426" y="197" on="1"/>
        <pt x="426" y="186" on="0"/>
        <pt x="415" y="176" on="0"/>
        <pt x="411" y="172" on="1"/>
        <pt x="418" y="153" on="0"/>
        <pt x="389" y="-9" on="1"/>
        <pt x="374" y="-90" on="0"/>
        <pt x="360" y="-97" on="0"/>
        <pt x="354" y="-97" on="1"/>
        <pt x="323" y="-97" on="0"/>
        <pt x="311" y="-3" on="1"/>
        <pt x="308" y="28" on="0"/>
      </contour>
    </TTGlyph>
    <TTGlyph name="ampersand" xMin="-2" yMin="-54" xMax="889" yMax="797">
      <contour>
        <pt x="653" y="707" on="1"/>
        <pt x="617" y="699" on="0"/>
        <pt x="597" y="691" on="1"/>
        <pt x="534" y="666" on="0"/>
        <pt x="508" y="622" on="1"/>
        <pt x="505" y="611" on="0"/>
        <pt x="496" y="590" on="0"/>
        <pt x="490" y="582" on="1"/>
        <pt x="501" y="580" on="0"/>
        <pt x="581" y="643" on="1"/>
        <pt x="617" y="675" on="0"/>
      </contour>
      <contour>
        <pt x="633" y="157" on="1"/>
        <pt x="574" y="227" on="0"/>
        <pt x="515" y="297" on="1"/>
        <pt x="497" y="321" on="0"/>
        <pt x="433" y="417" on="1"/>
        <pt x="301" y="329" on="0"/>
        <pt x="208" y="226" on="1"/>
        <pt x="141" y="152" on="0"/>
        <pt x="101" y="78" on="1"/>
        <pt x="75" y="31" on="0"/>
        <pt x="73" y="16" on="1"/>
        <pt x="81" y="19" on="0"/>
        <pt x="85" y="19" on="1"/>
        <pt x="96" y="16" on="0"/>
        <pt x="108" y="16" on="1"/>
        <pt x="156" y="16" on="0"/>
        <pt x="298" y="59" on="1"/>
        <pt x="365" y="80" on="0"/>
        <pt x="433" y="102" on="1"/>
        <pt x="450" y="102" on="0"/>
        <pt x="610" y="147" on="0"/>
      </contour>
      <contour>
        <pt x="178" y="-39" on="1"/>
        <pt x="170" y="-45" on="0"/>
        <pt x="131" y="-54" on="0"/>
        <pt x="103" y="-54" on="1"/>
        <pt x="47" y="-54" on="0"/>
        <pt x="-2" y="-11" on="0"/>
        <pt x="-2" y="26" on="1"/>
        <pt x="-2" y="95" on="0"/>
        <pt x="96" y="210" on="1"/>
        <pt x="164" y="290" on="0"/>
        <pt x="279" y="390" on="1"/>
        <pt x="373" y="472" on="0"/>
        <pt x="378" y="472" on="1"/>
        <pt x="393" y="488" on="0"/>
        <pt x="419" y="588" on="1"/>
        <pt x="441" y="671" on="0"/>
        <pt x="513" y="707" on="1"/>
        <pt x="561" y="733" on="0"/>
        <pt x="610" y="760" on="1"/>
        <pt x="680" y="785" on="0"/>
        <pt x="789" y="797" on="1"/>
        <pt x="796" y="797" on="0"/>
        <pt x="800" y="797" on="1"/>
        <pt x="834" y="797" on="0"/>
        <pt x="854" y="790" on="1"/>
        <pt x="889" y="778" on="0"/>
        <pt x="889" y="747" on="1"/>
        <pt x="889" y="738" on="0"/>
        <pt x="858" y="723" on="1"/>
        <pt x="731" y="661" on="0"/>
        <pt x="684" y="632" on="1"/>
        <pt x="644" y="607" on="0"/>
        <pt x="625" y="592" on="1"/>
        <pt x="614" y="583" on="0"/>
        <pt x="578" y="547" on="1"/>
        <pt x="554" y="531" on="0"/>
        <pt x="532" y="515" on="1"/>
        <pt x="488" y="483" on="0"/>
        <pt x="488" y="472" on="1"/>
        <pt x="488" y="440" on="0"/>
        <pt x="539" y="377" on="1"/>
        <pt x="571" y="339" on="0"/>
        <pt x="603" y="302" on="1"/>
        <pt x="654" y="228" on="0"/>
        <pt x="758" y="188" on="1"/>
        <pt x="771" y="177" on="0"/>
        <pt x="784" y="167" on="1"/>
        <pt x="757" y="146" on="0"/>
        <pt x="718" y="127" on="1"/>
        <pt x="659" y="99" on="0"/>
        <pt x="543" y="62" on="1"/>
        <pt x="388" y="13" on="0"/>
      </contour>
    </TTGlyph>
    <TTGlyph name="asterisk" xMin="3" yMin="301" xMax="657" yMax="801">
      <contour>
        <pt x="384" y="541" on="1"/>
        <pt x="394" y="528" on="0"/>
        <pt x="402" y="519" on="1"/>
        <pt x="452" y="461" on="0"/>
        <pt x="524" y="406" on="1"/>
        <pt x="523" y="404" on="0"/>
        <pt x="510" y="371" on="0"/>
        <pt x="499" y="371" on="1"/>
        <pt x="478" y="371" on="0"/>
        <pt x="436" y="401" on="1"/>
        <pt x="387" y="436" on="0"/>
        <pt x="339" y="471" on="1"/>
        <pt x="339" y="459" on="0"/>
        <pt x="339" y="451" on="1"/>
        <pt x="339" y="399" on="0"/>
        <pt x="332" y="368" on="1"/>
        <pt x="321" y="321" on="0"/>
        <pt x="294" y="321" on="1"/>
        <pt x="287" y="321" on="0"/>
        <pt x="261" y="341" on="0"/>
        <pt x="249" y="341" on="1"/>
        <pt x="236" y="341" on="0"/>
        <pt x="221" y="329" on="1"/>
        <pt x="185" y="301" on="0"/>
        <pt x="184" y="301" on="1"/>
        <pt x="172" y="301" on="0"/>
        <pt x="154" y="325" on="0"/>
        <pt x="154" y="341" on="1"/>
        <pt x="154" y="363" on="0"/>
        <pt x="179" y="376" on="0"/>
        <pt x="179" y="381" on="1"/>
        <pt x="204" y="413" on="0"/>
        <pt x="246" y="466" on="0"/>
        <pt x="249" y="496" on="1"/>
        <pt x="179" y="484" on="0"/>
        <pt x="88" y="443" on="1"/>
        <pt x="50" y="426" on="0"/>
        <pt x="33" y="426" on="1"/>
        <pt x="22" y="426" on="0"/>
        <pt x="3" y="445" on="0"/>
        <pt x="3" y="461" on="1"/>
        <pt x="3" y="497" on="0"/>
        <pt x="244" y="567" on="0"/>
        <pt x="244" y="586" on="1"/>
        <pt x="244" y="596" on="0"/>
        <pt x="204" y="666" on="0"/>
        <pt x="204" y="686" on="1"/>
        <pt x="208" y="693" on="0"/>
        <pt x="211" y="696" on="1"/>
        <pt x="220" y="706" on="0"/>
        <pt x="229" y="706" on="1"/>
        <pt x="234" y="704" on="0"/>
        <pt x="238" y="702" on="1"/>
        <pt x="261" y="689" on="0"/>
        <pt x="294" y="656" on="1"/>
        <pt x="295" y="657" on="0"/>
        <pt x="314" y="728" on="1"/>
        <pt x="327" y="774" on="0"/>
        <pt x="374" y="782" on="1"/>
        <pt x="374" y="778" on="0"/>
        <pt x="373" y="756" on="0"/>
        <pt x="373" y="738" on="1"/>
        <pt x="373" y="717" on="0"/>
        <pt x="375" y="685" on="0"/>
        <pt x="379" y="676" on="1"/>
        <pt x="393" y="720" on="0"/>
        <pt x="401" y="743" on="1"/>
        <pt x="417" y="786" on="0"/>
        <pt x="439" y="797" on="1"/>
        <pt x="446" y="801" on="0"/>
        <pt x="452" y="801" on="1"/>
        <pt x="463" y="801" on="0"/>
        <pt x="469" y="769" on="0"/>
        <pt x="469" y="726" on="1"/>
        <pt x="469" y="706" on="0"/>
        <pt x="454" y="662" on="0"/>
        <pt x="439" y="646" on="1"/>
        <pt x="439" y="631" on="1"/>
        <pt x="524" y="631" on="1"/>
        <pt x="564" y="645" on="0"/>
        <pt x="584" y="650" on="1"/>
        <pt x="646" y="668" on="0"/>
        <pt x="650" y="661" on="1"/>
        <pt x="657" y="650" on="0"/>
        <pt x="657" y="640" on="1"/>
        <pt x="657" y="604" on="0"/>
        <pt x="493" y="574" on="1"/>
        <pt x="405" y="558" on="0"/>
      </contour>
    </TTGlyph>
    <TTGlyph name="at" xMin="3" yMin="-139" xMax="809" yMax="727">
      <contour>
        <pt x="809" y="542" on="1"/>
        <pt x="809" y="388" on="0"/>
        <pt x="756" y="305" on="1"/>
        <pt x="733" y="268" on="0"/>
        <pt x="649" y="201" on="1"/>
        <pt x="622" y="180" on="0"/>
        <pt x="598" y="148" on="0"/>
        <pt x="594" y="146" on="1"/>
        <pt x="590" y="144" on="0"/>
        <pt x="566" y="137" on="1"/>
        <pt x="559" y="135" on="0"/>
        <pt x="544" y="131" on="1"/>
        <pt x="495" y="101" on="0"/>
        <pt x="446" y="71" on="1"/>
        <pt x="400" y="46" on="0"/>
        <pt x="384" y="46" on="1"/>
        <pt x="328" y="46" on="0"/>
        <pt x="264" y="91" on="0"/>
        <pt x="264" y="136" on="1"/>
        <pt x="264" y="166" on="0"/>
        <pt x="277" y="209" on="0"/>
        <pt x="284" y="231" on="1"/>
        <pt x="297" y="245" on="0"/>
        <pt x="319" y="269" on="0"/>
        <pt x="319" y="281" on="1"/>
        <pt x="364" y="331" on="0"/>
        <pt x="394" y="356" on="1"/>
        <pt x="484" y="431" on="0"/>
        <pt x="556" y="431" on="1"/>
        <pt x="581" y="431" on="0"/>
        <pt x="604" y="421" on="1"/>
        <pt x="653" y="399" on="0"/>
        <pt x="662" y="345" on="1"/>
        <pt x="665" y="323" on="0"/>
        <pt x="669" y="301" on="1"/>
        <pt x="721" y="329" on="0"/>
        <pt x="740" y="408" on="1"/>
        <pt x="746" y="434" on="0"/>
        <pt x="749" y="482" on="1"/>
        <pt x="754" y="497" on="0"/>
        <pt x="754" y="518" on="1"/>
        <pt x="754" y="570" on="0"/>
        <pt x="729" y="612" on="1"/>
        <pt x="699" y="662" on="0"/>
        <pt x="649" y="662" on="1"/>
        <pt x="585" y="662" on="0"/>
        <pt x="505" y="607" on="1"/>
        <pt x="446" y="566" on="0"/>
        <pt x="377" y="494" on="1"/>
        <pt x="335" y="447" on="0"/>
        <pt x="252" y="356" on="0"/>
        <pt x="226" y="323" on="1"/>
        <pt x="162" y="244" on="0"/>
        <pt x="122" y="171" on="1"/>
        <pt x="68" y="72" on="0"/>
        <pt x="68" y="1" on="1"/>
        <pt x="68" y="-45" on="0"/>
        <pt x="106" y="-69" on="1"/>
        <pt x="138" y="-89" on="0"/>
        <pt x="183" y="-89" on="1"/>
        <pt x="209" y="-89" on="0"/>
        <pt x="248" y="-82" on="0"/>
        <pt x="309" y="-64" on="1"/>
        <pt x="332" y="-57" on="0"/>
        <pt x="402" y="-24" on="1"/>
        <pt x="457" y="2" on="0"/>
        <pt x="523" y="35" on="1"/>
        <pt x="553" y="50" on="0"/>
        <pt x="584" y="66" on="1"/>
        <pt x="558" y="39" on="0"/>
        <pt x="533" y="13" on="1"/>
        <pt x="464" y="-49" on="0"/>
        <pt x="382" y="-86" on="1"/>
        <pt x="265" y="-139" on="0"/>
        <pt x="133" y="-139" on="1"/>
        <pt x="57" y="-139" on="0"/>
        <pt x="26" y="-86" on="1"/>
        <pt x="3" y="-46" on="0"/>
        <pt x="3" y="31" on="1"/>
        <pt x="3" y="91" on="0"/>
        <pt x="59" y="192" on="1"/>
        <pt x="100" y="266" on="0"/>
        <pt x="169" y="361" on="1"/>
        <pt x="206" y="411" on="0"/>
        <pt x="244" y="462" on="1"/>
        <pt x="275" y="496" on="0"/>
        <pt x="307" y="530" on="1"/>
        <pt x="387" y="609" on="0"/>
        <pt x="462" y="658" on="1"/>
        <pt x="569" y="727" on="0"/>
        <pt x="654" y="727" on="1"/>
        <pt x="712" y="727" on="0"/>
        <pt x="757" y="682" on="1"/>
        <pt x="809" y="629" on="0"/>
      </contour>
      <contour>
        <pt x="604" y="331" on="1"/>
        <pt x="604" y="332" on="0"/>
        <pt x="616" y="346" on="0"/>
        <pt x="616" y="352" on="1"/>
        <pt x="616" y="362" on="0"/>
        <pt x="589" y="369" on="0"/>
        <pt x="566" y="369" on="1"/>
        <pt x="546" y="369" on="0"/>
        <pt x="514" y="366" on="1"/>
        <pt x="454" y="319" on="0"/>
        <pt x="424" y="291" on="1"/>
        <pt x="334" y="205" on="0"/>
        <pt x="334" y="150" on="1"/>
        <pt x="334" y="136" on="0"/>
        <pt x="343" y="119" on="0"/>
        <pt x="355" y="119" on="1"/>
        <pt x="363" y="119" on="0"/>
        <pt x="378" y="124" on="1"/>
        <pt x="380" y="124" on="0"/>
        <pt x="384" y="126" on="1"/>
        <pt x="398" y="142" on="0"/>
        <pt x="436" y="152" on="0"/>
        <pt x="454" y="156" on="1"/>
        <pt x="504" y="216" on="1"/>
        <pt x="517" y="221" on="0"/>
        <pt x="532" y="234" on="1"/>
        <pt x="534" y="236" on="0"/>
        <pt x="539" y="241" on="1"/>
        <pt x="567" y="248" on="0"/>
        <pt x="587" y="280" on="1"/>
        <pt x="604" y="307" on="0"/>
      </contour>
    </TTGlyph>
    <TTGlyph name="b" xMin="-2" yMin="-39" xMax="562" yMax="797">
      <contour>
        <pt x="549" y="257" on="1"/>
        <pt x="537" y="237" on="0"/>
        <pt x="528" y="224" on="1"/>
        <pt x="473" y="146" on="0"/>
        <pt x="388" y="61" on="1"/>
        <pt x="338" y="11" on="0"/>
        <pt x="269" y="-17" on="1"/>
        <pt x="214" y="-39" on="0"/>
        <pt x="173" y="-39" on="1"/>
        <pt x="123" y="-39" on="0"/>
        <pt x="66" y="-9" on="1"/>
        <pt x="-2" y="27" on="0"/>
        <pt x="-2" y="76" on="1"/>
        <pt x="-2" y="101" on="0"/>
        <pt x="64" y="233" on="1"/>
        <pt x="161" y="426" on="0"/>
        <pt x="186" y="481" on="1"/>
        <pt x="253" y="627" on="0"/>
        <pt x="253" y="682" on="1"/>
        <pt x="253" y="689" on="0"/>
        <pt x="249" y="694" on="1"/>
        <pt x="238" y="708" on="0"/>
        <pt x="238" y="727" on="1"/>
        <pt x="238" y="777" on="0"/>
        <pt x="275" y="788" on="1"/>
        <pt x="294" y="792" on="0"/>
        <pt x="313" y="797" on="1"/>
        <pt x="320" y="786" on="0"/>
        <pt x="333" y="758" on="0"/>
        <pt x="333" y="752" on="1"/>
        <pt x="333" y="738" on="0"/>
        <pt x="313" y="690" on="0"/>
        <pt x="313" y="674" on="1"/>
        <pt x="313" y="664" on="0"/>
        <pt x="318" y="647" on="1"/>
        <pt x="218" y="387" on="1"/>
        <pt x="291" y="425" on="0"/>
        <pt x="346" y="452" on="1"/>
        <pt x="406" y="482" on="0"/>
        <pt x="453" y="482" on="1"/>
        <pt x="475" y="482" on="0"/>
        <pt x="546" y="445" on="0"/>
        <pt x="553" y="391" on="0"/>
        <pt x="562" y="340" on="0"/>
        <pt x="562" y="327" on="1"/>
        <pt x="562" y="308" on="0"/>
      </contour>
      <contour>
        <pt x="488" y="362" on="1"/>
        <pt x="488" y="386" on="0"/>
        <pt x="464" y="422" on="0"/>
        <pt x="448" y="422" on="1"/>
        <pt x="441" y="422" on="0"/>
        <pt x="359" y="382" on="1"/>
        <pt x="332" y="369" on="0"/>
        <pt x="278" y="342" on="1"/>
        <pt x="267" y="329" on="0"/>
        <pt x="256" y="324" on="1"/>
        <pt x="228" y="311" on="0"/>
        <pt x="213" y="297" on="1"/>
        <pt x="208" y="292" on="0"/>
        <pt x="160" y="220" on="0"/>
        <pt x="153" y="211" on="1"/>
        <pt x="138" y="196" on="1"/>
        <pt x="132" y="180" on="0"/>
        <pt x="128" y="172" on="1"/>
        <pt x="119" y="153" on="0"/>
        <pt x="98" y="111" on="0"/>
        <pt x="84" y="73" on="1"/>
        <pt x="82" y="67" on="0"/>
        <pt x="78" y="56" on="1"/>
        <pt x="78" y="45" on="0"/>
        <pt x="130" y="26" on="0"/>
        <pt x="143" y="26" on="1"/>
        <pt x="250" y="26" on="0"/>
        <pt x="488" y="262" on="0"/>
      </contour>
    </TTGlyph>
    <TTGlyph name="c" xMin="3" yMin="-9" xMax="523" yMax="592">
      <contour>
        <pt x="523" y="382" on="1"/>
        <pt x="517" y="364" on="0"/>
        <pt x="513" y="355" on="1"/>
        <pt x="500" y="327" on="0"/>
        <pt x="488" y="327" on="1"/>
        <pt x="462" y="327" on="0"/>
        <pt x="443" y="404" on="0"/>
        <pt x="443" y="462" on="1"/>
        <pt x="443" y="477" on="0"/>
        <pt x="436" y="504" on="0"/>
        <pt x="428" y="512" on="1"/>
        <pt x="417" y="512" on="0"/>
        <pt x="363" y="482" on="1"/>
        <pt x="288" y="440" on="0"/>
        <pt x="222" y="374" on="1"/>
        <pt x="132" y="284" on="0"/>
        <pt x="83" y="166" on="1"/>
        <pt x="80" y="152" on="0"/>
        <pt x="78" y="123" on="0"/>
        <pt x="78" y="111" on="1"/>
        <pt x="78" y="99" on="0"/>
        <pt x="108" y="83" on="1"/>
        <pt x="130" y="71" on="0"/>
        <pt x="153" y="71" on="1"/>
        <pt x="190" y="71" on="0"/>
        <pt x="352" y="116" on="0"/>
        <pt x="363" y="116" on="1"/>
        <pt x="366" y="116" on="0"/>
        <pt x="363" y="99" on="0"/>
        <pt x="363" y="96" on="1"/>
        <pt x="351" y="75" on="0"/>
        <pt x="339" y="63" on="1"/>
        <pt x="266" y="-9" on="0"/>
        <pt x="103" y="-9" on="1"/>
        <pt x="73" y="2" on="0"/>
        <pt x="58" y="11" on="1"/>
        <pt x="13" y="41" on="0"/>
        <pt x="13" y="86" on="1"/>
        <pt x="9" y="88" on="0"/>
        <pt x="8" y="90" on="1"/>
        <pt x="3" y="98" on="0"/>
        <pt x="3" y="116" on="1"/>
        <pt x="3" y="179" on="0"/>
        <pt x="97" y="361" on="0"/>
        <pt x="153" y="412" on="1"/>
        <pt x="215" y="468" on="0"/>
        <pt x="299" y="523" on="1"/>
        <pt x="404" y="592" on="0"/>
        <pt x="448" y="592" on="1"/>
        <pt x="488" y="592" on="0"/>
        <pt x="501" y="553" on="1"/>
        <pt x="508" y="531" on="0"/>
        <pt x="508" y="477" on="1"/>
        <pt x="508" y="412" on="1"/>
        <pt x="508" y="403" on="0"/>
        <pt x="523" y="386" on="0"/>
      </contour>
    </TTGlyph>
    <TTGlyph name="colon" xMin="8" yMin="-9" xMax="164" yMax="442">
      <contour>
        <pt x="164" y="402" on="1"/>
        <pt x="164" y="391" on="0"/>
        <pt x="143" y="360" on="0"/>
        <pt x="134" y="346" on="1"/>
        <pt x="110" y="357" on="0"/>
        <pt x="101" y="365" on="1"/>
        <pt x="89" y="376" on="0"/>
        <pt x="89" y="397" on="1"/>
        <pt x="89" y="422" on="0"/>
        <pt x="106" y="442" on="0"/>
        <pt x="119" y="442" on="1"/>
        <pt x="138" y="442" on="0"/>
        <pt x="164" y="420" on="0"/>
      </contour>
      <contour>
        <pt x="89" y="31" on="1"/>
        <pt x="89" y="18" on="0"/>
        <pt x="64" y="-9" on="0"/>
        <pt x="53" y="-9" on="1"/>
        <pt x="35" y="-9" on="0"/>
        <pt x="8" y="22" on="0"/>
        <pt x="8" y="41" on="1"/>
        <pt x="8" y="52" on="0"/>
        <pt x="42" y="81" on="0"/>
        <pt x="48" y="81" on="1"/>
        <pt x="69" y="81" on="0"/>
        <pt x="89" y="52" on="0"/>
      </contour>
    </TTGlyph>
    <TTGlyph name="comma" xMin="3" yMin="-185" xMax="336" yMax="227">
      <contour>
        <pt x="334" y="136" on="1"/>
        <pt x="336" y="114" on="0"/>
        <pt x="324" y="76" on="1"/>
        <pt x="302" y="8" on="0"/>
        <pt x="239" y="-79" on="1"/>
        <pt x="217" y="-109" on="0"/>
        <pt x="148" y="-141" on="1"/>
        <pt x="72" y="-177" on="0"/>
        <pt x="3" y="-185" on="1"/>
        <pt x="93" y="-113" on="0"/>
        <pt x="144" y="-71" on="1"/>
        <pt x="239" y="8" on="0"/>
        <pt x="239" y="56" on="1"/>
        <pt x="239" y="63" on="0"/>
        <pt x="246" y="77" on="1"/>
        <pt x="262" y="108" on="0"/>
        <pt x="262" y="125" on="1"/>
        <pt x="262" y="134" on="0"/>
        <pt x="259" y="146" on="1"/>
        <pt x="252" y="167" on="0"/>
        <pt x="252" y="186" on="1"/>
        <pt x="252" y="227" on="0"/>
        <pt x="282" y="227" on="1"/>
        <pt x="301" y="227" on="0"/>
        <pt x="334" y="178" on="0"/>
      </contour>
    </TTGlyph>
    <TTGlyph name="d" xMin="5" yMin="-9" xMax="741" yMax="770">
      <contour>
        <pt x="503" y="367" on="1"/>
        <pt x="525" y="383" on="0"/>
        <pt x="575" y="455" on="1"/>
        <pt x="639" y="547" on="0"/>
        <pt x="639" y="602" on="1"/>
        <pt x="649" y="620" on="0"/>
        <pt x="654" y="629" on="1"/>
        <pt x="669" y="658" on="0"/>
        <pt x="669" y="667" on="1"/>
        <pt x="666" y="677" on="0"/>
        <pt x="665" y="683" on="1"/>
        <pt x="661" y="702" on="0"/>
        <pt x="661" y="718" on="1"/>
        <pt x="661" y="735" on="0"/>
        <pt x="668" y="757" on="0"/>
        <pt x="679" y="762" on="1"/>
        <pt x="695" y="770" on="0"/>
        <pt x="706" y="770" on="1"/>
        <pt x="716" y="770" on="0"/>
        <pt x="741" y="755" on="0"/>
        <pt x="741" y="735" on="1"/>
        <pt x="741" y="722" on="0"/>
        <pt x="732" y="692" on="0"/>
        <pt x="729" y="682" on="1"/>
        <pt x="729" y="655" on="0"/>
        <pt x="718" y="615" on="1"/>
        <pt x="699" y="544" on="0"/>
        <pt x="656" y="468" on="1"/>
        <pt x="598" y="364" on="0"/>
        <pt x="498" y="252" on="1"/>
        <pt x="436" y="182" on="0"/>
        <pt x="364" y="135" on="1"/>
        <pt x="299" y="98" on="0"/>
        <pt x="288" y="91" on="1"/>
        <pt x="281" y="87" on="0"/>
        <pt x="215" y="45" on="1"/>
        <pt x="130" y="-9" on="0"/>
        <pt x="98" y="-9" on="1"/>
        <pt x="55" y="-9" on="0"/>
        <pt x="5" y="43" on="0"/>
        <pt x="5" y="80" on="1"/>
        <pt x="5" y="90" on="0"/>
        <pt x="8" y="101" on="1"/>
        <pt x="34" y="203" on="0"/>
        <pt x="105" y="291" on="1"/>
        <pt x="162" y="361" on="0"/>
        <pt x="240" y="414" on="1"/>
        <pt x="299" y="454" on="0"/>
        <pt x="354" y="475" on="1"/>
        <pt x="371" y="482" on="0"/>
        <pt x="388" y="482" on="1"/>
        <pt x="437" y="482" on="0"/>
        <pt x="473" y="427" on="1"/>
        <pt x="488" y="397" on="0"/>
      </contour>
      <contour>
        <pt x="128" y="206" on="1"/>
        <pt x="104" y="182" on="0"/>
        <pt x="83" y="127" on="0"/>
        <pt x="83" y="96" on="1"/>
        <pt x="83" y="88" on="0"/>
        <pt x="83" y="80" on="1"/>
        <pt x="86" y="71" on="0"/>
        <pt x="103" y="71" on="1"/>
        <pt x="132" y="71" on="0"/>
        <pt x="182" y="103" on="1"/>
        <pt x="237" y="142" on="0"/>
        <pt x="293" y="181" on="1"/>
        <pt x="321" y="191" on="0"/>
        <pt x="453" y="307" on="0"/>
        <pt x="453" y="322" on="1"/>
        <pt x="453" y="337" on="0"/>
        <pt x="442" y="359" on="1"/>
        <pt x="428" y="387" on="0"/>
        <pt x="393" y="396" on="0"/>
        <pt x="376" y="396" on="1"/>
        <pt x="303" y="396" on="0"/>
        <pt x="221" y="314" on="1"/>
        <pt x="174" y="260" on="0"/>
      </contour>
    </TTGlyph>
    <TTGlyph name="dollar" xMin="33" yMin="-189" xMax="684" yMax="797">
      <contour>
        <pt x="684" y="522" on="1"/>
        <pt x="684" y="495" on="0"/>
        <pt x="537" y="442" on="0"/>
        <pt x="529" y="381" on="1"/>
        <pt x="454" y="176" on="1"/>
        <pt x="465" y="158" on="0"/>
        <pt x="470" y="148" on="1"/>
        <pt x="486" y="116" on="0"/>
        <pt x="484" y="101" on="1"/>
        <pt x="478" y="59" on="0"/>
        <pt x="448" y="44" on="1"/>
        <pt x="399" y="28" on="0"/>
        <pt x="362" y="13" on="1"/>
        <pt x="355" y="10" on="0"/>
        <pt x="355" y="-8" on="1"/>
        <pt x="355" y="-19" on="0"/>
        <pt x="354" y="-37" on="0"/>
        <pt x="349" y="-44" on="1"/>
        <pt x="332" y="-67" on="0"/>
        <pt x="316" y="-115" on="1"/>
        <pt x="291" y="-189" on="0"/>
        <pt x="249" y="-189" on="1"/>
        <pt x="237" y="-189" on="0"/>
        <pt x="219" y="-165" on="0"/>
        <pt x="219" y="-149" on="1"/>
        <pt x="224" y="-132" on="0"/>
        <pt x="230" y="-118" on="1"/>
        <pt x="247" y="-80" on="0"/>
        <pt x="284" y="-19" on="1"/>
        <pt x="284" y="-4" on="1"/>
        <pt x="198" y="-4" on="1"/>
        <pt x="165" y="-4" on="0"/>
        <pt x="140" y="-58" on="1"/>
        <pt x="83" y="-182" on="0"/>
        <pt x="38" y="-189" on="1"/>
        <pt x="38" y="-149" on="1"/>
        <pt x="42" y="-146" on="0"/>
        <pt x="44" y="-144" on="1"/>
        <pt x="48" y="-139" on="0"/>
        <pt x="48" y="-124" on="1"/>
        <pt x="48" y="-106" on="0"/>
        <pt x="118" y="14" on="0"/>
        <pt x="118" y="21" on="1"/>
        <pt x="118" y="31" on="0"/>
        <pt x="41" y="80" on="0"/>
        <pt x="38" y="96" on="1"/>
        <pt x="36" y="101" on="0"/>
        <pt x="36" y="103" on="1"/>
        <pt x="33" y="113" on="0"/>
        <pt x="33" y="116" on="1"/>
        <pt x="33" y="125" on="0"/>
        <pt x="38" y="126" on="1"/>
        <pt x="48" y="130" on="0"/>
        <pt x="77" y="134" on="0"/>
        <pt x="91" y="134" on="1"/>
        <pt x="113" y="134" on="0"/>
        <pt x="151" y="128" on="0"/>
        <pt x="163" y="126" on="1"/>
        <pt x="171" y="126" on="0"/>
        <pt x="208" y="205" on="1"/>
        <pt x="216" y="223" on="0"/>
        <pt x="246" y="286" on="1"/>
        <pt x="201" y="304" on="0"/>
        <pt x="127" y="363" on="1"/>
        <pt x="33" y="438" on="0"/>
        <pt x="33" y="486" on="1"/>
        <pt x="33" y="520" on="0"/>
        <pt x="114" y="555" on="1"/>
        <pt x="212" y="597" on="0"/>
        <pt x="354" y="597" on="1"/>
        <pt x="397" y="597" on="0"/>
        <pt x="435" y="684" on="1"/>
        <pt x="461" y="744" on="0"/>
        <pt x="479" y="767" on="1"/>
        <pt x="514" y="767" on="1"/>
        <pt x="514" y="732" on="1"/>
        <pt x="514" y="717" on="1"/>
        <pt x="514" y="705" on="0"/>
        <pt x="488" y="667" on="0"/>
        <pt x="474" y="647" on="1"/>
        <pt x="474" y="640" on="0"/>
        <pt x="469" y="621" on="0"/>
        <pt x="464" y="607" on="1"/>
        <pt x="484" y="607" on="1"/>
        <pt x="543" y="607" on="0"/>
        <pt x="554" y="676" on="1"/>
        <pt x="569" y="767" on="0"/>
        <pt x="609" y="797" on="1"/>
        <pt x="639" y="797" on="1"/>
        <pt x="639" y="752" on="1"/>
        <pt x="639" y="727" on="0"/>
        <pt x="599" y="629" on="0"/>
        <pt x="599" y="612" on="1"/>
        <pt x="599" y="609" on="0"/>
        <pt x="684" y="567" on="0"/>
      </contour>
      <contour>
        <pt x="614" y="532" on="1"/>
        <pt x="606" y="529" on="0"/>
        <pt x="601" y="529" on="1"/>
        <pt x="593" y="531" on="0"/>
        <pt x="589" y="532" on="1"/>
        <pt x="588" y="530" on="0"/>
        <pt x="579" y="509" on="0"/>
        <pt x="569" y="501" on="1"/>
        <pt x="569" y="481" on="1"/>
        <pt x="598" y="499" on="0"/>
        <pt x="600" y="500" on="1"/>
        <pt x="609" y="507" on="0"/>
      </contour>
      <contour>
        <pt x="344" y="511" on="1"/>
        <pt x="344" y="522" on="1"/>
        <pt x="324" y="522" on="1"/>
        <pt x="267" y="521" on="0"/>
        <pt x="236" y="518" on="1"/>
        <pt x="142" y="507" on="0"/>
        <pt x="113" y="476" on="1"/>
        <pt x="111" y="474" on="0"/>
        <pt x="112" y="467" on="1"/>
        <pt x="112" y="465" on="0"/>
        <pt x="113" y="461" on="1"/>
        <pt x="132" y="458" on="0"/>
        <pt x="149" y="439" on="1"/>
        <pt x="187" y="397" on="0"/>
        <pt x="188" y="396" on="1"/>
        <pt x="200" y="392" on="0"/>
        <pt x="214" y="386" on="1"/>
        <pt x="241" y="374" on="0"/>
        <pt x="266" y="351" on="1"/>
        <pt x="288" y="373" on="0"/>
        <pt x="317" y="457" on="1"/>
        <pt x="330" y="496" on="0"/>
      </contour>
      <contour>
        <pt x="499" y="522" on="1"/>
        <pt x="499" y="537" on="1"/>
        <pt x="496" y="536" on="0"/>
        <pt x="493" y="536" on="1"/>
        <pt x="489" y="536" on="0"/>
        <pt x="488" y="536" on="1"/>
        <pt x="478" y="537" on="0"/>
        <pt x="474" y="537" on="1"/>
        <pt x="445" y="537" on="0"/>
        <pt x="422" y="491" on="1"/>
        <pt x="408" y="461" on="0"/>
        <pt x="394" y="431" on="1"/>
        <pt x="388" y="423" on="0"/>
        <pt x="360" y="366" on="1"/>
        <pt x="351" y="348" on="0"/>
        <pt x="334" y="311" on="1"/>
        <pt x="334" y="302" on="0"/>
        <pt x="367" y="281" on="1"/>
        <pt x="378" y="274" on="0"/>
        <pt x="401" y="261" on="1"/>
        <pt x="412" y="299" on="0"/>
        <pt x="456" y="413" on="1"/>
        <pt x="470" y="451" on="0"/>
      </contour>
      <contour>
        <pt x="369" y="181" on="1"/>
        <pt x="349" y="191" on="0"/>
        <pt x="339" y="201" on="1"/>
        <pt x="325" y="217" on="0"/>
        <pt x="311" y="231" on="1"/>
        <pt x="294" y="212" on="0"/>
        <pt x="274" y="174" on="1"/>
        <pt x="249" y="125" on="0"/>
        <pt x="224" y="76" on="1"/>
        <pt x="250" y="76" on="0"/>
        <pt x="282" y="71" on="0"/>
        <pt x="294" y="71" on="1"/>
        <pt x="316" y="71" on="0"/>
        <pt x="323" y="84" on="1"/>
        <pt x="341" y="126" on="0"/>
      </contour>
    </TTGlyph>
    <TTGlyph name="e" xMin="-2" yMin="-3" xMax="459" yMax="477">
      <contour>
        <pt x="458" y="387" on="1"/>
        <pt x="459" y="381" on="0"/>
        <pt x="459" y="378" on="1"/>
        <pt x="459" y="361" on="0"/>
        <pt x="453" y="347" on="1"/>
        <pt x="441" y="327" on="0"/>
        <pt x="433" y="312" on="1"/>
        <pt x="419" y="287" on="0"/>
        <pt x="218" y="202" on="0"/>
        <pt x="183" y="202" on="1"/>
        <pt x="167" y="202" on="0"/>
        <pt x="124" y="218" on="1"/>
        <pt x="117" y="220" on="0"/>
        <pt x="103" y="227" on="1"/>
        <pt x="95" y="213" on="0"/>
        <pt x="83" y="189" on="0"/>
        <pt x="83" y="167" on="1"/>
        <pt x="83" y="116" on="0"/>
        <pt x="158" y="67" on="0"/>
        <pt x="243" y="67" on="1"/>
        <pt x="279" y="67" on="0"/>
        <pt x="319" y="82" on="1"/>
        <pt x="338" y="89" on="0"/>
        <pt x="358" y="97" on="1"/>
        <pt x="363" y="97" on="0"/>
        <pt x="374" y="85" on="0"/>
        <pt x="378" y="80" on="1"/>
        <pt x="335" y="37" on="0"/>
        <pt x="283" y="15" on="1"/>
        <pt x="240" y="-3" on="0"/>
        <pt x="198" y="-3" on="1"/>
        <pt x="116" y="-3" on="0"/>
        <pt x="53" y="57" on="1"/>
        <pt x="-2" y="110" on="0"/>
        <pt x="-2" y="162" on="1"/>
        <pt x="-2" y="205" on="0"/>
        <pt x="26" y="257" on="1"/>
        <pt x="59" y="319" on="0"/>
        <pt x="118" y="367" on="1"/>
        <pt x="159" y="404" on="0"/>
        <pt x="185" y="422" on="1"/>
        <pt x="265" y="477" on="0"/>
        <pt x="333" y="477" on="1"/>
        <pt x="411" y="477" on="0"/>
        <pt x="436" y="456" on="1"/>
        <pt x="458" y="438" on="0"/>
      </contour>
      <contour>
        <pt x="383" y="382" on="1"/>
        <pt x="383" y="392" on="0"/>
        <pt x="370" y="407" on="0"/>
        <pt x="363" y="407" on="1"/>
        <pt x="299" y="407" on="0"/>
        <pt x="230" y="363" on="1"/>
        <pt x="174" y="327" on="0"/>
        <pt x="153" y="295" on="1"/>
        <pt x="167" y="280" on="0"/>
        <pt x="183" y="280" on="1"/>
        <pt x="193" y="280" on="0"/>
        <pt x="211" y="288" on="0"/>
        <pt x="218" y="292" on="1"/>
        <pt x="277" y="303" on="0"/>
        <pt x="383" y="364" on="0"/>
      </contour>
    </TTGlyph>
    <TTGlyph name="eight" xMin="8" yMin="-165" xMax="890" yMax="787">
      <contour>
        <pt x="890" y="707" on="1"/>
        <pt x="890" y="674" on="0"/>
        <pt x="838" y="629" on="1"/>
        <pt x="821" y="614" on="0"/>
        <pt x="785" y="591" on="1"/>
        <pt x="783" y="617" on="0"/>
        <pt x="797" y="643" on="1"/>
        <pt x="813" y="665" on="0"/>
        <pt x="830" y="687" on="1"/>
        <pt x="830" y="698" on="0"/>
        <pt x="757" y="717" on="0"/>
        <pt x="695" y="717" on="1"/>
        <pt x="628" y="703" on="0"/>
        <pt x="589" y="694" on="1"/>
        <pt x="477" y="667" on="0"/>
        <pt x="404" y="641" on="1"/>
        <pt x="263" y="590" on="0"/>
        <pt x="234" y="569" on="1"/>
        <pt x="179" y="530" on="0"/>
        <pt x="179" y="481" on="1"/>
        <pt x="179" y="463" on="0"/>
        <pt x="263" y="364" on="0"/>
        <pt x="294" y="356" on="1"/>
        <pt x="337" y="383" on="0"/>
        <pt x="380" y="411" on="1"/>
        <pt x="474" y="469" on="0"/>
        <pt x="555" y="513" on="1"/>
        <pt x="659" y="569" on="0"/>
        <pt x="691" y="569" on="1"/>
        <pt x="703" y="569" on="0"/>
        <pt x="706" y="553" on="0"/>
        <pt x="712" y="551" on="1"/>
        <pt x="714" y="550" on="0"/>
        <pt x="716" y="549" on="1"/>
        <pt x="712" y="543" on="0"/>
        <pt x="710" y="541" on="1"/>
        <pt x="702" y="532" on="0"/>
        <pt x="547" y="435" on="0"/>
        <pt x="529" y="416" on="1"/>
        <pt x="471" y="381" on="0"/>
        <pt x="442" y="362" on="1"/>
        <pt x="354" y="304" on="0"/>
        <pt x="354" y="291" on="1"/>
        <pt x="384" y="245" on="0"/>
        <pt x="399" y="217" on="1"/>
        <pt x="444" y="133" on="0"/>
        <pt x="444" y="81" on="1"/>
        <pt x="444" y="0" on="0"/>
        <pt x="273" y="-165" on="0"/>
        <pt x="184" y="-165" on="1"/>
        <pt x="89" y="-165" on="0"/>
        <pt x="44" y="-99" on="1"/>
        <pt x="8" y="-46" on="0"/>
        <pt x="8" y="45" on="1"/>
        <pt x="8" y="62" on="0"/>
        <pt x="21" y="93" on="1"/>
        <pt x="43" y="144" on="0"/>
        <pt x="82" y="191" on="1"/>
        <pt x="135" y="255" on="0"/>
        <pt x="224" y="316" on="1"/>
        <pt x="176" y="365" on="0"/>
        <pt x="144" y="411" on="1"/>
        <pt x="109" y="461" on="0"/>
        <pt x="109" y="501" on="1"/>
        <pt x="109" y="551" on="0"/>
        <pt x="164" y="599" on="1"/>
        <pt x="233" y="659" on="0"/>
        <pt x="374" y="702" on="1"/>
        <pt x="455" y="730" on="0"/>
        <pt x="501" y="744" on="1"/>
        <pt x="644" y="787" on="0"/>
        <pt x="705" y="787" on="1"/>
        <pt x="787" y="787" on="0"/>
        <pt x="826" y="776" on="1"/>
        <pt x="890" y="758" on="0"/>
      </contour>
      <contour>
        <pt x="359" y="96" on="1"/>
        <pt x="359" y="130" on="0"/>
        <pt x="340" y="170" on="1"/>
        <pt x="317" y="219" on="0"/>
        <pt x="274" y="256" on="1"/>
        <pt x="215" y="205" on="0"/>
        <pt x="157" y="154" on="1"/>
        <pt x="74" y="70" on="0"/>
        <pt x="74" y="10" on="1"/>
        <pt x="74" y="-35" on="0"/>
        <pt x="127" y="-90" on="0"/>
        <pt x="184" y="-90" on="1"/>
        <pt x="231" y="-90" on="0"/>
        <pt x="289" y="-40" on="1"/>
        <pt x="359" y="20" on="0"/>
      </contour>
    </TTGlyph>
    <TTGlyph name="endash" xMin="18" yMin="327" xMax="829" yMax="483">
      <contour>
        <pt x="829" y="382" on="1"/>
        <pt x="818" y="377" on="0"/>
        <pt x="805" y="377" on="1"/>
        <pt x="795" y="377" on="0"/>
        <pt x="789" y="377" on="1"/>
        <pt x="639" y="407" on="1"/>
        <pt x="540" y="407" on="0"/>
        <pt x="409" y="397" on="1"/>
        <pt x="366" y="394" on="0"/>
        <pt x="298" y="387" on="1"/>
        <pt x="263" y="379" on="0"/>
        <pt x="244" y="375" on="1"/>
        <pt x="181" y="362" on="0"/>
        <pt x="158" y="362" on="1"/>
        <pt x="159" y="361" on="0"/>
        <pt x="161" y="361" on="1"/>
        <pt x="152" y="354" on="0"/>
        <pt x="18" y="327" on="1"/>
        <pt x="18" y="382" on="1"/>
        <pt x="34" y="406" on="0"/>
        <pt x="150" y="436" on="1"/>
        <pt x="234" y="457" on="0"/>
        <pt x="354" y="475" on="0"/>
        <pt x="464" y="483" on="0"/>
        <pt x="500" y="483" on="1"/>
        <pt x="557" y="483" on="0"/>
        <pt x="598" y="479" on="1"/>
        <pt x="722" y="467" on="0"/>
        <pt x="724" y="467" on="1"/>
        <pt x="756" y="451" on="0"/>
        <pt x="772" y="441" on="1"/>
        <pt x="822" y="409" on="0"/>
      </contour>
    </TTGlyph>
    <TTGlyph name="equal" xMin="3" yMin="55" xMax="641" yMax="476">
      <contour>
        <pt x="600" y="431" on="1"/>
        <pt x="600" y="420" on="0"/>
        <pt x="550" y="411" on="0"/>
        <pt x="525" y="411" on="1"/>
        <pt x="465" y="411" on="0"/>
        <pt x="216" y="342" on="0"/>
        <pt x="88" y="306" on="1"/>
        <pt x="74" y="306" on="0"/>
        <pt x="68" y="321" on="0"/>
        <pt x="68" y="341" on="1"/>
        <pt x="68" y="365" on="0"/>
        <pt x="181" y="404" on="0"/>
        <pt x="209" y="416" on="1"/>
        <pt x="254" y="428" on="0"/>
        <pt x="278" y="433" on="1"/>
        <pt x="353" y="451" on="0"/>
        <pt x="369" y="451" on="1"/>
        <pt x="390" y="463" on="0"/>
        <pt x="414" y="467" on="1"/>
        <pt x="459" y="476" on="0"/>
        <pt x="515" y="476" on="1"/>
        <pt x="557" y="476" on="0"/>
        <pt x="600" y="459" on="0"/>
      </contour>
      <contour>
        <pt x="25" y="55" on="1"/>
        <pt x="23" y="61" on="0"/>
        <pt x="8" y="90" on="1"/>
        <pt x="3" y="100" on="0"/>
        <pt x="3" y="105" on="1"/>
        <pt x="3" y="145" on="0"/>
        <pt x="289" y="256" on="1"/>
        <pt x="329" y="271" on="0"/>
        <pt x="561" y="326" on="0"/>
        <pt x="585" y="326" on="1"/>
        <pt x="588" y="326" on="0"/>
        <pt x="590" y="326" on="1"/>
        <pt x="596" y="326" on="0"/>
        <pt x="603" y="327" on="1"/>
        <pt x="621" y="327" on="0"/>
        <pt x="641" y="324" on="0"/>
        <pt x="641" y="318" on="1"/>
        <pt x="641" y="304" on="0"/>
        <pt x="566" y="273" on="1"/>
        <pt x="469" y="233" on="0"/>
        <pt x="250" y="166" on="1"/>
        <pt x="194" y="149" on="0"/>
        <pt x="81" y="86" on="0"/>
      </contour>
    </TTGlyph>
    <TTGlyph name="exclam" xMin="3" yMin="-52" xMax="265" yMax="797">
      <contour>
        <pt x="263" y="692" on="1"/>
        <pt x="263" y="670" on="0"/>
        <pt x="218" y="550" on="1"/>
        <pt x="189" y="473" on="0"/>
        <pt x="168" y="382" on="1"/>
        <pt x="142" y="304" on="0"/>
        <pt x="128" y="264" on="1"/>
        <pt x="85" y="144" on="0"/>
        <pt x="73" y="128" on="1"/>
        <pt x="57" y="120" on="0"/>
        <pt x="49" y="116" on="1"/>
        <pt x="22" y="103" on="0"/>
        <pt x="18" y="103" on="1"/>
        <pt x="14" y="103" on="0"/>
        <pt x="3" y="117" on="0"/>
        <pt x="3" y="123" on="1"/>
        <pt x="19" y="158" on="0"/>
        <pt x="35" y="197" on="1"/>
        <pt x="68" y="277" on="0"/>
        <pt x="68" y="307" on="1"/>
        <pt x="148" y="562" on="1"/>
        <pt x="177" y="659" on="0"/>
        <pt x="207" y="757" on="1"/>
        <pt x="221" y="797" on="0"/>
        <pt x="238" y="797" on="1"/>
        <pt x="254" y="797" on="0"/>
        <pt x="265" y="775" on="0"/>
        <pt x="265" y="752" on="1"/>
        <pt x="265" y="743" on="0"/>
        <pt x="263" y="702" on="0"/>
      </contour>
      <contour>
        <pt x="138" y="-12" on="1"/>
        <pt x="138" y="-32" on="0"/>
        <pt x="114" y="-52" on="0"/>
        <pt x="98" y="-52" on="1"/>
        <pt x="85" y="-52" on="0"/>
        <pt x="82" y="-50" on="1"/>
        <pt x="72" y="-44" on="0"/>
        <pt x="72" y="-26" on="1"/>
        <pt x="72" y="-13" on="0"/>
        <pt x="78" y="13" on="1"/>
        <pt x="79" y="19" on="0"/>
        <pt x="93" y="24" on="0"/>
        <pt x="103" y="24" on="1"/>
        <pt x="116" y="23" on="0"/>
        <pt x="118" y="23" on="1"/>
        <pt x="130" y="23" on="0"/>
        <pt x="139" y="10" on="0"/>
        <pt x="139" y="0" on="1"/>
        <pt x="138" y="-9" on="0"/>
      </contour>
    </TTGlyph>
    <TTGlyph name="f" xMin="3" yMin="-191" xMax="705" yMax="797">
      <contour>
        <pt x="705" y="551" on="1"/>
        <pt x="675" y="551" on="1"/>
        <pt x="644" y="631" on="0"/>
        <pt x="604" y="681" on="1"/>
        <pt x="560" y="736" on="0"/>
        <pt x="505" y="736" on="1"/>
        <pt x="472" y="736" on="0"/>
        <pt x="418" y="693" on="1"/>
        <pt x="359" y="646" on="0"/>
        <pt x="359" y="606" on="1"/>
        <pt x="347" y="576" on="0"/>
        <pt x="342" y="560" on="1"/>
        <pt x="324" y="508" on="0"/>
        <pt x="324" y="491" on="1"/>
        <pt x="300" y="407" on="0"/>
        <pt x="289" y="363" on="1"/>
        <pt x="254" y="229" on="0"/>
        <pt x="254" y="200" on="1"/>
        <pt x="253" y="190" on="0"/>
        <pt x="253" y="185" on="1"/>
        <pt x="253" y="170" on="0"/>
        <pt x="264" y="170" on="1"/>
        <pt x="290" y="174" on="0"/>
        <pt x="305" y="175" on="1"/>
        <pt x="358" y="181" on="0"/>
        <pt x="382" y="181" on="1"/>
        <pt x="424" y="181" on="0"/>
        <pt x="424" y="170" on="1"/>
        <pt x="424" y="134" on="0"/>
        <pt x="365" y="123" on="1"/>
        <pt x="277" y="107" on="0"/>
        <pt x="274" y="105" on="1"/>
        <pt x="219" y="77" on="0"/>
        <pt x="214" y="71" on="1"/>
        <pt x="204" y="60" on="0"/>
        <pt x="204" y="13" on="1"/>
        <pt x="204" y="-35" on="1"/>
        <pt x="204" y="-68" on="0"/>
        <pt x="193" y="-96" on="0"/>
        <pt x="189" y="-106" on="1"/>
        <pt x="190" y="-103" on="0"/>
        <pt x="191" y="-101" on="1"/>
        <pt x="192" y="-98" on="0"/>
        <pt x="194" y="-96" on="1"/>
        <pt x="194" y="-116" on="0"/>
        <pt x="172" y="-151" on="1"/>
        <pt x="147" y="-191" on="0"/>
        <pt x="124" y="-191" on="1"/>
        <pt x="116" y="-191" on="0"/>
        <pt x="99" y="-165" on="0"/>
        <pt x="99" y="-146" on="1"/>
        <pt x="109" y="-113" on="0"/>
        <pt x="117" y="-78" on="1"/>
        <pt x="139" y="12" on="0"/>
        <pt x="149" y="65" on="1"/>
        <pt x="119" y="65" on="1"/>
        <pt x="112" y="63" on="0"/>
        <pt x="88" y="55" on="1"/>
        <pt x="73" y="50" on="0"/>
        <pt x="59" y="50" on="1"/>
        <pt x="37" y="50" on="0"/>
        <pt x="3" y="84" on="0"/>
        <pt x="3" y="100" on="1"/>
        <pt x="3" y="117" on="0"/>
        <pt x="157" y="134" on="0"/>
        <pt x="179" y="185" on="1"/>
        <pt x="186" y="202" on="0"/>
        <pt x="219" y="371" on="0"/>
        <pt x="219" y="396" on="1"/>
        <pt x="227" y="399" on="0"/>
        <pt x="234" y="420" on="0"/>
        <pt x="234" y="446" on="1"/>
        <pt x="249" y="486" on="0"/>
        <pt x="256" y="507" on="1"/>
        <pt x="279" y="574" on="0"/>
        <pt x="279" y="591" on="1"/>
        <pt x="279" y="634" on="0"/>
        <pt x="335" y="705" on="1"/>
        <pt x="407" y="797" on="0"/>
        <pt x="505" y="797" on="1"/>
        <pt x="602" y="797" on="0"/>
        <pt x="652" y="711" on="1"/>
        <pt x="690" y="612" on="0"/>
        <pt x="705" y="586" on="1"/>
      </contour>
    </TTGlyph>
    <TTGlyph name="five" xMin="3" yMin="-75" xMax="960" yMax="792">
      <contour>
        <pt x="960" y="762" on="1"/>
        <pt x="960" y="745" on="0"/>
        <pt x="925" y="736" on="1"/>
        <pt x="822" y="714" on="0"/>
        <pt x="720" y="692" on="1"/>
        <pt x="617" y="665" on="0"/>
        <pt x="489" y="632" on="0"/>
        <pt x="469" y="632" on="1"/>
        <pt x="449" y="632" on="0"/>
        <pt x="439" y="651" on="0"/>
        <pt x="439" y="667" on="1"/>
        <pt x="439" y="702" on="0"/>
        <pt x="648" y="767" on="0"/>
        <pt x="740" y="767" on="1"/>
        <pt x="775" y="775" on="0"/>
        <pt x="794" y="779" on="1"/>
        <pt x="857" y="792" on="0"/>
        <pt x="880" y="792" on="1"/>
        <pt x="917" y="792" on="0"/>
        <pt x="960" y="775" on="0"/>
      </contour>
      <contour>
        <pt x="594" y="201" on="1"/>
        <pt x="594" y="102" on="0"/>
        <pt x="379" y="-75" on="0"/>
        <pt x="254" y="-75" on="1"/>
        <pt x="187" y="-75" on="0"/>
        <pt x="112" y="-24" on="1"/>
        <pt x="28" y="33" on="0"/>
        <pt x="28" y="101" on="1"/>
        <pt x="33" y="112" on="0"/>
        <pt x="36" y="119" on="1"/>
        <pt x="46" y="143" on="0"/>
        <pt x="53" y="166" on="1"/>
        <pt x="104" y="77" on="0"/>
        <pt x="112" y="67" on="1"/>
        <pt x="153" y="17" on="0"/>
        <pt x="229" y="0" on="1"/>
        <pt x="235" y="-1" on="0"/>
        <pt x="237" y="-1" on="1"/>
        <pt x="244" y="-2" on="0"/>
        <pt x="252" y="-2" on="1"/>
        <pt x="295" y="-2" on="0"/>
        <pt x="393" y="42" on="0"/>
        <pt x="480" y="117" on="0"/>
        <pt x="499" y="139" on="1"/>
        <pt x="527" y="172" on="0"/>
        <pt x="527" y="199" on="1"/>
        <pt x="527" y="207" on="0"/>
        <pt x="524" y="216" on="1"/>
        <pt x="502" y="284" on="0"/>
        <pt x="462" y="309" on="1"/>
        <pt x="394" y="351" on="0"/>
        <pt x="219" y="351" on="1"/>
        <pt x="211" y="352" on="0"/>
        <pt x="205" y="352" on="1"/>
        <pt x="186" y="352" on="0"/>
        <pt x="116" y="345" on="0"/>
        <pt x="58" y="336" on="1"/>
        <pt x="55" y="335" on="0"/>
        <pt x="52" y="335" on="1"/>
        <pt x="48" y="335" on="0"/>
        <pt x="47" y="335" on="1"/>
        <pt x="25" y="335" on="0"/>
        <pt x="3" y="367" on="0"/>
        <pt x="3" y="391" on="1"/>
        <pt x="3" y="424" on="0"/>
        <pt x="87" y="477" on="1"/>
        <pt x="138" y="509" on="0"/>
        <pt x="189" y="541" on="1"/>
        <pt x="201" y="554" on="0"/>
        <pt x="380" y="652" on="0"/>
        <pt x="399" y="652" on="1"/>
        <pt x="414" y="652" on="0"/>
        <pt x="444" y="619" on="0"/>
        <pt x="444" y="601" on="1"/>
        <pt x="444" y="580" on="0"/>
        <pt x="320" y="579" on="0"/>
        <pt x="124" y="426" on="1"/>
        <pt x="155" y="429" on="0"/>
        <pt x="175" y="430" on="1"/>
        <pt x="236" y="434" on="0"/>
        <pt x="285" y="434" on="1"/>
        <pt x="321" y="434" on="0"/>
        <pt x="384" y="428" on="0"/>
        <pt x="404" y="421" on="1"/>
        <pt x="493" y="389" on="0"/>
        <pt x="539" y="341" on="1"/>
        <pt x="594" y="284" on="0"/>
      </contour>
    </TTGlyph>
    <TTGlyph name="four" xMin="8" yMin="-195" xMax="680" yMax="802">
      <contour>
        <pt x="680" y="762" on="1"/>
        <pt x="680" y="740" on="0"/>
        <pt x="655" y="736" on="0"/>
        <pt x="655" y="722" on="1"/>
        <pt x="599" y="611" on="1"/>
        <pt x="596" y="602" on="0"/>
        <pt x="587" y="529" on="0"/>
        <pt x="569" y="486" on="1"/>
        <pt x="532" y="396" on="0"/>
        <pt x="491" y="306" on="1"/>
        <pt x="474" y="268" on="0"/>
        <pt x="474" y="256" on="1"/>
        <pt x="474" y="252" on="0"/>
        <pt x="499" y="235" on="0"/>
        <pt x="499" y="221" on="1"/>
        <pt x="466" y="196" on="0"/>
        <pt x="414" y="131" on="0"/>
        <pt x="414" y="80" on="1"/>
        <pt x="334" y="-95" on="1"/>
        <pt x="317" y="-124" on="0"/>
        <pt x="301" y="-174" on="1"/>
        <pt x="298" y="-185" on="0"/>
        <pt x="259" y="-195" on="1"/>
        <pt x="248" y="-162" on="0"/>
        <pt x="248" y="-160" on="1"/>
        <pt x="250" y="-159" on="0"/>
        <pt x="251" y="-159" on="1"/>
        <pt x="259" y="-157" on="0"/>
        <pt x="259" y="-125" on="1"/>
        <pt x="256" y="-123" on="0"/>
        <pt x="253" y="-121" on="1"/>
        <pt x="246" y="-115" on="0"/>
        <pt x="246" y="-103" on="1"/>
        <pt x="246" y="-95" on="0"/>
        <pt x="249" y="-80" on="1"/>
        <pt x="263" y="-21" on="0"/>
        <pt x="323" y="91" on="1"/>
        <pt x="349" y="139" on="0"/>
        <pt x="349" y="151" on="1"/>
        <pt x="349" y="162" on="0"/>
        <pt x="334" y="166" on="0"/>
        <pt x="319" y="166" on="1"/>
        <pt x="290" y="166" on="0"/>
        <pt x="233" y="150" on="1"/>
        <pt x="201" y="141" on="0"/>
        <pt x="174" y="141" on="1"/>
        <pt x="169" y="138" on="0"/>
        <pt x="165" y="137" on="1"/>
        <pt x="137" y="126" on="0"/>
        <pt x="94" y="126" on="1"/>
        <pt x="55" y="126" on="0"/>
        <pt x="43" y="129" on="1"/>
        <pt x="8" y="138" on="0"/>
        <pt x="8" y="186" on="1"/>
        <pt x="8" y="215" on="0"/>
        <pt x="64" y="291" on="1"/>
        <pt x="102" y="343" on="0"/>
        <pt x="114" y="366" on="1"/>
        <pt x="138" y="411" on="0"/>
        <pt x="187" y="463" on="1"/>
        <pt x="225" y="503" on="0"/>
        <pt x="249" y="506" on="1"/>
        <pt x="249" y="441" on="1"/>
        <pt x="204" y="391" on="0"/>
        <pt x="173" y="338" on="1"/>
        <pt x="113" y="235" on="0"/>
        <pt x="109" y="231" on="1"/>
        <pt x="109" y="206" on="1"/>
        <pt x="189" y="206" on="1"/>
        <pt x="203" y="221" on="0"/>
        <pt x="223" y="226" on="1"/>
        <pt x="258" y="236" on="0"/>
        <pt x="314" y="236" on="1"/>
        <pt x="354" y="236" on="1"/>
        <pt x="399" y="256" on="1"/>
        <pt x="430" y="332" on="0"/>
        <pt x="446" y="372" on="1"/>
        <pt x="494" y="491" on="0"/>
        <pt x="505" y="531" on="0"/>
        <pt x="531" y="597" on="1"/>
        <pt x="554" y="655" on="0"/>
        <pt x="596" y="752" on="0"/>
        <pt x="600" y="760" on="1"/>
        <pt x="622" y="802" on="0"/>
        <pt x="640" y="802" on="1"/>
        <pt x="655" y="802" on="0"/>
        <pt x="680" y="777" on="0"/>
      </contour>
    </TTGlyph>
    <TTGlyph name="g" xMin="-1" yMin="-194" xMax="579" yMax="657">
      <contour>
        <pt x="579" y="442" on="1"/>
        <pt x="538" y="355" on="0"/>
        <pt x="504" y="270" on="1"/>
        <pt x="465" y="173" on="0"/>
        <pt x="458" y="107" on="1"/>
        <pt x="408" y="-144" on="1"/>
        <pt x="382" y="-170" on="0"/>
        <pt x="334" y="-194" on="0"/>
        <pt x="306" y="-194" on="1"/>
        <pt x="279" y="-194" on="0"/>
        <pt x="227" y="-177" on="0"/>
        <pt x="159" y="-132" on="0"/>
        <pt x="136" y="-120" on="1"/>
        <pt x="67" y="-84" on="0"/>
        <pt x="3" y="-69" on="1"/>
        <pt x="-1" y="-68" on="0"/>
        <pt x="2" y="-59" on="1"/>
        <pt x="2" y="-58" on="0"/>
        <pt x="3" y="-54" on="1"/>
        <pt x="43" y="-54" on="1"/>
        <pt x="106" y="-54" on="0"/>
        <pt x="193" y="-92" on="1"/>
        <pt x="253" y="-118" on="0"/>
        <pt x="273" y="-124" on="1"/>
        <pt x="278" y="-125" on="0"/>
        <pt x="284" y="-127" on="1"/>
        <pt x="288" y="-128" on="0"/>
        <pt x="295" y="-128" on="1"/>
        <pt x="351" y="-128" on="0"/>
        <pt x="416" y="250" on="1"/>
        <pt x="399" y="240" on="0"/>
        <pt x="290" y="200" on="1"/>
        <pt x="254" y="187" on="0"/>
        <pt x="183" y="162" on="1"/>
        <pt x="124" y="162" on="0"/>
        <pt x="38" y="238" on="0"/>
        <pt x="38" y="292" on="1"/>
        <pt x="38" y="336" on="0"/>
        <pt x="84" y="459" on="0"/>
        <pt x="123" y="507" on="1"/>
        <pt x="169" y="564" on="0"/>
        <pt x="227" y="603" on="1"/>
        <pt x="307" y="657" on="0"/>
        <pt x="383" y="657" on="1"/>
        <pt x="428" y="657" on="0"/>
        <pt x="452" y="627" on="1"/>
        <pt x="473" y="601" on="0"/>
        <pt x="473" y="562" on="1"/>
        <pt x="473" y="522" on="0"/>
        <pt x="436" y="469" on="1"/>
        <pt x="394" y="409" on="0"/>
        <pt x="355" y="417" on="1"/>
        <pt x="374" y="448" on="0"/>
        <pt x="394" y="480" on="1"/>
        <pt x="413" y="517" on="0"/>
        <pt x="413" y="557" on="1"/>
        <pt x="413" y="592" on="0"/>
        <pt x="383" y="592" on="1"/>
        <pt x="351" y="587" on="0"/>
        <pt x="331" y="579" on="1"/>
        <pt x="270" y="555" on="0"/>
        <pt x="228" y="502" on="1"/>
        <pt x="188" y="459" on="0"/>
        <pt x="168" y="432" on="1"/>
        <pt x="108" y="349" on="0"/>
        <pt x="108" y="287" on="1"/>
        <pt x="108" y="269" on="0"/>
        <pt x="124" y="255" on="1"/>
        <pt x="144" y="237" on="0"/>
        <pt x="178" y="237" on="1"/>
        <pt x="222" y="237" on="0"/>
        <pt x="305" y="274" on="1"/>
        <pt x="370" y="303" on="0"/>
        <pt x="398" y="322" on="1"/>
        <pt x="466" y="367" on="0"/>
        <pt x="485" y="446" on="1"/>
        <pt x="500" y="507" on="0"/>
        <pt x="528" y="507" on="1"/>
        <pt x="555" y="507" on="0"/>
        <pt x="579" y="468" on="0"/>
      </contour>
    </TTGlyph>
    <TTGlyph name="greater" xMin="3" yMin="-5" xMax="1040" yMax="795">
      <contour>
        <pt x="990" y="356" on="1"/>
        <pt x="990" y="415" on="0"/>
        <pt x="954" y="458" on="1"/>
        <pt x="932" y="484" on="0"/>
        <pt x="882" y="516" on="1"/>
        <pt x="881" y="515" on="0"/>
        <pt x="867" y="480" on="0"/>
        <pt x="860" y="466" on="1"/>
        <pt x="843" y="470" on="0"/>
        <pt x="832" y="492" on="0"/>
        <pt x="832" y="512" on="1"/>
        <pt x="832" y="525" on="0"/>
        <pt x="835" y="570" on="0"/>
        <pt x="835" y="571" on="1"/>
        <pt x="835" y="608" on="0"/>
        <pt x="824" y="632" on="1"/>
        <pt x="809" y="666" on="0"/>
        <pt x="770" y="692" on="1"/>
        <pt x="724" y="722" on="1"/>
        <pt x="720" y="719" on="0"/>
        <pt x="718" y="718" on="1"/>
        <pt x="710" y="714" on="0"/>
        <pt x="702" y="714" on="1"/>
        <pt x="692" y="714" on="0"/>
        <pt x="684" y="722" on="1"/>
        <pt x="676" y="715" on="0"/>
        <pt x="670" y="713" on="1"/>
        <pt x="664" y="711" on="0"/>
        <pt x="654" y="711" on="1"/>
        <pt x="647" y="711" on="0"/>
        <pt x="615" y="714" on="0"/>
        <pt x="611" y="714" on="1"/>
        <pt x="606" y="714" on="0"/>
        <pt x="601" y="714" on="1"/>
        <pt x="593" y="712" on="0"/>
        <pt x="589" y="712" on="1"/>
        <pt x="565" y="708" on="0"/>
        <pt x="514" y="689" on="0"/>
        <pt x="507" y="689" on="1"/>
        <pt x="502" y="689" on="0"/>
        <pt x="494" y="692" on="1"/>
        <pt x="485" y="681" on="0"/>
        <pt x="303" y="604" on="0"/>
        <pt x="259" y="566" on="1"/>
        <pt x="178" y="497" on="0"/>
        <pt x="135" y="439" on="1"/>
        <pt x="109" y="403" on="0"/>
        <pt x="98" y="361" on="1"/>
        <pt x="85" y="327" on="0"/>
        <pt x="83" y="318" on="1"/>
        <pt x="78" y="295" on="0"/>
        <pt x="78" y="246" on="1"/>
        <pt x="78" y="167" on="0"/>
        <pt x="142" y="126" on="1"/>
        <pt x="237" y="66" on="0"/>
        <pt x="484" y="66" on="1"/>
        <pt x="795" y="131" on="1"/>
        <pt x="802" y="131" on="0"/>
        <pt x="845" y="156" on="1"/>
        <pt x="903" y="189" on="0"/>
        <pt x="939" y="231" on="1"/>
        <pt x="990" y="290" on="0"/>
      </contour>
      <contour>
        <pt x="489" y="111" on="1"/>
        <pt x="401" y="111" on="0"/>
        <pt x="334" y="168" on="0"/>
        <pt x="334" y="231" on="1"/>
        <pt x="355" y="286" on="0"/>
        <pt x="366" y="313" on="1"/>
        <pt x="401" y="396" on="0"/>
        <pt x="414" y="396" on="1"/>
        <pt x="428" y="396" on="0"/>
        <pt x="447" y="366" on="0"/>
        <pt x="451" y="341" on="1"/>
        <pt x="491" y="341" on="0"/>
        <pt x="547" y="374" on="1"/>
        <pt x="608" y="410" on="0"/>
        <pt x="619" y="451" on="1"/>
        <pt x="598" y="462" on="0"/>
        <pt x="565" y="471" on="0"/>
        <pt x="544" y="471" on="1"/>
        <pt x="449" y="471" on="1"/>
        <pt x="440" y="471" on="0"/>
        <pt x="399" y="461" on="1"/>
        <pt x="378" y="456" on="0"/>
        <pt x="359" y="456" on="1"/>
        <pt x="346" y="456" on="0"/>
        <pt x="273" y="411" on="0"/>
        <pt x="269" y="411" on="1"/>
        <pt x="261" y="418" on="0"/>
        <pt x="257" y="423" on="1"/>
        <pt x="244" y="441" on="0"/>
        <pt x="244" y="461" on="1"/>
        <pt x="244" y="487" on="0"/>
        <pt x="323" y="514" on="1"/>
        <pt x="417" y="546" on="0"/>
        <pt x="549" y="546" on="1"/>
        <pt x="607" y="546" on="0"/>
        <pt x="647" y="526" on="1"/>
        <pt x="699" y="500" on="0"/>
        <pt x="699" y="451" on="1"/>
        <pt x="699" y="394" on="0"/>
        <pt x="609" y="337" on="1"/>
        <pt x="511" y="281" on="0"/>
        <pt x="414" y="226" on="1"/>
        <pt x="414" y="215" on="0"/>
        <pt x="451" y="191" on="0"/>
        <pt x="474" y="191" on="1"/>
        <pt x="805" y="191" on="1"/>
        <pt x="793" y="172" on="0"/>
        <pt x="560" y="111" on="0"/>
      </contour>
      <contour>
        <pt x="3" y="266" on="1"/>
        <pt x="3" y="330" on="0"/>
        <pt x="74" y="491" on="0"/>
        <pt x="119" y="536" on="1"/>
        <pt x="186" y="603" on="0"/>
        <pt x="248" y="651" on="1"/>
        <pt x="333" y="717" on="0"/>
        <pt x="374" y="717" on="1"/>
        <pt x="388" y="729" on="0"/>
        <pt x="435" y="753" on="0"/>
        <pt x="469" y="757" on="1"/>
        <pt x="507" y="770" on="0"/>
        <pt x="531" y="776" on="1"/>
        <pt x="603" y="795" on="0"/>
        <pt x="655" y="795" on="1"/>
        <pt x="676" y="795" on="0"/>
        <pt x="694" y="792" on="1"/>
        <pt x="775" y="776" on="0"/>
        <pt x="875" y="670" on="0"/>
        <pt x="875" y="591" on="1"/>
        <pt x="875" y="570" on="0"/>
        <pt x="917" y="542" on="1"/>
        <pt x="975" y="504" on="0"/>
        <pt x="997" y="475" on="1"/>
        <pt x="1040" y="419" on="0"/>
        <pt x="1040" y="331" on="1"/>
        <pt x="1040" y="234" on="0"/>
        <pt x="967" y="162" on="1"/>
        <pt x="899" y="95" on="0"/>
        <pt x="760" y="51" on="1"/>
        <pt x="677" y="25" on="0"/>
        <pt x="496" y="-5" on="0"/>
        <pt x="407" y="-5" on="1"/>
        <pt x="228" y="-5" on="0"/>
        <pt x="124" y="55" on="1"/>
        <pt x="3" y="125" on="0"/>
      </contour>
    </TTGlyph>
    <TTGlyph name="h" xMin="13" yMin="-99" xMax="604" yMax="800">
      <contour>
        <pt x="514" y="81" on="1"/>
        <pt x="487" y="22" on="0"/>
        <pt x="461" y="-36" on="1"/>
        <pt x="429" y="-99" on="0"/>
        <pt x="409" y="-99" on="1"/>
        <pt x="400" y="-99" on="0"/>
        <pt x="379" y="-68" on="0"/>
        <pt x="379" y="-59" on="1"/>
        <pt x="379" y="-41" on="0"/>
        <pt x="429" y="93" on="1"/>
        <pt x="476" y="218" on="0"/>
        <pt x="494" y="256" on="1"/>
        <pt x="504" y="293" on="0"/>
        <pt x="508" y="315" on="1"/>
        <pt x="523" y="386" on="0"/>
        <pt x="523" y="425" on="1"/>
        <pt x="523" y="449" on="0"/>
        <pt x="516" y="470" on="0"/>
        <pt x="504" y="470" on="1"/>
        <pt x="476" y="470" on="0"/>
        <pt x="401" y="416" on="1"/>
        <pt x="345" y="376" on="0"/>
        <pt x="275" y="316" on="1"/>
        <pt x="244" y="288" on="0"/>
        <pt x="213" y="261" on="1"/>
        <pt x="174" y="213" on="0"/>
        <pt x="158" y="189" on="1"/>
        <pt x="126" y="141" on="0"/>
        <pt x="98" y="81" on="1"/>
        <pt x="89" y="42" on="0"/>
        <pt x="80" y="4" on="1"/>
        <pt x="67" y="-24" on="0"/>
        <pt x="38" y="-24" on="1"/>
        <pt x="29" y="-24" on="0"/>
        <pt x="13" y="13" on="0"/>
        <pt x="13" y="30" on="1"/>
        <pt x="13" y="79" on="0"/>
        <pt x="31" y="129" on="1"/>
        <pt x="54" y="177" on="0"/>
        <pt x="78" y="226" on="1"/>
        <pt x="98" y="285" on="0"/>
        <pt x="167" y="468" on="0"/>
        <pt x="203" y="561" on="1"/>
        <pt x="220" y="606" on="0"/>
        <pt x="238" y="652" on="1"/>
        <pt x="238" y="680" on="0"/>
        <pt x="298" y="792" on="0"/>
        <pt x="314" y="797" on="1"/>
        <pt x="324" y="800" on="0"/>
        <pt x="327" y="792" on="1"/>
        <pt x="329" y="787" on="0"/>
        <pt x="329" y="770" on="1"/>
        <pt x="329" y="758" on="0"/>
        <pt x="329" y="752" on="1"/>
        <pt x="329" y="739" on="0"/>
        <pt x="314" y="682" on="1"/>
        <pt x="294" y="607" on="0"/>
        <pt x="263" y="526" on="1"/>
        <pt x="254" y="501" on="0"/>
        <pt x="227" y="422" on="1"/>
        <pt x="219" y="397" on="0"/>
        <pt x="203" y="351" on="1"/>
        <pt x="300" y="433" on="0"/>
        <pt x="377" y="483" on="1"/>
        <pt x="460" y="537" on="0"/>
        <pt x="519" y="537" on="1"/>
        <pt x="547" y="537" on="0"/>
        <pt x="578" y="501" on="1"/>
        <pt x="604" y="470" on="0"/>
        <pt x="604" y="456" on="1"/>
        <pt x="604" y="416" on="0"/>
        <pt x="583" y="311" on="1"/>
        <pt x="555" y="172" on="0"/>
      </contour>
    </TTGlyph>
    <TTGlyph name="hyphen" xMin="3" yMin="236" xMax="449" yMax="352">
      <contour>
        <pt x="449" y="316" on="1"/>
        <pt x="449" y="309" on="0"/>
        <pt x="429" y="296" on="0"/>
        <pt x="409" y="296" on="1"/>
        <pt x="392" y="286" on="0"/>
        <pt x="373" y="283" on="1"/>
        <pt x="338" y="276" on="0"/>
        <pt x="294" y="276" on="1"/>
        <pt x="209" y="276" on="1"/>
        <pt x="23" y="236" on="1"/>
        <pt x="18" y="236" on="0"/>
        <pt x="3" y="274" on="0"/>
        <pt x="3" y="281" on="1"/>
        <pt x="3" y="308" on="0"/>
        <pt x="56" y="322" on="1"/>
        <pt x="93" y="332" on="0"/>
        <pt x="129" y="332" on="1"/>
        <pt x="149" y="340" on="0"/>
        <pt x="218" y="352" on="0"/>
        <pt x="254" y="352" on="1"/>
        <pt x="379" y="352" on="1"/>
        <pt x="407" y="352" on="0"/>
        <pt x="449" y="336" on="0"/>
      </contour>
    </TTGlyph>
    <TTGlyph name="i" xMin="8" yMin="-14" xMax="363" yMax="797">
      <contour>
        <pt x="363" y="760" on="1"/>
        <pt x="353" y="742" on="0"/>
        <pt x="345" y="732" on="1"/>
        <pt x="329" y="712" on="0"/>
        <pt x="293" y="712" on="1"/>
        <pt x="286" y="718" on="0"/>
        <pt x="283" y="720" on="1"/>
        <pt x="273" y="729" on="0"/>
        <pt x="273" y="732" on="1"/>
        <pt x="277" y="745" on="0"/>
        <pt x="280" y="752" on="1"/>
        <pt x="299" y="797" on="0"/>
        <pt x="323" y="797" on="1"/>
        <pt x="339" y="797" on="0"/>
        <pt x="345" y="786" on="1"/>
        <pt x="356" y="766" on="0"/>
      </contour>
      <contour>
        <pt x="228" y="427" on="1"/>
        <pt x="228" y="417" on="0"/>
        <pt x="205" y="362" on="1"/>
        <pt x="193" y="333" on="0"/>
        <pt x="193" y="312" on="1"/>
        <pt x="193" y="301" on="0"/>
        <pt x="168" y="260" on="0"/>
        <pt x="168" y="241" on="1"/>
        <pt x="138" y="166" on="1"/>
        <pt x="128" y="136" on="1"/>
        <pt x="126" y="132" on="0"/>
        <pt x="111" y="120" on="0"/>
        <pt x="103" y="71" on="0"/>
        <pt x="83" y="34" on="1"/>
        <pt x="56" y="-14" on="0"/>
        <pt x="28" y="-14" on="1"/>
        <pt x="16" y="-14" on="0"/>
        <pt x="8" y="2" on="0"/>
        <pt x="8" y="18" on="1"/>
        <pt x="8" y="30" on="0"/>
        <pt x="8" y="36" on="1"/>
        <pt x="8" y="74" on="0"/>
        <pt x="45" y="134" on="1"/>
        <pt x="63" y="163" on="0"/>
        <pt x="63" y="191" on="1"/>
        <pt x="78" y="222" on="0"/>
        <pt x="86" y="240" on="1"/>
        <pt x="112" y="298" on="0"/>
        <pt x="118" y="327" on="1"/>
        <pt x="121" y="340" on="0"/>
        <pt x="154" y="406" on="1"/>
        <pt x="192" y="482" on="0"/>
        <pt x="203" y="482" on="1"/>
        <pt x="211" y="482" on="0"/>
        <pt x="221" y="456" on="1"/>
        <pt x="228" y="438" on="0"/>
      </contour>
    </TTGlyph>
    <TTGlyph name="j" xMin="8" yMin="-215" xMax="617" yMax="792">
      <contour>
        <pt x="534" y="747" on="1"/>
        <pt x="527" y="734" on="0"/>
        <pt x="520" y="728" on="1"/>
        <pt x="498" y="707" on="0"/>
        <pt x="464" y="702" on="1"/>
        <pt x="464" y="767" on="1"/>
        <pt x="471" y="776" on="0"/>
        <pt x="483" y="785" on="1"/>
        <pt x="487" y="788" on="0"/>
        <pt x="494" y="792" on="1"/>
        <pt x="511" y="792" on="0"/>
        <pt x="524" y="774" on="1"/>
        <pt x="534" y="760" on="0"/>
      </contour>
      <contour>
        <pt x="614" y="446" on="1"/>
        <pt x="614" y="422" on="0"/>
        <pt x="586" y="312" on="1"/>
        <pt x="550" y="172" on="0"/>
        <pt x="504" y="80" on="1"/>
        <pt x="485" y="44" on="0"/>
        <pt x="467" y="9" on="1"/>
        <pt x="419" y="-74" on="0"/>
        <pt x="374" y="-124" on="1"/>
        <pt x="309" y="-195" on="0"/>
        <pt x="254" y="-195" on="1"/>
        <pt x="247" y="-195" on="0"/>
        <pt x="231" y="-215" on="0"/>
        <pt x="224" y="-215" on="1"/>
        <pt x="130" y="-215" on="0"/>
        <pt x="63" y="-141" on="1"/>
        <pt x="8" y="-80" on="0"/>
        <pt x="8" y="10" on="1"/>
        <pt x="14" y="39" on="0"/>
        <pt x="19" y="54" on="1"/>
        <pt x="35" y="101" on="0"/>
        <pt x="58" y="120" on="1"/>
        <pt x="73" y="120" on="1"/>
        <pt x="73" y="86" on="0"/>
        <pt x="53" y="58" on="0"/>
        <pt x="53" y="40" on="1"/>
        <pt x="53" y="-5" on="1"/>
        <pt x="53" y="-37" on="0"/>
        <pt x="137" y="-145" on="0"/>
        <pt x="169" y="-145" on="1"/>
        <pt x="221" y="-132" on="0"/>
        <pt x="254" y="-112" on="1"/>
        <pt x="306" y="-80" on="0"/>
        <pt x="400" y="37" on="0"/>
        <pt x="439" y="108" on="1"/>
        <pt x="474" y="172" on="0"/>
        <pt x="474" y="206" on="1"/>
        <pt x="489" y="238" on="0"/>
        <pt x="496" y="256" on="1"/>
        <pt x="519" y="312" on="0"/>
        <pt x="519" y="331" on="1"/>
        <pt x="531" y="374" on="0"/>
        <pt x="536" y="399" on="1"/>
        <pt x="554" y="477" on="0"/>
        <pt x="554" y="506" on="1"/>
        <pt x="554" y="513" on="0"/>
        <pt x="553" y="514" on="1"/>
        <pt x="549" y="511" on="0"/>
        <pt x="548" y="511" on="1"/>
        <pt x="546" y="511" on="0"/>
        <pt x="545" y="515" on="1"/>
        <pt x="544" y="519" on="0"/>
        <pt x="544" y="536" on="1"/>
        <pt x="544" y="553" on="0"/>
        <pt x="529" y="556" on="1"/>
        <pt x="529" y="606" on="1"/>
        <pt x="534" y="615" on="0"/>
        <pt x="540" y="625" on="1"/>
        <pt x="546" y="631" on="0"/>
        <pt x="564" y="631" on="1"/>
        <pt x="594" y="631" on="0"/>
        <pt x="607" y="610" on="1"/>
        <pt x="617" y="594" on="0"/>
        <pt x="617" y="567" on="1"/>
        <pt x="617" y="554" on="0"/>
        <pt x="616" y="545" on="1"/>
        <pt x="616" y="542" on="0"/>
        <pt x="614" y="536" on="1"/>
      </contour>
    </TTGlyph>
    <TTGlyph name="k" xMin="8" yMin="-14" xMax="503" yMax="797">
      <contour>
        <pt x="488" y="557" on="1"/>
        <pt x="488" y="532" on="0"/>
        <pt x="455" y="509" on="0"/>
        <pt x="438" y="497" on="1"/>
        <pt x="382" y="435" on="0"/>
        <pt x="368" y="407" on="1"/>
        <pt x="362" y="395" on="0"/>
        <pt x="284" y="309" on="0"/>
        <pt x="247" y="275" on="1"/>
        <pt x="223" y="253" on="0"/>
        <pt x="223" y="236" on="1"/>
        <pt x="223" y="217" on="0"/>
        <pt x="295" y="171" on="1"/>
        <pt x="344" y="139" on="0"/>
        <pt x="430" y="94" on="1"/>
        <pt x="502" y="56" on="0"/>
        <pt x="503" y="56" on="1"/>
        <pt x="503" y="42" on="0"/>
        <pt x="486" y="16" on="0"/>
        <pt x="478" y="16" on="1"/>
        <pt x="438" y="16" on="0"/>
        <pt x="374" y="48" on="1"/>
        <pt x="331" y="69" on="0"/>
        <pt x="308" y="76" on="1"/>
        <pt x="263" y="89" on="0"/>
        <pt x="185" y="160" on="0"/>
        <pt x="148" y="196" on="1"/>
        <pt x="138" y="196" on="0"/>
        <pt x="70" y="-14" on="0"/>
        <pt x="43" y="-14" on="1"/>
        <pt x="27" y="-14" on="0"/>
        <pt x="8" y="16" on="0"/>
        <pt x="8" y="36" on="1"/>
        <pt x="8" y="52" on="0"/>
        <pt x="93" y="281" on="0"/>
        <pt x="93" y="296" on="1"/>
        <pt x="93" y="316" on="0"/>
        <pt x="117" y="398" on="1"/>
        <pt x="130" y="442" on="0"/>
        <pt x="163" y="543" on="1"/>
        <pt x="187" y="617" on="0"/>
        <pt x="188" y="617" on="1"/>
        <pt x="199" y="635" on="0"/>
        <pt x="201" y="644" on="1"/>
        <pt x="209" y="674" on="0"/>
        <pt x="223" y="707" on="1"/>
        <pt x="231" y="733" on="0"/>
        <pt x="239" y="759" on="1"/>
        <pt x="255" y="797" on="0"/>
        <pt x="283" y="797" on="1"/>
        <pt x="290" y="797" on="0"/>
        <pt x="296" y="793" on="1"/>
        <pt x="308" y="784" on="0"/>
        <pt x="308" y="772" on="1"/>
        <pt x="308" y="757" on="0"/>
        <pt x="306" y="751" on="1"/>
        <pt x="306" y="749" on="0"/>
        <pt x="303" y="747" on="1"/>
        <pt x="303" y="730" on="0"/>
        <pt x="273" y="676" on="0"/>
        <pt x="273" y="652" on="1"/>
        <pt x="233" y="522" on="1"/>
        <pt x="216" y="469" on="0"/>
        <pt x="202" y="380" on="0"/>
        <pt x="173" y="357" on="1"/>
        <pt x="176" y="349" on="0"/>
        <pt x="177" y="327" on="0"/>
        <pt x="178" y="317" on="1"/>
        <pt x="188" y="320" on="0"/>
        <pt x="251" y="397" on="1"/>
        <pt x="320" y="481" on="0"/>
        <pt x="358" y="512" on="1"/>
        <pt x="378" y="529" on="0"/>
        <pt x="401" y="557" on="1"/>
        <pt x="429" y="592" on="0"/>
        <pt x="458" y="592" on="1"/>
        <pt x="470" y="592" on="0"/>
        <pt x="488" y="570" on="0"/>
      </contour>
    </TTGlyph>
    <TTGlyph name="l" xMin="8" yMin="-200" xMax="349" yMax="792">
      <contour>
        <pt x="348" y="727" on="1"/>
        <pt x="344" y="690" on="0"/>
        <pt x="330" y="632" on="1"/>
        <pt x="313" y="564" on="0"/>
        <pt x="288" y="492" on="1"/>
        <pt x="248" y="382" on="1"/>
        <pt x="232" y="327" on="0"/>
        <pt x="217" y="290" on="1"/>
        <pt x="194" y="234" on="0"/>
        <pt x="192" y="220" on="0"/>
        <pt x="103" y="-27" on="0"/>
        <pt x="103" y="-34" on="1"/>
        <pt x="68" y="-194" on="1"/>
        <pt x="49" y="-200" on="0"/>
        <pt x="8" y="-151" on="0"/>
        <pt x="8" y="-124" on="1"/>
        <pt x="8" y="-88" on="0"/>
        <pt x="29" y="-27" on="1"/>
        <pt x="33" y="-16" on="0"/>
        <pt x="84" y="120" on="1"/>
        <pt x="131" y="245" on="0"/>
        <pt x="158" y="332" on="1"/>
        <pt x="168" y="358" on="0"/>
        <pt x="182" y="398" on="1"/>
        <pt x="207" y="469" on="0"/>
        <pt x="268" y="652" on="0"/>
        <pt x="298" y="792" on="0"/>
        <pt x="308" y="792" on="1"/>
        <pt x="330" y="792" on="0"/>
        <pt x="349" y="762" on="0"/>
        <pt x="349" y="739" on="1"/>
        <pt x="348" y="731" on="0"/>
      </contour>
    </TTGlyph>
    <TTGlyph name="less" xMin="12" yMin="-189" xMax="599" yMax="797">
      <contour>
        <pt x="599" y="432" on="1"/>
        <pt x="595" y="429" on="0"/>
        <pt x="593" y="427" on="1"/>
        <pt x="587" y="420" on="0"/>
        <pt x="584" y="412" on="1"/>
        <pt x="574" y="374" on="0"/>
        <pt x="564" y="337" on="1"/>
        <pt x="518" y="308" on="0"/>
        <pt x="418" y="242" on="1"/>
        <pt x="398" y="242" on="1"/>
        <pt x="398" y="267" on="1"/>
        <pt x="480" y="315" on="0"/>
        <pt x="538" y="396" on="0"/>
        <pt x="538" y="462" on="1"/>
        <pt x="538" y="486" on="0"/>
        <pt x="531" y="501" on="1"/>
        <pt x="521" y="522" on="0"/>
        <pt x="503" y="522" on="1"/>
        <pt x="472" y="522" on="0"/>
        <pt x="441" y="489" on="1"/>
        <pt x="418" y="464" on="0"/>
        <pt x="413" y="432" on="1"/>
        <pt x="193" y="71" on="1"/>
        <pt x="197" y="70" on="0"/>
        <pt x="200" y="70" on="1"/>
        <pt x="203" y="70" on="0"/>
        <pt x="204" y="70" on="1"/>
        <pt x="216" y="71" on="0"/>
        <pt x="223" y="71" on="1"/>
        <pt x="247" y="71" on="0"/>
        <pt x="280" y="89" on="1"/>
        <pt x="383" y="145" on="0"/>
        <pt x="418" y="156" on="1"/>
        <pt x="438" y="156" on="1"/>
        <pt x="438" y="141" on="1"/>
        <pt x="438" y="93" on="0"/>
        <pt x="346" y="43" on="1"/>
        <pt x="275" y="4" on="0"/>
        <pt x="178" y="-9" on="1"/>
        <pt x="128" y="-16" on="0"/>
        <pt x="84" y="-90" on="1"/>
        <pt x="58" y="-139" on="0"/>
        <pt x="33" y="-189" on="1"/>
        <pt x="26" y="-185" on="0"/>
        <pt x="24" y="-186" on="1"/>
        <pt x="21" y="-188" on="0"/>
        <pt x="18" y="-189" on="1"/>
        <pt x="12" y="-162" on="0"/>
        <pt x="12" y="-154" on="1"/>
        <pt x="12" y="-148" on="0"/>
        <pt x="15" y="-145" on="1"/>
        <pt x="18" y="-142" on="0"/>
        <pt x="18" y="-139" on="1"/>
        <pt x="18" y="-82" on="0"/>
        <pt x="41" y="-59" on="1"/>
        <pt x="53" y="-47" on="0"/>
        <pt x="53" y="-29" on="1"/>
        <pt x="58" y="-26" on="0"/>
        <pt x="60" y="-24" on="1"/>
        <pt x="68" y="-16" on="0"/>
        <pt x="68" y="-4" on="1"/>
        <pt x="54" y="10" on="0"/>
        <pt x="48" y="20" on="1"/>
        <pt x="28" y="53" on="0"/>
        <pt x="28" y="96" on="1"/>
        <pt x="28" y="145" on="0"/>
        <pt x="90" y="237" on="1"/>
        <pt x="138" y="308" on="0"/>
        <pt x="210" y="390" on="1"/>
        <pt x="251" y="436" on="0"/>
        <pt x="293" y="482" on="1"/>
        <pt x="304" y="496" on="0"/>
        <pt x="358" y="532" on="0"/>
        <pt x="388" y="552" on="1"/>
        <pt x="415" y="602" on="0"/>
        <pt x="428" y="632" on="1"/>
        <pt x="468" y="723" on="0"/>
        <pt x="468" y="777" on="1"/>
        <pt x="498" y="797" on="1"/>
        <pt x="508" y="797" on="0"/>
        <pt x="523" y="768" on="0"/>
        <pt x="523" y="742" on="1"/>
        <pt x="523" y="734" on="0"/>
        <pt x="525" y="733" on="1"/>
        <pt x="526" y="732" on="0"/>
        <pt x="527" y="732" on="1"/>
        <pt x="478" y="602" on="1"/>
        <pt x="505" y="601" on="0"/>
        <pt x="525" y="598" on="1"/>
        <pt x="599" y="584" on="0"/>
        <pt x="599" y="482" on="1"/>
      </contour>
      <contour>
        <pt x="268" y="335" on="1"/>
        <pt x="198" y="265" on="0"/>
        <pt x="159" y="200" on="1"/>
        <pt x="133" y="145" on="0"/>
        <pt x="108" y="91" on="1"/>
        <pt x="108" y="76" on="1"/>
        <pt x="123" y="76" on="1"/>
        <pt x="117" y="91" on="0"/>
        <pt x="136" y="115" on="1"/>
        <pt x="149" y="131" on="0"/>
        <pt x="163" y="141" on="1"/>
        <pt x="159" y="151" on="0"/>
        <pt x="180" y="182" on="1"/>
        <pt x="225" y="248" on="0"/>
      </contour>
    </TTGlyph>
    <TTGlyph name="m" xMin="8" yMin="-10" xMax="741" yMax="502">
      <contour>
        <pt x="204" y="316" on="1"/>
        <pt x="330" y="439" on="0"/>
        <pt x="358" y="466" on="1"/>
        <pt x="395" y="502" on="0"/>
        <pt x="430" y="502" on="1"/>
        <pt x="452" y="502" on="0"/>
        <pt x="454" y="456" on="0"/>
        <pt x="455" y="451" on="1"/>
        <pt x="458" y="433" on="0"/>
        <pt x="421" y="311" on="0"/>
        <pt x="379" y="206" on="1"/>
        <pt x="390" y="217" on="0"/>
        <pt x="401" y="229" on="1"/>
        <pt x="436" y="265" on="0"/>
        <pt x="473" y="300" on="1"/>
        <pt x="520" y="345" on="0"/>
        <pt x="600" y="416" on="1"/>
        <pt x="630" y="453" on="0"/>
        <pt x="678" y="497" on="0"/>
        <pt x="695" y="497" on="1"/>
        <pt x="704" y="497" on="0"/>
        <pt x="741" y="462" on="0"/>
        <pt x="741" y="446" on="1"/>
        <pt x="741" y="420" on="0"/>
        <pt x="655" y="184" on="0"/>
        <pt x="655" y="170" on="1"/>
        <pt x="655" y="164" on="0"/>
        <pt x="646" y="136" on="1"/>
        <pt x="614" y="36" on="0"/>
        <pt x="605" y="0" on="1"/>
        <pt x="604" y="-8" on="0"/>
        <pt x="596" y="-8" on="1"/>
        <pt x="585" y="-8" on="0"/>
        <pt x="560" y="23" on="0"/>
        <pt x="560" y="40" on="1"/>
        <pt x="566" y="64" on="0"/>
        <pt x="575" y="129" on="0"/>
        <pt x="575" y="170" on="1"/>
        <pt x="575" y="172" on="0"/>
        <pt x="601" y="248" on="1"/>
        <pt x="621" y="306" on="0"/>
        <pt x="630" y="341" on="1"/>
        <pt x="603" y="334" on="0"/>
        <pt x="535" y="257" on="1"/>
        <pt x="475" y="187" on="0"/>
        <pt x="415" y="118" on="1"/>
        <pt x="348" y="45" on="0"/>
        <pt x="324" y="45" on="1"/>
        <pt x="302" y="45" on="0"/>
        <pt x="289" y="78" on="0"/>
        <pt x="289" y="105" on="1"/>
        <pt x="289" y="139" on="0"/>
        <pt x="318" y="236" on="0"/>
        <pt x="334" y="286" on="1"/>
        <pt x="364" y="366" on="1"/>
        <pt x="332" y="357" on="0"/>
        <pt x="266" y="283" on="0"/>
        <pt x="254" y="271" on="1"/>
        <pt x="221" y="238" on="0"/>
        <pt x="192" y="207" on="1"/>
        <pt x="176" y="190" on="0"/>
        <pt x="159" y="170" on="1"/>
        <pt x="159" y="158" on="0"/>
        <pt x="129" y="134" on="0"/>
        <pt x="129" y="120" on="1"/>
        <pt x="111" y="76" on="0"/>
        <pt x="101" y="55" on="1"/>
        <pt x="70" y="-10" on="0"/>
        <pt x="53" y="-10" on="1"/>
        <pt x="37" y="-10" on="0"/>
        <pt x="8" y="12" on="0"/>
        <pt x="8" y="30" on="1"/>
        <pt x="8" y="33" on="0"/>
        <pt x="32" y="98" on="1"/>
        <pt x="60" y="174" on="0"/>
        <pt x="89" y="251" on="1"/>
        <pt x="115" y="317" on="0"/>
        <pt x="130" y="350" on="1"/>
        <pt x="176" y="449" on="0"/>
        <pt x="201" y="449" on="1"/>
        <pt x="206" y="449" on="0"/>
        <pt x="209" y="446" on="1"/>
        <pt x="222" y="434" on="0"/>
        <pt x="222" y="411" on="1"/>
        <pt x="222" y="396" on="0"/>
        <pt x="206" y="326" on="0"/>
      </contour>
    </TTGlyph>
    <TTGlyph name="n" xMin="3" yMin="-33" xMax="596" yMax="483">
      <contour>
        <pt x="593" y="397" on="1"/>
        <pt x="593" y="356" on="0"/>
        <pt x="567" y="234" on="0"/>
        <pt x="548" y="177" on="1"/>
        <pt x="524" y="90" on="0"/>
        <pt x="500" y="4" on="1"/>
        <pt x="486" y="-33" on="0"/>
        <pt x="463" y="-33" on="1"/>
        <pt x="454" y="-24" on="0"/>
        <pt x="450" y="-19" on="1"/>
        <pt x="435" y="-1" on="0"/>
        <pt x="432" y="22" on="0"/>
        <pt x="432" y="34" on="1"/>
        <pt x="432" y="70" on="0"/>
        <pt x="452" y="124" on="1"/>
        <pt x="503" y="262" on="0"/>
        <pt x="508" y="307" on="1"/>
        <pt x="518" y="402" on="1"/>
        <pt x="491" y="398" on="0"/>
        <pt x="394" y="338" on="1"/>
        <pt x="290" y="274" on="0"/>
        <pt x="263" y="237" on="1"/>
        <pt x="245" y="222" on="0"/>
        <pt x="226" y="202" on="1"/>
        <pt x="192" y="166" on="0"/>
        <pt x="148" y="112" on="1"/>
        <pt x="118" y="75" on="0"/>
        <pt x="88" y="31" on="1"/>
        <pt x="62" y="-8" on="0"/>
        <pt x="43" y="-8" on="1"/>
        <pt x="32" y="-8" on="0"/>
        <pt x="3" y="13" on="0"/>
        <pt x="3" y="22" on="1"/>
        <pt x="3" y="41" on="0"/>
        <pt x="118" y="267" on="0"/>
        <pt x="118" y="287" on="1"/>
        <pt x="118" y="294" on="0"/>
        <pt x="135" y="330" on="1"/>
        <pt x="145" y="352" on="0"/>
        <pt x="153" y="381" on="0"/>
        <pt x="164" y="381" on="1"/>
        <pt x="176" y="381" on="0"/>
        <pt x="198" y="343" on="0"/>
        <pt x="198" y="322" on="1"/>
        <pt x="193" y="277" on="1"/>
        <pt x="223" y="293" on="0"/>
        <pt x="294" y="347" on="1"/>
        <pt x="374" y="407" on="0"/>
        <pt x="414" y="431" on="1"/>
        <pt x="486" y="473" on="0"/>
        <pt x="548" y="482" on="1"/>
        <pt x="554" y="483" on="0"/>
        <pt x="564" y="483" on="1"/>
        <pt x="583" y="483" on="0"/>
        <pt x="596" y="466" on="0"/>
        <pt x="596" y="449" on="1"/>
        <pt x="596" y="438" on="0"/>
        <pt x="593" y="399" on="0"/>
      </contour>
    </TTGlyph>
    <TTGlyph name="nine" xMin="3" yMin="-184" xMax="629" yMax="797">
      <contour>
        <pt x="629" y="492" on="1"/>
        <pt x="619" y="475" on="0"/>
        <pt x="614" y="460" on="1"/>
        <pt x="599" y="413" on="0"/>
        <pt x="599" y="341" on="1"/>
        <pt x="599" y="328" on="0"/>
        <pt x="554" y="262" on="1"/>
        <pt x="480" y="153" on="0"/>
        <pt x="470" y="138" on="1"/>
        <pt x="424" y="66" on="0"/>
        <pt x="424" y="41" on="1"/>
        <pt x="405" y="36" on="0"/>
        <pt x="394" y="21" on="1"/>
        <pt x="376" y="-4" on="0"/>
        <pt x="359" y="-59" on="1"/>
        <pt x="350" y="-89" on="0"/>
        <pt x="344" y="-184" on="0"/>
        <pt x="294" y="-184" on="1"/>
        <pt x="278" y="-184" on="0"/>
        <pt x="254" y="-149" on="0"/>
        <pt x="254" y="-129" on="1"/>
        <pt x="254" y="-107" on="0"/>
        <pt x="292" y="-19" on="1"/>
        <pt x="340" y="93" on="0"/>
        <pt x="404" y="176" on="1"/>
        <pt x="404" y="196" on="1"/>
        <pt x="373" y="188" on="0"/>
        <pt x="311" y="162" on="1"/>
        <pt x="201" y="116" on="0"/>
        <pt x="123" y="116" on="1"/>
        <pt x="74" y="116" on="0"/>
        <pt x="3" y="181" on="0"/>
        <pt x="3" y="221" on="1"/>
        <pt x="3" y="271" on="1"/>
        <pt x="8" y="275" on="0"/>
        <pt x="13" y="279" on="1"/>
        <pt x="23" y="289" on="0"/>
        <pt x="23" y="331" on="1"/>
        <pt x="28" y="345" on="0"/>
        <pt x="34" y="360" on="1"/>
        <pt x="53" y="403" on="0"/>
        <pt x="84" y="451" on="1"/>
        <pt x="125" y="516" on="0"/>
        <pt x="270" y="698" on="0"/>
        <pt x="415" y="797" on="0"/>
        <pt x="479" y="797" on="1"/>
        <pt x="557" y="797" on="0"/>
        <pt x="598" y="709" on="1"/>
        <pt x="629" y="642" on="0"/>
        <pt x="629" y="562" on="1"/>
      </contour>
      <contour>
        <pt x="424" y="742" on="1"/>
        <pt x="427" y="748" on="0"/>
        <pt x="427" y="752" on="1"/>
        <pt x="427" y="756" on="0"/>
        <pt x="424" y="762" on="1"/>
      </contour>
      <contour>
        <pt x="569" y="482" on="1"/>
        <pt x="569" y="562" on="1"/>
        <pt x="569" y="609" on="0"/>
        <pt x="558" y="646" on="1"/>
        <pt x="536" y="722" on="0"/>
        <pt x="479" y="722" on="1"/>
        <pt x="445" y="722" on="0"/>
        <pt x="412" y="697" on="1"/>
        <pt x="375" y="663" on="0"/>
        <pt x="354" y="647" on="1"/>
        <pt x="339" y="635" on="0"/>
        <pt x="299" y="613" on="1"/>
        <pt x="292" y="609" on="0"/>
        <pt x="279" y="602" on="1"/>
        <pt x="276" y="590" on="0"/>
        <pt x="271" y="574" on="0"/>
        <pt x="229" y="532" on="1"/>
        <pt x="198" y="501" on="0"/>
        <pt x="146" y="401" on="1"/>
        <pt x="88" y="290" on="0"/>
        <pt x="88" y="241" on="1"/>
        <pt x="88" y="216" on="0"/>
        <pt x="126" y="191" on="0"/>
        <pt x="153" y="191" on="1"/>
        <pt x="197" y="191" on="0"/>
        <pt x="263" y="218" on="1"/>
        <pt x="340" y="249" on="0"/>
        <pt x="468" y="334" on="0"/>
        <pt x="525" y="412" on="1"/>
        <pt x="543" y="438" on="0"/>
      </contour>
      <contour>
        <pt x="349" y="-24" on="1"/>
        <pt x="339" y="-29" on="1"/>
      </contour>
    </TTGlyph>
    <TTGlyph name="o" xMin="4" yMin="-10" xMax="399" yMax="473">
      <contour>
        <pt x="355" y="236" on="1"/>
        <pt x="332" y="178" on="0"/>
        <pt x="330" y="174" on="1"/>
        <pt x="314" y="146" on="0"/>
        <pt x="264" y="90" on="1"/>
        <pt x="234" y="60" on="0"/>
        <pt x="168" y="22" on="1"/>
        <pt x="112" y="-10" on="0"/>
        <pt x="79" y="-10" on="1"/>
        <pt x="62" y="-10" on="0"/>
        <pt x="37" y="12" on="1"/>
        <pt x="4" y="41" on="0"/>
        <pt x="4" y="80" on="1"/>
        <pt x="4" y="158" on="0"/>
        <pt x="47" y="240" on="1"/>
        <pt x="69" y="282" on="0"/>
        <pt x="114" y="341" on="1"/>
        <pt x="168" y="410" on="0"/>
        <pt x="256" y="448" on="1"/>
        <pt x="285" y="460" on="0"/>
        <pt x="335" y="472" on="1"/>
        <pt x="339" y="473" on="0"/>
        <pt x="346" y="473" on="1"/>
        <pt x="373" y="473" on="0"/>
        <pt x="399" y="396" on="0"/>
        <pt x="399" y="340" on="1"/>
        <pt x="399" y="266" on="0"/>
        <pt x="382" y="230" on="1"/>
        <pt x="358" y="230" on="0"/>
        <pt x="356" y="238" on="1"/>
        <pt x="355" y="237" on="0"/>
      </contour>
      <contour>
        <pt x="189" y="140" on="1"/>
        <pt x="250" y="189" on="0"/>
        <pt x="294" y="245" on="0"/>
        <pt x="320" y="306" on="1"/>
        <pt x="323" y="311" on="0"/>
        <pt x="335" y="349" on="0"/>
        <pt x="335" y="363" on="1"/>
        <pt x="335" y="372" on="0"/>
        <pt x="331" y="386" on="0"/>
        <pt x="316" y="394" on="0"/>
        <pt x="310" y="394" on="1"/>
        <pt x="295" y="394" on="0"/>
        <pt x="273" y="378" on="1"/>
        <pt x="266" y="373" on="0"/>
        <pt x="254" y="361" on="1"/>
        <pt x="250" y="358" on="0"/>
        <pt x="232" y="342" on="1"/>
        <pt x="209" y="321" on="0"/>
        <pt x="174" y="286" on="1"/>
        <pt x="144" y="256" on="0"/>
        <pt x="89" y="119" on="0"/>
        <pt x="89" y="90" on="1"/>
        <pt x="100" y="92" on="0"/>
        <pt x="107" y="94" on="1"/>
        <pt x="149" y="108" on="0"/>
      </contour>
    </TTGlyph>
    <TTGlyph name="one" xMin="8" yMin="-9" xMax="263" yMax="712">
      <contour>
        <pt x="263" y="667" on="1"/>
        <pt x="263" y="618" on="0"/>
        <pt x="186" y="387" on="0"/>
        <pt x="149" y="279" on="1"/>
        <pt x="108" y="157" on="0"/>
        <pt x="108" y="116" on="1"/>
        <pt x="101" y="74" on="0"/>
        <pt x="95" y="54" on="1"/>
        <pt x="74" y="-9" on="0"/>
        <pt x="38" y="-9" on="1"/>
        <pt x="21" y="-9" on="0"/>
        <pt x="8" y="4" on="0"/>
        <pt x="8" y="26" on="1"/>
        <pt x="8" y="72" on="0"/>
        <pt x="48" y="211" on="0"/>
        <pt x="68" y="242" on="1"/>
        <pt x="71" y="259" on="0"/>
        <pt x="106" y="371" on="0"/>
        <pt x="143" y="467" on="1"/>
        <pt x="177" y="555" on="0"/>
        <pt x="193" y="660" on="1"/>
        <pt x="201" y="712" on="0"/>
        <pt x="228" y="712" on="1"/>
        <pt x="238" y="712" on="0"/>
        <pt x="263" y="685" on="0"/>
      </contour>
    </TTGlyph>
    <TTGlyph name="p" xMin="13" yMin="-202" xMax="647" yMax="667">
      <contour>
        <pt x="293" y="332" on="1"/>
        <pt x="266" y="271" on="0"/>
        <pt x="250" y="236" on="1"/>
        <pt x="210" y="149" on="0"/>
        <pt x="178" y="82" on="1"/>
        <pt x="234" y="82" on="0"/>
        <pt x="400" y="205" on="0"/>
        <pt x="433" y="262" on="1"/>
        <pt x="480" y="332" on="0"/>
        <pt x="527" y="402" on="1"/>
        <pt x="568" y="475" on="0"/>
        <pt x="568" y="517" on="1"/>
        <pt x="568" y="564" on="0"/>
        <pt x="541" y="580" on="1"/>
        <pt x="529" y="587" on="0"/>
        <pt x="488" y="592" on="1"/>
        <pt x="482" y="593" on="0"/>
        <pt x="466" y="593" on="0"/>
        <pt x="462" y="593" on="1"/>
        <pt x="410" y="593" on="0"/>
        <pt x="357" y="572" on="1"/>
        <pt x="294" y="547" on="0"/>
        <pt x="228" y="492" on="1"/>
        <pt x="213" y="480" on="0"/>
        <pt x="189" y="466" on="0"/>
        <pt x="175" y="466" on="1"/>
        <pt x="167" y="466" on="0"/>
        <pt x="163" y="467" on="1"/>
        <pt x="189" y="546" on="0"/>
        <pt x="391" y="667" on="0"/>
        <pt x="508" y="667" on="1"/>
        <pt x="570" y="667" on="0"/>
        <pt x="611" y="613" on="1"/>
        <pt x="647" y="566" on="0"/>
        <pt x="647" y="512" on="1"/>
        <pt x="647" y="406" on="0"/>
        <pt x="493" y="202" on="1"/>
        <pt x="456" y="154" on="0"/>
        <pt x="373" y="93" on="1"/>
        <pt x="270" y="18" on="0"/>
        <pt x="208" y="18" on="1"/>
        <pt x="202" y="18" on="0"/>
        <pt x="198" y="22" on="1"/>
        <pt x="188" y="33" on="0"/>
        <pt x="163" y="33" on="1"/>
        <pt x="149" y="33" on="0"/>
        <pt x="73" y="-176" on="0"/>
        <pt x="73" y="-202" on="1"/>
        <pt x="53" y="-197" on="0"/>
        <pt x="43" y="-193" on="1"/>
        <pt x="13" y="-180" on="0"/>
        <pt x="13" y="-157" on="1"/>
        <pt x="13" y="-100" on="0"/>
        <pt x="128" y="152" on="1"/>
        <pt x="144" y="186" on="0"/>
        <pt x="185" y="285" on="1"/>
        <pt x="202" y="326" on="0"/>
        <pt x="238" y="397" on="1"/>
        <pt x="241" y="416" on="0"/>
        <pt x="245" y="434" on="1"/>
        <pt x="254" y="469" on="0"/>
        <pt x="273" y="482" on="1"/>
        <pt x="282" y="488" on="0"/>
        <pt x="289" y="488" on="1"/>
        <pt x="301" y="488" on="0"/>
        <pt x="313" y="457" on="0"/>
        <pt x="313" y="431" on="1"/>
        <pt x="313" y="378" on="0"/>
      </contour>
    </TTGlyph>
    <TTGlyph name="parenleft" xMin="8" yMin="-210" xMax="554" yMax="802">
      <contour>
        <pt x="459" y="611" on="1"/>
        <pt x="451" y="600" on="0"/>
        <pt x="444" y="589" on="1"/>
        <pt x="441" y="586" on="0"/>
        <pt x="424" y="579" on="1"/>
        <pt x="437" y="587" on="0"/>
        <pt x="440" y="593" on="1"/>
        <pt x="442" y="597" on="0"/>
        <pt x="444" y="611" on="1"/>
      </contour>
      <contour>
        <pt x="524" y="757" on="1"/>
        <pt x="524" y="736" on="0"/>
        <pt x="487" y="667" on="1"/>
        <pt x="481" y="655" on="0"/>
        <pt x="469" y="636" on="1"/>
        <pt x="469" y="712" on="1"/>
        <pt x="464" y="711" on="0"/>
        <pt x="456" y="711" on="1"/>
        <pt x="428" y="711" on="0"/>
        <pt x="408" y="689" on="1"/>
        <pt x="370" y="648" on="0"/>
        <pt x="264" y="481" on="1"/>
        <pt x="223" y="417" on="0"/>
        <pt x="206" y="388" on="1"/>
        <pt x="155" y="302" on="0"/>
        <pt x="125" y="227" on="1"/>
        <pt x="83" y="124" on="0"/>
        <pt x="83" y="55" on="1"/>
        <pt x="83" y="-48" on="0"/>
        <pt x="144" y="-102" on="1"/>
        <pt x="199" y="-150" on="0"/>
        <pt x="289" y="-150" on="1"/>
        <pt x="346" y="-150" on="0"/>
        <pt x="409" y="-136" on="1"/>
        <pt x="466" y="-120" on="0"/>
        <pt x="524" y="-105" on="1"/>
        <pt x="554" y="-105" on="1"/>
        <pt x="554" y="-130" on="1"/>
        <pt x="506" y="-142" on="0"/>
        <pt x="404" y="-174" on="0"/>
        <pt x="369" y="-190" on="1"/>
        <pt x="345" y="-197" on="0"/>
        <pt x="332" y="-200" on="1"/>
        <pt x="292" y="-210" on="0"/>
        <pt x="279" y="-210" on="1"/>
        <pt x="158" y="-210" on="0"/>
        <pt x="8" y="-60" on="0"/>
        <pt x="8" y="55" on="1"/>
        <pt x="8" y="129" on="0"/>
        <pt x="154" y="465" on="0"/>
        <pt x="219" y="546" on="1"/>
        <pt x="264" y="612" on="0"/>
        <pt x="307" y="672" on="0"/>
        <pt x="354" y="727" on="1"/>
        <pt x="369" y="745" on="0"/>
        <pt x="413" y="772" on="1"/>
        <pt x="461" y="802" on="0"/>
        <pt x="484" y="802" on="1"/>
        <pt x="503" y="802" on="0"/>
        <pt x="524" y="772" on="0"/>
      </contour>
    </TTGlyph>
    <TTGlyph name="parenright" xMin="8" yMin="-196" xMax="517" yMax="787">
      <contour>
        <pt x="515" y="415" on="1"/>
        <pt x="512" y="378" on="0"/>
        <pt x="506" y="322" on="0"/>
        <pt x="494" y="285" on="1"/>
        <pt x="491" y="273" on="0"/>
        <pt x="490" y="265" on="1"/>
        <pt x="479" y="218" on="0"/>
        <pt x="464" y="205" on="1"/>
        <pt x="452" y="158" on="0"/>
        <pt x="410" y="94" on="1"/>
        <pt x="365" y="26" on="0"/>
        <pt x="279" y="-51" on="1"/>
        <pt x="262" y="-70" on="0"/>
        <pt x="246" y="-89" on="1"/>
        <pt x="208" y="-126" on="0"/>
        <pt x="179" y="-126" on="1"/>
        <pt x="149" y="-150" on="0"/>
        <pt x="130" y="-161" on="1"/>
        <pt x="71" y="-196" on="0"/>
        <pt x="23" y="-196" on="1"/>
        <pt x="8" y="-196" on="1"/>
        <pt x="8" y="-181" on="1"/>
        <pt x="18" y="-165" on="0"/>
        <pt x="71" y="-139" on="1"/>
        <pt x="89" y="-131" on="0"/>
        <pt x="124" y="-116" on="1"/>
        <pt x="135" y="-108" on="0"/>
        <pt x="160" y="-85" on="1"/>
        <pt x="238" y="-14" on="0"/>
        <pt x="299" y="54" on="1"/>
        <pt x="368" y="130" on="0"/>
        <pt x="395" y="194" on="1"/>
        <pt x="399" y="205" on="0"/>
        <pt x="404" y="220" on="1"/>
        <pt x="404" y="224" on="0"/>
        <pt x="414" y="238" on="1"/>
        <pt x="419" y="245" on="0"/>
        <pt x="419" y="250" on="1"/>
        <pt x="419" y="258" on="0"/>
        <pt x="454" y="409" on="0"/>
        <pt x="454" y="440" on="1"/>
        <pt x="454" y="448" on="0"/>
        <pt x="454" y="451" on="1"/>
        <pt x="450" y="489" on="0"/>
        <pt x="427" y="549" on="0"/>
        <pt x="404" y="586" on="1"/>
        <pt x="398" y="596" on="0"/>
        <pt x="376" y="643" on="1"/>
        <pt x="344" y="711" on="0"/>
        <pt x="314" y="711" on="1"/>
        <pt x="312" y="711" on="0"/>
        <pt x="297" y="696" on="0"/>
        <pt x="289" y="696" on="1"/>
        <pt x="249" y="737" on="1"/>
        <pt x="254" y="754" on="0"/>
        <pt x="258" y="762" on="1"/>
        <pt x="270" y="787" on="0"/>
        <pt x="284" y="787" on="1"/>
        <pt x="384" y="787" on="0"/>
        <pt x="505" y="496" on="1"/>
        <pt x="517" y="467" on="0"/>
        <pt x="517" y="443" on="1"/>
        <pt x="517" y="437" on="0"/>
      </contour>
    </TTGlyph>
    <TTGlyph name="percent" xMin="-182" yMin="-310" xMax="700" yMax="787">
      <contour>
        <pt x="664" y="762" on="1"/>
        <pt x="664" y="743" on="0"/>
        <pt x="629" y="691" on="1"/>
        <pt x="529" y="542" on="0"/>
        <pt x="519" y="526" on="1"/>
        <pt x="463" y="438" on="0"/>
        <pt x="423" y="386" on="1"/>
        <pt x="365" y="311" on="0"/>
        <pt x="353" y="282" on="0"/>
        <pt x="280" y="181" on="1"/>
        <pt x="192" y="59" on="0"/>
        <pt x="154" y="-2" on="1"/>
        <pt x="88" y="-109" on="0"/>
        <pt x="88" y="-155" on="1"/>
        <pt x="73" y="-185" on="1"/>
        <pt x="59" y="-182" on="0"/>
        <pt x="28" y="-149" on="0"/>
        <pt x="28" y="-135" on="1"/>
        <pt x="28" y="-125" on="0"/>
        <pt x="36" y="-101" on="1"/>
        <pt x="62" y="-21" on="0"/>
        <pt x="149" y="115" on="1"/>
        <pt x="218" y="224" on="0"/>
        <pt x="257" y="278" on="1"/>
        <pt x="285" y="317" on="0"/>
        <pt x="319" y="351" on="1"/>
        <pt x="368" y="414" on="0"/>
        <pt x="392" y="447" on="1"/>
        <pt x="468" y="548" on="0"/>
        <pt x="474" y="561" on="1"/>
        <pt x="488" y="588" on="0"/>
        <pt x="547" y="676" on="1"/>
        <pt x="622" y="787" on="0"/>
        <pt x="644" y="787" on="1"/>
        <pt x="650" y="787" on="0"/>
        <pt x="664" y="769" on="0"/>
      </contour>
      <contour>
        <pt x="700" y="281" on="1"/>
        <pt x="700" y="254" on="0"/>
        <pt x="628" y="149" on="0"/>
        <pt x="599" y="130" on="1"/>
        <pt x="545" y="82" on="0"/>
        <pt x="492" y="35" on="1"/>
        <pt x="430" y="-5" on="0"/>
        <pt x="369" y="-5" on="1"/>
        <pt x="328" y="-5" on="0"/>
        <pt x="313" y="6" on="1"/>
        <pt x="289" y="23" on="0"/>
        <pt x="289" y="75" on="1"/>
        <pt x="289" y="171" on="0"/>
        <pt x="393" y="261" on="1"/>
        <pt x="491" y="346" on="0"/>
        <pt x="574" y="346" on="1"/>
        <pt x="596" y="346" on="0"/>
        <pt x="619" y="317" on="0"/>
        <pt x="619" y="291" on="1"/>
        <pt x="619" y="285" on="0"/>
        <pt x="594" y="232" on="0"/>
        <pt x="586" y="221" on="1"/>
        <pt x="582" y="236" on="0"/>
        <pt x="582" y="254" on="1"/>
        <pt x="582" y="262" on="0"/>
        <pt x="583" y="270" on="1"/>
        <pt x="583" y="272" on="0"/>
        <pt x="584" y="276" on="1"/>
        <pt x="585" y="284" on="0"/>
        <pt x="571" y="284" on="1"/>
        <pt x="521" y="284" on="0"/>
        <pt x="453" y="232" on="1"/>
        <pt x="368" y="167" on="0"/>
        <pt x="354" y="75" on="1"/>
        <pt x="353" y="65" on="0"/>
        <pt x="357" y="61" on="1"/>
        <pt x="361" y="57" on="0"/>
        <pt x="369" y="57" on="1"/>
        <pt x="375" y="57" on="0"/>
        <pt x="379" y="58" on="1"/>
        <pt x="380" y="58" on="0"/>
        <pt x="384" y="60" on="1"/>
        <pt x="547" y="142" on="0"/>
        <pt x="617" y="230" on="1"/>
        <pt x="653" y="275" on="0"/>
        <pt x="690" y="321" on="1"/>
        <pt x="695" y="326" on="0"/>
        <pt x="697" y="323" on="1"/>
        <pt x="700" y="318" on="0"/>
      </contour>
      <contour>
        <pt x="-182" y="-310" on="1"/>
        <pt x="-182" y="-280" on="1"/>
        <pt x="-181" y="-288" on="0"/>
        <pt x="-180" y="-296" on="1"/>
        <pt x="-181" y="-303" on="0"/>
      </contour>
      <contour>
        <pt x="230" y="635" on="1"/>
        <pt x="239" y="635" on="0"/>
        <pt x="239" y="621" on="1"/>
        <pt x="239" y="601" on="0"/>
        <pt x="225" y="585" on="1"/>
        <pt x="215" y="574" on="0"/>
        <pt x="199" y="574" on="1"/>
        <pt x="184" y="575" on="0"/>
        <pt x="175" y="575" on="1"/>
        <pt x="140" y="575" on="0"/>
        <pt x="107" y="503" on="1"/>
        <pt x="80" y="443" on="0"/>
        <pt x="75" y="390" on="1"/>
        <pt x="115" y="390" on="1"/>
        <pt x="178" y="390" on="0"/>
        <pt x="280" y="521" on="0"/>
        <pt x="280" y="595" on="1"/>
        <pt x="265" y="621" on="0"/>
        <pt x="259" y="632" on="1"/>
        <pt x="259" y="638" on="0"/>
        <pt x="260" y="645" on="1"/>
        <pt x="294" y="645" on="0"/>
        <pt x="330" y="581" on="0"/>
        <pt x="330" y="540" on="1"/>
        <pt x="330" y="449" on="0"/>
        <pt x="188" y="315" on="0"/>
        <pt x="95" y="315" on="1"/>
        <pt x="50" y="315" on="0"/>
        <pt x="10" y="368" on="0"/>
        <pt x="10" y="415" on="1"/>
        <pt x="10" y="491" on="0"/>
        <pt x="71" y="570" on="1"/>
        <pt x="137" y="655" on="0"/>
        <pt x="210" y="655" on="1"/>
        <pt x="215" y="655" on="0"/>
        <pt x="225" y="635" on="0"/>
      </contour>
    </TTGlyph>
    <TTGlyph name="period" xMin="4" yMin="6" xMax="94" yMax="97">
      <contour>
        <pt x="94" y="41" on="1"/>
        <pt x="94" y="21" on="0"/>
        <pt x="69" y="6" on="0"/>
        <pt x="44" y="6" on="1"/>
        <pt x="33" y="6" on="0"/>
        <pt x="21" y="17" on="1"/>
        <pt x="4" y="33" on="0"/>
        <pt x="4" y="56" on="1"/>
        <pt x="4" y="74" on="0"/>
        <pt x="39" y="97" on="0"/>
        <pt x="49" y="97" on="1"/>
        <pt x="66" y="97" on="0"/>
        <pt x="94" y="65" on="0"/>
      </contour>
    </TTGlyph>
    <TTGlyph name="plus" xMin="-2" yMin="-9" xMax="589" yMax="507">
      <contour>
        <pt x="539" y="301" on="1"/>
        <pt x="384" y="266" on="1"/>
        <pt x="297" y="247" on="0"/>
        <pt x="288" y="242" on="1"/>
        <pt x="264" y="229" on="0"/>
        <pt x="264" y="206" on="1"/>
        <pt x="238" y="134" on="0"/>
        <pt x="224" y="99" on="1"/>
        <pt x="179" y="-9" on="0"/>
        <pt x="158" y="-9" on="1"/>
        <pt x="148" y="1" on="0"/>
        <pt x="143" y="6" on="1"/>
        <pt x="128" y="23" on="0"/>
        <pt x="128" y="36" on="1"/>
        <pt x="128" y="44" on="0"/>
        <pt x="179" y="187" on="0"/>
        <pt x="179" y="191" on="1"/>
        <pt x="179" y="203" on="0"/>
        <pt x="159" y="203" on="1"/>
        <pt x="141" y="203" on="0"/>
        <pt x="70" y="182" on="0"/>
        <pt x="33" y="171" on="1"/>
        <pt x="24" y="171" on="0"/>
        <pt x="-2" y="195" on="0"/>
        <pt x="-2" y="211" on="1"/>
        <pt x="-2" y="232" on="0"/>
        <pt x="31" y="246" on="0"/>
        <pt x="56" y="246" on="1"/>
        <pt x="64" y="246" on="0"/>
        <pt x="68" y="246" on="1"/>
        <pt x="102" y="257" on="0"/>
        <pt x="121" y="265" on="1"/>
        <pt x="178" y="289" on="0"/>
        <pt x="204" y="312" on="1"/>
        <pt x="218" y="346" on="0"/>
        <pt x="224" y="365" on="1"/>
        <pt x="244" y="425" on="0"/>
        <pt x="244" y="457" on="1"/>
        <pt x="244" y="468" on="0"/>
        <pt x="252" y="484" on="1"/>
        <pt x="264" y="507" on="0"/>
        <pt x="284" y="507" on="1"/>
        <pt x="299" y="507" on="0"/>
        <pt x="314" y="480" on="0"/>
        <pt x="314" y="462" on="1"/>
        <pt x="279" y="316" on="1"/>
        <pt x="315" y="328" on="0"/>
        <pt x="335" y="334" on="1"/>
        <pt x="397" y="352" on="0"/>
        <pt x="424" y="352" on="1"/>
        <pt x="449" y="352" on="0"/>
        <pt x="510" y="347" on="0"/>
        <pt x="519" y="347" on="1"/>
        <pt x="528" y="351" on="0"/>
        <pt x="533" y="352" on="1"/>
        <pt x="551" y="358" on="0"/>
        <pt x="562" y="358" on="1"/>
        <pt x="574" y="358" on="0"/>
        <pt x="589" y="347" on="0"/>
        <pt x="589" y="332" on="1"/>
        <pt x="589" y="315" on="0"/>
        <pt x="571" y="301" on="0"/>
      </contour>
    </TTGlyph>
    <TTGlyph name="q" xMin="19" yMin="-209" xMax="444" yMax="747">
      <contour>
        <pt x="434" y="562" on="1"/>
        <pt x="444" y="562" on="0"/>
        <pt x="444" y="530" on="1"/>
        <pt x="444" y="499" on="0"/>
        <pt x="438" y="461" on="1"/>
        <pt x="437" y="454" on="0"/>
        <pt x="434" y="442" on="1"/>
        <pt x="433" y="442" on="0"/>
        <pt x="391" y="374" on="1"/>
        <pt x="345" y="299" on="0"/>
        <pt x="299" y="218" on="1"/>
        <pt x="240" y="113" on="0"/>
        <pt x="214" y="51" on="1"/>
        <pt x="182" y="-5" on="0"/>
        <pt x="149" y="-79" on="0"/>
        <pt x="149" y="-104" on="1"/>
        <pt x="149" y="-122" on="0"/>
        <pt x="136" y="-160" on="1"/>
        <pt x="119" y="-209" on="0"/>
        <pt x="99" y="-209" on="1"/>
        <pt x="82" y="-209" on="0"/>
        <pt x="64" y="-182" on="0"/>
        <pt x="64" y="-164" on="1"/>
        <pt x="64" y="-89" on="1"/>
        <pt x="64" y="-77" on="0"/>
        <pt x="89" y="-29" on="1"/>
        <pt x="121" y="31" on="0"/>
        <pt x="154" y="91" on="1"/>
        <pt x="189" y="172" on="0"/>
        <pt x="214" y="224" on="1"/>
        <pt x="230" y="258" on="0"/>
        <pt x="249" y="292" on="1"/>
        <pt x="228" y="292" on="0"/>
        <pt x="170" y="267" on="0"/>
        <pt x="144" y="267" on="1"/>
        <pt x="77" y="267" on="0"/>
        <pt x="45" y="315" on="1"/>
        <pt x="19" y="355" on="0"/>
        <pt x="19" y="422" on="1"/>
        <pt x="19" y="507" on="0"/>
        <pt x="111" y="623" on="1"/>
        <pt x="210" y="747" on="0"/>
        <pt x="299" y="747" on="1"/>
        <pt x="325" y="747" on="0"/>
        <pt x="374" y="690" on="0"/>
        <pt x="374" y="667" on="1"/>
        <pt x="394" y="612" on="1"/>
        <pt x="394" y="562" on="0"/>
        <pt x="338" y="511" on="1"/>
        <pt x="308" y="489" on="0"/>
        <pt x="279" y="467" on="1"/>
        <pt x="264" y="467" on="1"/>
        <pt x="269" y="480" on="0"/>
        <pt x="304" y="508" on="1"/>
        <pt x="329" y="528" on="0"/>
        <pt x="329" y="587" on="1"/>
        <pt x="329" y="618" on="0"/>
        <pt x="326" y="634" on="1"/>
        <pt x="318" y="677" on="0"/>
        <pt x="291" y="677" on="1"/>
        <pt x="229" y="677" on="0"/>
        <pt x="156" y="567" on="1"/>
        <pt x="87" y="463" on="0"/>
        <pt x="87" y="393" on="1"/>
        <pt x="87" y="373" on="0"/>
        <pt x="102" y="352" on="0"/>
        <pt x="119" y="352" on="1"/>
        <pt x="199" y="352" on="0"/>
        <pt x="281" y="418" on="1"/>
        <pt x="357" y="490" on="0"/>
      </contour>
    </TTGlyph>
    <TTGlyph name="question" xMin="8" yMin="-139" xMax="519" yMax="797">
      <contour>
        <pt x="304" y="351" on="1"/>
        <pt x="201" y="279" on="0"/>
        <pt x="145" y="216" on="1"/>
        <pt x="99" y="163" on="0"/>
        <pt x="53" y="111" on="1"/>
        <pt x="41" y="130" on="0"/>
        <pt x="41" y="168" on="1"/>
        <pt x="41" y="194" on="0"/>
        <pt x="48" y="216" on="1"/>
        <pt x="61" y="256" on="0"/>
        <pt x="198" y="369" on="0"/>
        <pt x="267" y="424" on="1"/>
        <pt x="351" y="492" on="0"/>
        <pt x="384" y="541" on="1"/>
        <pt x="407" y="574" on="0"/>
        <pt x="449" y="661" on="0"/>
        <pt x="449" y="672" on="1"/>
        <pt x="449" y="699" on="0"/>
        <pt x="423" y="722" on="0"/>
        <pt x="384" y="722" on="1"/>
        <pt x="325" y="722" on="0"/>
        <pt x="136" y="626" on="0"/>
        <pt x="43" y="576" on="1"/>
        <pt x="28" y="576" on="0"/>
        <pt x="8" y="616" on="0"/>
        <pt x="8" y="627" on="1"/>
        <pt x="8" y="634" on="0"/>
        <pt x="47" y="659" on="1"/>
        <pt x="101" y="694" on="0"/>
        <pt x="204" y="742" on="1"/>
        <pt x="253" y="764" on="0"/>
        <pt x="306" y="779" on="1"/>
        <pt x="370" y="797" on="0"/>
        <pt x="419" y="797" on="1"/>
        <pt x="450" y="797" on="0"/>
        <pt x="480" y="766" on="1"/>
        <pt x="519" y="726" on="0"/>
        <pt x="519" y="662" on="1"/>
        <pt x="519" y="597" on="0"/>
        <pt x="464" y="517" on="1"/>
        <pt x="425" y="460" on="0"/>
        <pt x="360" y="399" on="1"/>
        <pt x="309" y="351" on="0"/>
      </contour>
      <contour>
        <pt x="113" y="-99" on="1"/>
        <pt x="113" y="-113" on="0"/>
        <pt x="77" y="-139" on="0"/>
        <pt x="63" y="-139" on="1"/>
        <pt x="45" y="-139" on="0"/>
        <pt x="32" y="-114" on="1"/>
        <pt x="28" y="-106" on="0"/>
        <pt x="23" y="-89" on="1"/>
        <pt x="23" y="-75" on="0"/>
        <pt x="54" y="-49" on="0"/>
        <pt x="68" y="-49" on="1"/>
        <pt x="82" y="-49" on="0"/>
        <pt x="113" y="-82" on="0"/>
      </contour>
    </TTGlyph>
    <TTGlyph name="quotedbl" xMin="9" yMin="420" xMax="440" yMax="801">
      <contour>
        <pt x="440" y="756" on="1"/>
        <pt x="215" y="420" on="1"/>
        <pt x="203" y="425" on="0"/>
        <pt x="197" y="429" on="1"/>
        <pt x="184" y="437" on="0"/>
        <pt x="184" y="445" on="1"/>
        <pt x="196" y="482" on="0"/>
        <pt x="206" y="506" on="1"/>
        <pt x="235" y="576" on="0"/>
        <pt x="275" y="631" on="1"/>
        <pt x="311" y="697" on="0"/>
        <pt x="333" y="733" on="1"/>
        <pt x="375" y="801" on="0"/>
        <pt x="410" y="801" on="1"/>
        <pt x="425" y="801" on="0"/>
      </contour>
      <contour>
        <pt x="225" y="746" on="1"/>
        <pt x="225" y="733" on="0"/>
        <pt x="197" y="688" on="1"/>
        <pt x="163" y="637" on="0"/>
        <pt x="129" y="586" on="1"/>
        <pt x="107" y="538" on="0"/>
        <pt x="83" y="499" on="1"/>
        <pt x="51" y="446" on="0"/>
        <pt x="26" y="430" on="1"/>
        <pt x="9" y="447" on="0"/>
        <pt x="9" y="453" on="1"/>
        <pt x="9" y="462" on="0"/>
        <pt x="9" y="470" on="1"/>
        <pt x="27" y="518" on="0"/>
        <pt x="37" y="543" on="1"/>
        <pt x="68" y="620" on="0"/>
        <pt x="98" y="659" on="0"/>
        <pt x="134" y="740" on="1"/>
        <pt x="157" y="791" on="0"/>
        <pt x="190" y="791" on="1"/>
        <pt x="197" y="791" on="0"/>
        <pt x="225" y="754" on="0"/>
      </contour>
    </TTGlyph>
    <TTGlyph name="quotedblleft" xMin="13" yMin="354" xMax="469" yMax="792">
      <contour>
        <pt x="288" y="742" on="1"/>
        <pt x="282" y="742" on="0"/>
        <pt x="233" y="711" on="1"/>
        <pt x="168" y="670" on="0"/>
        <pt x="129" y="626" on="1"/>
        <pt x="73" y="563" on="0"/>
        <pt x="73" y="502" on="1"/>
        <pt x="73" y="482" on="0"/>
        <pt x="107" y="417" on="0"/>
        <pt x="125" y="383" on="1"/>
        <pt x="125" y="380" on="0"/>
        <pt x="123" y="379" on="1"/>
        <pt x="121" y="378" on="0"/>
        <pt x="113" y="381" on="1"/>
        <pt x="63" y="399" on="0"/>
        <pt x="13" y="475" on="0"/>
        <pt x="13" y="532" on="1"/>
        <pt x="13" y="592" on="0"/>
        <pt x="89" y="686" on="1"/>
        <pt x="174" y="792" on="0"/>
        <pt x="258" y="792" on="1"/>
        <pt x="273" y="792" on="0"/>
        <pt x="292" y="778" on="0"/>
        <pt x="292" y="761" on="1"/>
        <pt x="292" y="758" on="0"/>
        <pt x="291" y="753" on="1"/>
        <pt x="289" y="745" on="0"/>
      </contour>
      <contour>
        <pt x="469" y="692" on="1"/>
        <pt x="469" y="667" on="0"/>
        <pt x="333" y="616" on="0"/>
        <pt x="323" y="602" on="1"/>
        <pt x="285" y="562" on="0"/>
        <pt x="270" y="544" on="1"/>
        <pt x="243" y="512" on="0"/>
        <pt x="243" y="467" on="1"/>
        <pt x="243" y="410" on="0"/>
        <pt x="267" y="390" on="1"/>
        <pt x="302" y="372" on="0"/>
        <pt x="323" y="356" on="1"/>
        <pt x="314" y="355" on="0"/>
        <pt x="295" y="354" on="0"/>
        <pt x="291" y="354" on="1"/>
        <pt x="225" y="354" on="0"/>
        <pt x="197" y="395" on="1"/>
        <pt x="173" y="430" on="0"/>
        <pt x="173" y="502" on="1"/>
        <pt x="173" y="553" on="0"/>
        <pt x="361" y="737" on="0"/>
        <pt x="418" y="737" on="1"/>
        <pt x="442" y="737" on="0"/>
        <pt x="469" y="712" on="0"/>
      </contour>
    </TTGlyph>
    <TTGlyph name="quotedblright" xMin="-4" yMin="364" xMax="334" yMax="791">
      <contour>
        <pt x="184" y="566" on="1"/>
        <pt x="172" y="521" on="0"/>
        <pt x="162" y="498" on="1"/>
        <pt x="130" y="426" on="0"/>
        <pt x="19" y="391" on="0"/>
        <pt x="4" y="391" on="1"/>
        <pt x="-4" y="391" on="0"/>
        <pt x="-4" y="396" on="1"/>
        <pt x="46" y="448" on="0"/>
        <pt x="83" y="506" on="1"/>
        <pt x="124" y="570" on="0"/>
        <pt x="124" y="629" on="1"/>
        <pt x="124" y="670" on="0"/>
        <pt x="80" y="707" on="1"/>
        <pt x="28" y="751" on="0"/>
        <pt x="24" y="761" on="1"/>
        <pt x="19" y="773" on="0"/>
        <pt x="41" y="783" on="1"/>
        <pt x="48" y="786" on="0"/>
        <pt x="64" y="791" on="1"/>
        <pt x="113" y="791" on="0"/>
        <pt x="153" y="727" on="1"/>
        <pt x="184" y="678" on="0"/>
        <pt x="184" y="656" on="1"/>
      </contour>
      <contour>
        <pt x="334" y="551" on="1"/>
        <pt x="334" y="487" on="0"/>
        <pt x="297" y="433" on="1"/>
        <pt x="256" y="374" on="0"/>
        <pt x="194" y="365" on="1"/>
        <pt x="190" y="364" on="0"/>
        <pt x="185" y="364" on="1"/>
        <pt x="180" y="364" on="0"/>
        <pt x="178" y="364" on="1"/>
        <pt x="167" y="364" on="0"/>
        <pt x="167" y="370" on="1"/>
        <pt x="207" y="416" on="0"/>
        <pt x="236" y="468" on="1"/>
        <pt x="269" y="526" on="0"/>
        <pt x="269" y="581" on="1"/>
        <pt x="269" y="650" on="0"/>
        <pt x="251" y="689" on="1"/>
        <pt x="230" y="722" on="0"/>
        <pt x="209" y="756" on="1"/>
        <pt x="209" y="766" on="0"/>
        <pt x="231" y="786" on="0"/>
        <pt x="242" y="786" on="1"/>
        <pt x="262" y="786" on="0"/>
        <pt x="296" y="739" on="1"/>
        <pt x="334" y="686" on="0"/>
        <pt x="334" y="641" on="1"/>
      </contour>
    </TTGlyph>
    <TTGlyph name="quoteleft" xMin="4" yMin="390" xMax="304" yMax="791">
      <contour>
        <pt x="304" y="761" on="1"/>
        <pt x="304" y="736" on="0"/>
        <pt x="260" y="722" on="1"/>
        <pt x="198" y="702" on="0"/>
        <pt x="169" y="676" on="1"/>
        <pt x="132" y="642" on="0"/>
        <pt x="107" y="611" on="1"/>
        <pt x="64" y="559" on="0"/>
        <pt x="69" y="531" on="1"/>
        <pt x="75" y="495" on="0"/>
        <pt x="121" y="459" on="1"/>
        <pt x="168" y="426" on="0"/>
        <pt x="216" y="394" on="1"/>
        <pt x="216" y="390" on="0"/>
        <pt x="199" y="390" on="1"/>
        <pt x="113" y="390" on="0"/>
        <pt x="56" y="439" on="1"/>
        <pt x="4" y="484" on="0"/>
        <pt x="4" y="541" on="1"/>
        <pt x="4" y="564" on="0"/>
        <pt x="13" y="585" on="1"/>
        <pt x="16" y="591" on="0"/>
        <pt x="54" y="651" on="1"/>
        <pt x="107" y="734" on="0"/>
        <pt x="176" y="768" on="1"/>
        <pt x="223" y="791" on="0"/>
        <pt x="279" y="791" on="1"/>
        <pt x="292" y="791" on="0"/>
        <pt x="304" y="775" on="0"/>
      </contour>
    </TTGlyph>
    <TTGlyph name="quoteright" xMin="-16" yMin="404" xMax="230" yMax="786">
      <contour>
        <pt x="230" y="615" on="1"/>
        <pt x="230" y="558" on="0"/>
        <pt x="180" y="510" on="1"/>
        <pt x="126" y="458" on="0"/>
        <pt x="4" y="410" on="1"/>
        <pt x="-11" y="404" on="0"/>
        <pt x="-16" y="404" on="1"/>
        <pt x="21" y="440" on="0"/>
        <pt x="58" y="477" on="1"/>
        <pt x="149" y="566" on="0"/>
        <pt x="149" y="625" on="1"/>
        <pt x="149" y="690" on="0"/>
        <pt x="88" y="716" on="1"/>
        <pt x="59" y="728" on="0"/>
        <pt x="59" y="746" on="1"/>
        <pt x="59" y="773" on="0"/>
        <pt x="75" y="786" on="0"/>
        <pt x="99" y="786" on="1"/>
        <pt x="134" y="786" on="0"/>
        <pt x="180" y="730" on="1"/>
        <pt x="230" y="669" on="0"/>
      </contour>
    </TTGlyph>
    <TTGlyph name="quotesingle" xMin="1" yMin="460" xMax="220" yMax="792">
      <contour>
        <pt x="220" y="776" on="1"/>
        <pt x="201" y="735" on="0"/>
        <pt x="182" y="694" on="1"/>
        <pt x="138" y="604" on="0"/>
        <pt x="99" y="542" on="1"/>
        <pt x="47" y="460" on="0"/>
        <pt x="21" y="460" on="1"/>
        <pt x="14" y="460" on="0"/>
        <pt x="9" y="465" on="1"/>
        <pt x="1" y="473" on="0"/>
        <pt x="1" y="487" on="1"/>
        <pt x="1" y="508" on="0"/>
        <pt x="20" y="547" on="1"/>
        <pt x="34" y="576" on="0"/>
        <pt x="49" y="606" on="1"/>
        <pt x="52" y="613" on="0"/>
        <pt x="85" y="660" on="1"/>
        <pt x="122" y="713" on="0"/>
        <pt x="124" y="716" on="1"/>
        <pt x="134" y="740" on="0"/>
        <pt x="144" y="764" on="1"/>
        <pt x="159" y="792" on="0"/>
        <pt x="185" y="792" on="1"/>
        <pt x="200" y="792" on="0"/>
        <pt x="220" y="786" on="0"/>
      </contour>
    </TTGlyph>
</ttFont>
